font.ufo
<glyph name="exclam" format="2">
	<unicode hex="0021"/>
	<advance width="302"/>
	<outline>
		<contour>
			<point x="118" y="207" type="line"/>
			<point x="185" y="207" type="line"/>
			<point x="198" y="566" type="line"/>
			<point x="201" y="670" type="line"/>
			<point x="101" y="670" type="line"/>
			<point x="104" y="566" type="line"/>
		</contour>
		<contour>
			<point x="151" y="-12" type="curve" smooth="yes"/>
			<point x="189" y="-12"/>
			<point x="218" y="18"/>
			<point x="218" y="58" type="curve" smooth="yes"/>
			<point x="218" y="100"/>
			<point x="189" y="129"/>
			<point x="151" y="129" type="curve" smooth="yes"/>
			<point x="114" y="129"/>
			<point x="84" y="100"/>
			<point x="84" y="58" type="curve" smooth="yes"/>
			<point x="84" y="18"/>
			<point x="114" y="-12"/>
		</contour>
	</outline>
</glyph>
<glyph name="numbersign" format="2">
	<unicode hex="0023"/>
	<advance width="505"/>
	<outline>
		<contour>
			<point x="86" y="0" type="line"/>
			<point x="156" y="0" type="line"/>
			<point x="180" y="195" type="line"/>
			<point x="295" y="195" type="line"/>
			<point x="272" y="0" type="line"/>
			<point x="342" y="0" type="line"/>
			<point x="365" y="195" type="line"/>
			<point x="458" y="195" type="line"/>
			<point x="458" y="270" type="line"/>
			<point x="373" y="270" type="line"/>
			<point x="390" y="401" type="line"/>
			<point x="478" y="401" type="line"/>
			<point x="478" y="476" type="line"/>
			<point x="398" y="476" type="line"/>
			<point x="422" y="650" type="line"/>
			<point x="352" y="650" type="line"/>
			<point x="328" y="476" type="line"/>
			<point x="213" y="476" type="line"/>
			<point x="236" y="650" type="line"/>
			<point x="166" y="650" type="line"/>
			<point x="143" y="476" type="line"/>
			<point x="53" y="476" type="line"/>
			<point x="53" y="401" type="line"/>
			<point x="135" y="401" type="line"/>
			<point x="118" y="270" type="line"/>
			<point x="33" y="270" type="line"/>
			<point x="33" y="195" type="line"/>
			<point x="110" y="195" type="line"/>
		</contour>
		<contour>
			<point x="188" y="270" type="line"/>
			<point x="205" y="401" type="line"/>
			<point x="320" y="401" type="line"/>
			<point x="303" y="270" type="line"/>
		</contour>
	</outline>
</glyph>
<glyph name="ampersand" format="2">
	<unicode hex="0026"/>
	<advance width="624"/>
	<outline>
		<contour>
			<point x="240" y="-12" type="curve" smooth="yes"/>
			<point x="338" y="-12"/>
			<point x="406" y="31"/>
			<point x="462" y="94" type="curve" smooth="yes"/>
			<point x="527" y="170"/>
			<point x="574" y="261"/>
			<point x="601" y="358" type="curve"/>
			<point x="510" y="358" type="line"/>
			<point x="486" y="269"/>
			<point x="446" y="196"/>
			<point x="393" y="140" type="curve" smooth="yes"/>
			<point x="350" y="96"/>
			<point x="299" y="66"/>
			<point x="246" y="66" type="curve" smooth="yes"/>
			<point x="180" y="66"/>
			<point x="125" y="106"/>
			<point x="125" y="177" type="curve" smooth="yes"/>
			<point x="125" y="315"/>
			<point x="410" y="363"/>
			<point x="410" y="533" type="curve" smooth="yes"/>
			<point x="410" y="612"/>
			<point x="358" y="667"/>
			<point x="273" y="667" type="curve" smooth="yes"/>
			<point x="177" y="667"/>
			<point x="114" y="596"/>
			<point x="114" y="508" type="curve" smooth="yes"/>
			<point x="114" y="371"/>
			<point x="254" y="189"/>
			<point x="403" y="79" type="curve" smooth="yes"/>
			<point x="465" y="33"/>
			<point x="527" y="2"/>
			<point x="583" y="-12" type="curve"/>
			<point x="608" y="69" type="line"/>
			<point x="571" y="81"/>
			<point x="515" y="105"/>
			<point x="462" y="143" type="curve" smooth="yes"/>
			<point x="336" y="235"/>
			<point x="199" y="389"/>
			<point x="199" y="509" type="curve" smooth="yes"/>
			<point x="199" y="561"/>
			<point x="229" y="598"/>
			<point x="274" y="598" type="curve" smooth="yes"/>
			<point x="314" y="598"/>
			<point x="331" y="568"/>
			<point x="331" y="532" type="curve" smooth="yes"/>
			<point x="331" y="394"/>
			<point x="30" y="370"/>
			<point x="30" y="171" type="curve" smooth="yes"/>
			<point x="30" y="60"/>
			<point x="116" y="-12"/>
		</contour>
	</outline>
</glyph>
<glyph name="quotesingle" format="2">
	<unicode hex="0027"/>
	<advance width="262"/>
	<outline>
		<contour>
			<point x="102" y="411" type="line"/>
			<point x="160" y="411" type="line"/>
			<point x="179" y="586" type="line"/>
			<point x="182" y="689" type="line"/>
			<point x="79" y="689" type="line"/>
			<point x="82" y="586" type="line"/>
		</contour>
	</outline>
</glyph>
<glyph name="parenleft" format="2">
	<unicode hex="0028"/>
	<advance width="314"/>
	<outline>
		<contour>
			<point x="211" y="-177" type="curve"/>
			<point x="273" y="-149" type="line"/>
			<point x="197" y="-21"/>
			<point x="161" y="129"/>
			<point x="161" y="278" type="curve" smooth="yes"/>
			<point x="161" y="427"/>
			<point x="197" y="577"/>
			<point x="273" y="705" type="curve"/>
			<point x="211" y="733" type="line"/>
			<point x="128" y="598"/>
			<point x="79" y="454"/>
			<point x="79" y="278" type="curve" smooth="yes"/>
			<point x="79" y="102"/>
			<point x="128" y="-42"/>
		</contour>
	</outline>
</glyph>
<glyph name="parenright" format="2">
	<unicode hex="0029"/>
	<advance width="314"/>
	<outline>
		<contour>
			<point x="102" y="-177" type="line"/>
			<point x="185" y="-42"/>
			<point x="234" y="102"/>
			<point x="234" y="278" type="curve" smooth="yes"/>
			<point x="234" y="454"/>
			<point x="185" y="598"/>
			<point x="102" y="733" type="curve"/>
			<point x="41" y="705" type="line"/>
			<point x="117" y="577"/>
			<point x="153" y="427"/>
			<point x="153" y="278" type="curve" smooth="yes"/>
			<point x="153" y="129"/>
			<point x="117" y="-21"/>
			<point x="41" y="-149" type="curve"/>
		</contour>
	</outline>
</glyph>
<glyph name="asterisk" format="2">
	<unicode hex="002A"/>
	<advance width="428"/>
	<outline>
		<contour>
			<point x="141" y="402" type="line"/>
			<point x="214" y="488" type="line"/>
			<point x="287" y="402" type="line"/>
			<point x="332" y="435" type="line"/>
			<point x="275" y="531" type="line"/>
			<point x="375" y="574" type="line"/>
			<point x="358" y="626" type="line"/>
			<point x="252" y="602" type="line"/>
			<point x="242" y="712" type="line"/>
			<point x="186" y="712" type="line"/>
			<point x="176" y="601" type="line"/>
			<point x="70" y="626" type="line"/>
			<point x="53" y="574" type="line"/>
			<point x="152" y="531" type="line"/>
			<point x="95" y="435" type="line"/>
		</contour>
	</outline>
</glyph>
<glyph name="plus" format="2">
	<unicode hex="002B"/>
	<advance width="505"/>
	<outline>
		<contour>
			<point x="214" y="101" type="line"/>
			<point x="291" y="101" type="line"/>
			<point x="291" y="294" type="line"/>
			<point x="471" y="294" type="line"/>
			<point x="471" y="366" type="line"/>
			<point x="291" y="366" type="line"/>
			<point x="291" y="559" type="line"/>
			<point x="214" y="559" type="line"/>
			<point x="214" y="366" type="line"/>
			<point x="34" y="366" type="line"/>
			<point x="34" y="294" type="line"/>
			<point x="214" y="294" type="line"/>
		</contour>
	</outline>
</glyph>
<glyph name="comma" format="2">
	<unicode hex="002C"/>
	<advance width="262"/>
	<outline>
		<contour>
			<point x="70" y="-176" type="line"/>
			<point x="160" y="-142"/>
			<point x="213" y="-71"/>
			<point x="213" y="21" type="curve" smooth="yes"/>
			<point x="213" y="89"/>
			<point x="185" y="129"/>
			<point x="135" y="129" type="curve" smooth="yes"/>
			<point x="98" y="129"/>
			<point x="66" y="105"/>
			<point x="66" y="65" type="curve" smooth="yes"/>
			<point x="66" y="23"/>
			<point x="98" y="1"/>
			<point x="133" y="1" type="curve" smooth="yes"/>
			<point x="150" y="1"/>
			<point x="166" y="5"/>
			<point x="178" y="18" type="curve"/>
			<point x="136" y="84" type="line"/>
			<point x="143" y="4" type="line"/>
			<point x="143" y="-50"/>
			<point x="108" y="-95"/>
			<point x="47" y="-120" type="curve"/>
		</contour>
	</outline>
</glyph>
<glyph name="slash" format="2">
	<unicode hex="002F"/>
	<advance width="347"/>
	<outline>
		<contour>
			<point x="11" y="-160" type="line"/>
			<point x="80" y="-160" type="line"/>
			<point x="330" y="710" type="line"/>
			<point x="261" y="710" type="line"/>
		</contour>
	</outline>
</glyph>
<glyph name="zero" format="2">
	<unicode hex="0030"/>
	<advance width="505"/>
	<outline>
		<contour>
			<point x="253" y="-12" type="curve" smooth="yes"/>
			<point x="382" y="-12"/>
			<point x="463" y="107"/>
			<point x="463" y="321" type="curve" smooth="yes"/>
			<point x="463" y="535"/>
			<point x="382" y="649"/>
			<point x="253" y="649" type="curve" smooth="yes"/>
			<point x="123" y="649"/>
			<point x="42" y="535"/>
			<point x="42" y="321" type="curve" smooth="yes"/>
			<point x="42" y="107"/>
			<point x="123" y="-12"/>
		</contour>
		<contour>
			<point x="253" y="67" type="curve" smooth="yes"/>
			<point x="185" y="67"/>
			<point x="137" y="138"/>
			<point x="137" y="321" type="curve" smooth="yes"/>
			<point x="137" y="504"/>
			<point x="185" y="571"/>
			<point x="253" y="571" type="curve" smooth="yes"/>
			<point x="320" y="571"/>
			<point x="368" y="504"/>
			<point x="368" y="321" type="curve" smooth="yes"/>
			<point x="368" y="138"/>
			<point x="320" y="67"/>
		</contour>
	</outline>
</glyph>
<glyph name="one" format="2">
	<unicode hex="0031"/>
	<advance width="505"/>
	<outline>
		<contour>
			<point x="76" y="0" type="line"/>
			<point x="448" y="0" type="line"/>
			<point x="448" y="81" type="line"/>
			<point x="320" y="81" type="line"/>
			<point x="320" y="637" type="line"/>
			<point x="245" y="637" type="line"/>
			<point x="207" y="614"/>
			<point x="164" y="598"/>
			<point x="104" y="587" type="curve"/>
			<point x="104" y="525" type="line"/>
			<point x="221" y="525" type="line"/>
			<point x="221" y="81" type="line"/>
			<point x="76" y="81" type="line"/>
		</contour>
	</outline>
</glyph>
<glyph name="two" format="2">
	<unicode hex="0032"/>
	<advance width="505"/>
	<outline>
		<contour>
			<point x="39" y="0" type="line"/>
			<point x="460" y="0" type="line"/>
			<point x="460" y="84" type="line"/>
			<point x="281" y="84" type="line" smooth="yes"/>
			<point x="249" y="84"/>
			<point x="209" y="81"/>
			<point x="174" y="78" type="curve"/>
			<point x="319" y="225"/>
			<point x="429" y="337"/>
			<point x="429" y="459" type="curve" smooth="yes"/>
			<point x="429" y="573"/>
			<point x="352" y="649"/>
			<point x="233" y="649" type="curve" smooth="yes"/>
			<point x="149" y="649"/>
			<point x="91" y="611"/>
			<point x="36" y="549" type="curve"/>
			<point x="90" y="496" type="line"/>
			<point x="125" y="536"/>
			<point x="169" y="570"/>
			<point x="220" y="570" type="curve" smooth="yes"/>
			<point x="295" y="570"/>
			<point x="333" y="523"/>
			<point x="333" y="453" type="curve" smooth="yes"/>
			<point x="333" y="353"/>
			<point x="222" y="236"/>
			<point x="39" y="61" type="curve"/>
		</contour>
	</outline>
</glyph>
<glyph name="three" format="2">
	<unicode hex="0033"/>
	<advance width="505"/>
	<outline>
		<contour>
			<point x="238" y="-12" type="curve" smooth="yes"/>
			<point x="357" y="-12"/>
			<point x="455" y="56"/>
			<point x="455" y="171" type="curve" smooth="yes"/>
			<point x="455" y="257"/>
			<point x="396" y="312"/>
			<point x="320" y="331" type="curve"/>
			<point x="320" y="335" type="line"/>
			<point x="389" y="362"/>
			<point x="433" y="410"/>
			<point x="433" y="484" type="curve" smooth="yes"/>
			<point x="433" y="589"/>
			<point x="351" y="649"/>
			<point x="235" y="649" type="curve" smooth="yes"/>
			<point x="159" y="649"/>
			<point x="99" y="616"/>
			<point x="47" y="569" type="curve"/>
			<point x="99" y="507" type="line"/>
			<point x="137" y="544"/>
			<point x="180" y="570"/>
			<point x="231" y="570" type="curve" smooth="yes"/>
			<point x="294" y="570"/>
			<point x="333" y="534"/>
			<point x="333" y="477" type="curve" smooth="yes"/>
			<point x="333" y="414"/>
			<point x="290" y="367"/>
			<point x="160" y="367" type="curve"/>
			<point x="160" y="293" type="line"/>
			<point x="308" y="293"/>
			<point x="355" y="246"/>
			<point x="355" y="176" type="curve" smooth="yes"/>
			<point x="355" y="110"/>
			<point x="304" y="69"/>
			<point x="230" y="69" type="curve" smooth="yes"/>
			<point x="161" y="69"/>
			<point x="112" y="103"/>
			<point x="73" y="142" type="curve"/>
			<point x="25" y="78" type="line"/>
			<point x="69" y="29"/>
			<point x="135" y="-12"/>
		</contour>
	</outline>
</glyph>
<glyph name="four" format="2">
	<unicode hex="0034"/>
	<advance width="505"/>
	<outline>
		<contour>
			<point x="301" y="0" type="line"/>
			<point x="394" y="0" type="line"/>
			<point x="394" y="637" type="line"/>
			<point x="280" y="637" type="line"/>
			<point x="18" y="236" type="line"/>
			<point x="18" y="170" type="line"/>
			<point x="478" y="170" type="line"/>
			<point x="478" y="247" type="line"/>
			<point x="118" y="247" type="line"/>
			<point x="250" y="445" type="line"/>
			<point x="268" y="478"/>
			<point x="286" y="507"/>
			<point x="302" y="539" type="curve"/>
			<point x="306" y="539" type="line"/>
			<point x="304" y="504"/>
			<point x="301" y="447"/>
			<point x="301" y="412" type="curve" smooth="yes"/>
		</contour>
	</outline>
</glyph>
<glyph name="five" format="2">
	<unicode hex="0035"/>
	<advance width="505"/>
	<outline>
		<contour>
			<point x="238" y="-12" type="curve" smooth="yes"/>
			<point x="352" y="-12"/>
			<point x="457" y="67"/>
			<point x="457" y="206" type="curve" smooth="yes"/>
			<point x="457" y="343"/>
			<point x="367" y="405"/>
			<point x="258" y="405" type="curve" smooth="yes"/>
			<point x="222" y="405"/>
			<point x="196" y="396"/>
			<point x="167" y="382" type="curve"/>
			<point x="183" y="553" type="line"/>
			<point x="426" y="553" type="line"/>
			<point x="426" y="637" type="line"/>
			<point x="96" y="637" type="line"/>
			<point x="76" y="327" type="line"/>
			<point x="125" y="295" type="line"/>
			<point x="163" y="320"/>
			<point x="189" y="332"/>
			<point x="231" y="332" type="curve" smooth="yes"/>
			<point x="307" y="332"/>
			<point x="357" y="285"/>
			<point x="357" y="203" type="curve" smooth="yes"/>
			<point x="357" y="120"/>
			<point x="300" y="69"/>
			<point x="226" y="69" type="curve" smooth="yes"/>
			<point x="156" y="69"/>
			<point x="109" y="103"/>
			<point x="71" y="140" type="curve"/>
			<point x="24" y="76" type="line"/>
			<point x="70" y="30"/>
			<point x="135" y="-12"/>
		</contour>
	</outline>
</glyph>
<glyph name="seven" format="2">
	<unicode hex="0037"/>
	<advance width="505"/>
	<outline>
		<contour>
			<point x="166" y="0" type="curve"/>
			<point x="267" y="0" type="line"/>
			<point x="278" y="249"/>
			<point x="310" y="386"/>
			<point x="463" y="576" type="curve"/>
			<point x="463" y="637" type="line"/>
			<point x="44" y="637" type="line"/>
			<point x="44" y="553" type="line"/>
			<point x="354" y="553" type="line"/>
			<point x="226" y="378"/>
			<point x="177" y="233"/>
		</contour>
	</outline>
</glyph>
<glyph name="less" format="2">
	<unicode hex="003C"/>
	<advance width="505"/>
	<outline>
		<contour>
			<point x="471" y="124" type="line"/>
			<point x="471" y="208" type="line"/>
			<point x="269" y="281" type="line"/>
			<point x="135" y="330" type="line"/>
			<point x="135" y="334" type="line"/>
			<point x="269" y="383" type="line"/>
			<point x="471" y="456" type="line"/>
			<point x="471" y="540" type="line"/>
			<point x="34" y="369" type="line"/>
			<point x="34" y="295" type="line"/>
		</contour>
	</outline>
</glyph>
<glyph name="greater" format="2">
	<unicode hex="003E"/>
	<advance width="505"/>
	<outline>
		<contour>
			<point x="34" y="124" type="line"/>
			<point x="471" y="295" type="line"/>
			<point x="471" y="369" type="line"/>
			<point x="34" y="540" type="line"/>
			<point x="34" y="456" type="line"/>
			<point x="236" y="383" type="line"/>
			<point x="370" y="334" type="line"/>
			<point x="370" y="330" type="line"/>
			<point x="236" y="281" type="line"/>
			<point x="34" y="208" type="line"/>
		</contour>
	</outline>
</glyph>
<glyph name="question" format="2">
	<unicode hex="003F"/>
	<advance width="435"/>
	<outline>
		<contour>
			<point x="158" y="207" type="curve"/>
			<point x="245" y="207" type="line"/>
			<point x="230" y="341"/>
			<point x="389" y="390"/>
			<point x="389" y="519" type="curve" smooth="yes"/>
			<point x="389" y="623"/>
			<point x="318" y="682"/>
			<point x="215" y="682" type="curve" smooth="yes"/>
			<point x="141" y="682"/>
			<point x="82" y="646"/>
			<point x="39" y="597" type="curve"/>
			<point x="95" y="546" type="line"/>
			<point x="125" y="579"/>
			<point x="161" y="601"/>
			<point x="204" y="601" type="curve" smooth="yes"/>
			<point x="261" y="601"/>
			<point x="293" y="563"/>
			<point x="293" y="513" type="curve" smooth="yes"/>
			<point x="293" y="415"/>
			<point x="137" y="358"/>
		</contour>
		<contour>
			<point x="203" y="-12" type="curve" smooth="yes"/>
			<point x="241" y="-12"/>
			<point x="270" y="18"/>
			<point x="270" y="58" type="curve" smooth="yes"/>
			<point x="270" y="100"/>
			<point x="241" y="129"/>
			<point x="203" y="129" type="curve" smooth="yes"/>
			<point x="166" y="129"/>
			<point x="136" y="100"/>
			<point x="136" y="58" type="curve" smooth="yes"/>
			<point x="136" y="18"/>
			<point x="166" y="-12"/>
		</contour>
	</outline>
</glyph>
<glyph name="A" format="2">
	<unicode hex="0041"/>
	<advance width="551"/>
	<outline>
		<contour>
			<point x="0" y="0" type="line"/>
			<point x="102" y="0" type="line"/>
			<point x="210" y="357" type="line" smooth="yes"/>
			<point x="232" y="428"/>
			<point x="252" y="501"/>
			<point x="272" y="575" type="curve"/>
			<point x="276" y="575" type="line"/>
			<point x="296" y="502"/>
			<point x="316" y="428"/>
			<point x="338" y="357" type="curve" smooth="yes"/>
			<point x="445" y="0" type="line"/>
			<point x="551" y="0" type="line"/>
			<point x="333" y="655" type="line"/>
			<point x="218" y="655" type="line"/>
		</contour>
		<contour>
			<point x="122" y="188" type="line"/>
			<point x="427" y="188" type="line"/>
			<point x="427" y="267" type="line"/>
			<point x="122" y="267" type="line"/>
		</contour>
	</outline>
	<anchor name="aboveUC" x="275" y="677"/>
	<anchor name="belowLC" x="275" y="-22"/>
	<anchor name="ogonekUC" x="485" y="0"/>
</glyph>
<glyph name="B" format="2">
	<unicode hex="0042"/>
	<advance width="592"/>
	<outline>
		<contour>
			<point x="86" y="0" type="line"/>
			<point x="304" y="0" type="line" smooth="yes"/>
			<point x="450" y="0"/>
			<point x="554" y="63"/>
			<point x="554" y="196" type="curve" smooth="yes"/>
			<point x="554" y="283"/>
			<point x="504" y="332"/>
			<point x="425" y="348" type="curve"/>
			<point x="425" y="352" type="line"/>
			<point x="485" y="372"/>
			<point x="518" y="427"/>
			<point x="518" y="494" type="curve" smooth="yes"/>
			<point x="518" y="612"/>
			<point x="422" y="655"/>
			<point x="289" y="655" type="curve" smooth="yes"/>
			<point x="86" y="655" type="line"/>
		</contour>
		<contour>
			<point x="186" y="381" type="line"/>
			<point x="186" y="577" type="line"/>
			<point x="279" y="577" type="line" smooth="yes"/>
			<point x="372" y="577"/>
			<point x="420" y="550"/>
			<point x="420" y="481" type="curve" smooth="yes"/>
			<point x="420" y="419"/>
			<point x="378" y="381"/>
			<point x="276" y="381" type="curve" smooth="yes"/>
		</contour>
		<contour>
			<point x="186" y="79" type="line"/>
			<point x="186" y="305" type="line"/>
			<point x="292" y="305" type="line" smooth="yes"/>
			<point x="398" y="305"/>
			<point x="456" y="272"/>
			<point x="456" y="197" type="curve" smooth="yes"/>
			<point x="456" y="116"/>
			<point x="396" y="79"/>
			<point x="292" y="79" type="curve" smooth="yes"/>
		</contour>
	</outline>
	<anchor name="aboveUC" x="295" y="677"/>
	<anchor name="belowLC" x="305" y="-22"/>
</glyph>
<glyph name="C" format="2">
	<unicode hex="0043"/>
	<advance width="574"/>
	<outline>
		<contour>
			<point x="343" y="-12" type="curve" smooth="yes"/>
			<point x="427" y="-12"/>
			<point x="489" y="21"/>
			<point x="543" y="82" type="curve"/>
			<point x="492" y="140" type="line"/>
			<point x="453" y="99"/>
			<point x="408" y="75"/>
			<point x="349" y="75" type="curve" smooth="yes"/>
			<point x="230" y="75"/>
			<point x="153" y="172"/>
			<point x="153" y="329" type="curve" smooth="yes"/>
			<point x="153" y="483"/>
			<point x="234" y="580"/>
			<point x="348" y="580" type="curve" smooth="yes"/>
			<point x="400" y="580"/>
			<point x="442" y="560"/>
			<point x="476" y="524" type="curve"/>
			<point x="530" y="585" type="line"/>
			<point x="490" y="630"/>
			<point x="425" y="667"/>
			<point x="346" y="667" type="curve" smooth="yes"/>
			<point x="180" y="667"/>
			<point x="50" y="539"/>
			<point x="50" y="326" type="curve" smooth="yes"/>
			<point x="50" y="111"/>
			<point x="178" y="-12"/>
		</contour>
	</outline>
	<anchor name="aboverightUC" x="479" y="677"/>
	<anchor name="aboveUC" x="335" y="677"/>
	<anchor name="baseLC" x="345" y="0"/>
	<anchor name="belowLC" x="345" y="-22"/>
</glyph>
<glyph name="D" format="2">
	<unicode hex="0044"/>
	<advance width="620"/>
	<outline>
		<contour>
			<point x="86" y="0" type="line"/>
			<point x="261" y="0" type="line" smooth="yes"/>
			<point x="457" y="0"/>
			<point x="570" y="118"/>
			<point x="570" y="330" type="curve" smooth="yes"/>
			<point x="570" y="543"/>
			<point x="457" y="655"/>
			<point x="256" y="655" type="curve" smooth="yes"/>
			<point x="86" y="655" type="line"/>
		</contour>
		<contour>
			<point x="186" y="81" type="line"/>
			<point x="186" y="574" type="line"/>
			<point x="249" y="574" type="line" smooth="yes"/>
			<point x="391" y="574"/>
			<point x="467" y="493"/>
			<point x="467" y="330" type="curve" smooth="yes"/>
			<point x="467" y="167"/>
			<point x="391" y="81"/>
			<point x="249" y="81" type="curve" smooth="yes"/>
		</contour>
	</outline>
	<anchor name="aboveUC" x="315" y="677"/>
	<anchor name="belowLC" x="305" y="-22"/>
</glyph>
<glyph name="E" format="2">
	<unicode hex="0045"/>
	<advance width="532"/>
	<outline>
		<contour>
			<point x="86" y="0" type="line"/>
			<point x="482" y="0" type="line"/>
			<point x="482" y="84" type="line"/>
			<point x="186" y="84" type="line"/>
			<point x="186" y="300" type="line"/>
			<point x="428" y="300" type="line"/>
			<point x="428" y="384" type="line"/>
			<point x="186" y="384" type="line"/>
			<point x="186" y="571" type="line"/>
			<point x="472" y="571" type="line"/>
			<point x="472" y="655" type="line"/>
			<point x="86" y="655" type="line"/>
		</contour>
	</outline>
	<anchor name="aboveUC" x="290" y="677"/>
	<anchor name="baseLC" x="300" y="0"/>
	<anchor name="belowLC" x="300" y="-22"/>
	<anchor name="ogonekUC" x="405" y="0"/>
</glyph>
<glyph name="F" format="2">
	<unicode hex="0046"/>
	<advance width="502"/>
	<outline>
		<contour>
			<point x="86" y="0" type="line"/>
			<point x="186" y="0" type="line"/>
			<point x="186" y="283" type="line"/>
			<point x="430" y="283" type="line"/>
			<point x="430" y="368" type="line"/>
			<point x="186" y="368" type="line"/>
			<point x="186" y="571" type="line"/>
			<point x="473" y="571" type="line"/>
			<point x="473" y="655" type="line"/>
			<point x="86" y="655" type="line"/>
		</contour>
	</outline>
	<anchor name="aboveUC" x="287" y="677"/>
	<anchor name="belowLC" x="141" y="-22"/>
</glyph>
<glyph name="H" format="2">
	<unicode hex="0048"/>
	<advance width="657"/>
	<outline>
		<contour>
			<point x="86" y="0" type="line"/>
			<point x="186" y="0" type="line"/>
			<point x="186" y="299" type="line"/>
			<point x="471" y="299" type="line"/>
			<point x="471" y="0" type="line"/>
			<point x="571" y="0" type="line"/>
			<point x="571" y="655" type="line"/>
			<point x="471" y="655" type="line"/>
			<point x="471" y="386" type="line"/>
			<point x="186" y="386" type="line"/>
			<point x="186" y="655" type="line"/>
			<point x="86" y="655" type="line"/>
		</contour>
	</outline>
	<anchor name="aboveUC" x="328" y="677"/>
	<anchor name="belowLC" x="328" y="-22"/>
</glyph>
<glyph name="I" format="2">
	<unicode hex="0049"/>
	<advance width="273"/>
	<outline>
		<contour>
			<point x="86" y="0" type="line"/>
			<point x="186" y="0" type="line"/>
			<point x="186" y="655" type="line"/>
			<point x="86" y="655" type="line"/>
		</contour>
	</outline>
	<anchor name="aboveUC" x="137" y="677"/>
	<anchor name="belowLC" x="137" y="-22"/>
	<anchor name="ogonekUC" x="134" y="0"/>
</glyph>
<glyph name="J" format="2">
	<unicode hex="004A"/>
	<advance width="487"/>
	<outline>
		<contour>
			<point x="210" y="-12" type="curve" smooth="yes"/>
			<point x="346" y="-12"/>
			<point x="404" y="84"/>
			<point x="404" y="202" type="curve" smooth="yes"/>
			<point x="404" y="655" type="line"/>
			<point x="304" y="655" type="line"/>
			<point x="304" y="211" type="line" smooth="yes"/>
			<point x="304" y="113"/>
			<point x="270" y="75"/>
			<point x="202" y="75" type="curve" smooth="yes"/>
			<point x="157" y="75"/>
			<point x="121" y="96"/>
			<point x="95" y="142" type="curve"/>
			<point x="29" y="98" type="line"/>
			<point x="67" y="24"/>
			<point x="127" y="-12"/>
		</contour>
	</outline>
	<anchor name="aboveUC" x="349" y="677"/>
	<anchor name="belowLC" x="255" y="-22"/>
</glyph>
<glyph name="K" format="2">
	<unicode hex="004B"/>
	<advance width="588"/>
	<outline>
		<contour>
			<point x="86" y="0" type="line"/>
			<point x="186" y="0" type="line"/>
			<point x="186" y="199" type="line"/>
			<point x="290" y="324" type="line"/>
			<point x="476" y="0" type="line"/>
			<point x="587" y="0" type="line"/>
			<point x="350" y="402" type="line"/>
			<point x="554" y="655" type="line"/>
			<point x="442" y="655" type="line"/>
			<point x="189" y="342" type="line"/>
			<point x="186" y="342" type="line"/>
			<point x="186" y="655" type="line"/>
			<point x="86" y="655" type="line"/>
		</contour>
	</outline>
	<anchor name="aboverightUC" x="515" y="677"/>
	<anchor name="aboveUC" x="313" y="677"/>
	<anchor name="belowLC" x="329" y="-22"/>
</glyph>
<glyph name="L" format="2">
	<unicode hex="004C"/>
	<advance width="494"/>
	<outline>
		<contour>
			<point x="86" y="0" type="line"/>
			<point x="465" y="0" type="line"/>
			<point x="465" y="84" type="line"/>
			<point x="186" y="84" type="line"/>
			<point x="186" y="655" type="line"/>
			<point x="86" y="655" type="line"/>
		</contour>
	</outline>
	<anchor name="aboveUC" x="139" y="677"/>
	<anchor name="belowLC" x="285" y="-22"/>
	<anchor name="center" x="139" y="355"/>
</glyph>
<glyph name="M" format="2">
	<unicode hex="004D"/>
	<advance width="736"/>
	<outline>
		<contour>
			<point x="86" y="0" type="line"/>
			<point x="177" y="0" type="line"/>
			<point x="177" y="329" type="line" smooth="yes"/>
			<point x="177" y="389"/>
			<point x="170" y="481"/>
			<point x="163" y="540" type="curve"/>
			<point x="167" y="540" type="line"/>
			<point x="218" y="377" type="line"/>
			<point x="332" y="63" type="line"/>
			<point x="402" y="63" type="line"/>
			<point x="516" y="377" type="line"/>
			<point x="568" y="540" type="line"/>
			<point x="572" y="540" type="line"/>
			<point x="565" y="481"/>
			<point x="557" y="389"/>
			<point x="557" y="329" type="curve" smooth="yes"/>
			<point x="557" y="0" type="line"/>
			<point x="650" y="0" type="line"/>
			<point x="650" y="655" type="line"/>
			<point x="528" y="655" type="line"/>
			<point x="410" y="320" type="line"/>
			<point x="396" y="276"/>
			<point x="385" y="236"/>
			<point x="371" y="188" type="curve"/>
			<point x="367" y="188" type="line"/>
			<point x="354" y="236"/>
			<point x="341" y="276"/>
			<point x="326" y="320" type="curve"/>
			<point x="209" y="655" type="line"/>
			<point x="86" y="655" type="line"/>
		</contour>
	</outline>
	<anchor name="aboveUC" x="369" y="677"/>
	<anchor name="belowLC" x="369" y="-22"/>
</glyph>
<glyph name="N" format="2">
	<unicode hex="004E"/>
	<advance width="652"/>
	<outline>
		<contour>
			<point x="86" y="0" type="line"/>
			<point x="182" y="0" type="line"/>
			<point x="182" y="314" type="line" smooth="yes"/>
			<point x="182" y="386"/>
			<point x="175" y="461"/>
			<point x="168" y="528" type="curve"/>
			<point x="172" y="528" type="line"/>
			<point x="193" y="478"/>
			<point x="217" y="428"/>
			<point x="242" y="384" type="curve" smooth="yes"/>
			<point x="456" y="0" type="line"/>
			<point x="565" y="0" type="line"/>
			<point x="565" y="655" type="line"/>
			<point x="470" y="655" type="line"/>
			<point x="470" y="342" type="line" smooth="yes"/>
			<point x="470" y="272"/>
			<point x="476" y="196"/>
			<point x="482" y="127" type="curve"/>
			<point x="478" y="127" type="line"/>
			<point x="457" y="177"/>
			<point x="434" y="228"/>
			<point x="410" y="272" type="curve" smooth="yes"/>
			<point x="196" y="655" type="line"/>
			<point x="86" y="655" type="line"/>
		</contour>
	</outline>
	<anchor name="aboveUC" x="335" y="677"/>
	<anchor name="belowLC" x="335" y="-22"/>
</glyph>
<glyph name="Q" format="2">
	<unicode hex="0051"/>
	<advance width="669"/>
	<outline>
		<contour>
			<point x="335" y="-12" type="curve" smooth="yes"/>
			<point x="502" y="-12"/>
			<point x="619" y="119"/>
			<point x="619" y="330" type="curve" smooth="yes"/>
			<point x="619" y="540"/>
			<point x="502" y="667"/>
			<point x="335" y="667" type="curve" smooth="yes"/>
			<point x="167" y="667"/>
			<point x="50" y="541"/>
			<point x="50" y="330" type="curve" smooth="yes"/>
			<point x="50" y="119"/>
			<point x="167" y="-12"/>
		</contour>
		<contour>
			<point x="335" y="70" type="curve" smooth="yes"/>
			<point x="225" y="70"/>
			<point x="153" y="170"/>
			<point x="153" y="330" type="curve" smooth="yes"/>
			<point x="153" y="485"/>
			<point x="225" y="580"/>
			<point x="335" y="580" type="curve" smooth="yes"/>
			<point x="445" y="580"/>
			<point x="516" y="485"/>
			<point x="516" y="330" type="curve" smooth="yes"/>
			<point x="516" y="170"/>
			<point x="445" y="70"/>
		</contour>
		<contour>
			<point x="539" y="-169" type="curve" smooth="yes"/>
			<point x="581" y="-169"/>
			<point x="618" y="-162"/>
			<point x="639" y="-152" type="curve"/>
			<point x="620" y="-78" type="line"/>
			<point x="602" y="-83"/>
			<point x="579" y="-87"/>
			<point x="550" y="-87" type="curve" smooth="yes"/>
			<point x="477" y="-87"/>
			<point x="412" y="-56"/>
			<point x="386" y="12" type="curve"/>
			<point x="283" y="3" type="line"/>
			<point x="320" y="-96"/>
			<point x="409" y="-169"/>
		</contour>
	</outline>
	<anchor name="aboveUC" x="335" y="677"/>
	<anchor name="belowLC" x="327" y="-161"/>
</glyph>
<glyph name="R" format="2">
	<unicode hex="0052"/>
	<advance width="581"/>
	<outline>
		<contour>
			<point x="86" y="0" type="line"/>
			<point x="186" y="0" type="line"/>
			<point x="186" y="266" type="line"/>
			<point x="299" y="266" type="line" smooth="yes"/>
			<point x="434" y="266"/>
			<point x="535" y="330"/>
			<point x="535" y="466" type="curve" smooth="yes"/>
			<point x="535" y="607"/>
			<point x="434" y="655"/>
			<point x="299" y="655" type="curve" smooth="yes"/>
			<point x="86" y="655" type="line"/>
		</contour>
		<contour>
			<point x="186" y="347" type="line"/>
			<point x="186" y="575" type="line"/>
			<point x="287" y="575" type="line" smooth="yes"/>
			<point x="383" y="575"/>
			<point x="436" y="546"/>
			<point x="436" y="466" type="curve" smooth="yes"/>
			<point x="436" y="386"/>
			<point x="383" y="347"/>
			<point x="287" y="347" type="curve" smooth="yes"/>
		</contour>
		<contour>
			<point x="445" y="0" type="line"/>
			<point x="557" y="0" type="line"/>
			<point x="355" y="350" type="line"/>
			<point x="280" y="293" type="line"/>
		</contour>
	</outline>
	<anchor name="aboveUC" x="299" y="677"/>
	<anchor name="belowLC" x="314" y="-22"/>
</glyph>
<glyph name="S" format="2">
	<unicode hex="0053"/>
	<advance width="539"/>
	<outline>
		<contour>
			<point x="273" y="-12" type="curve" smooth="yes"/>
			<point x="416" y="-12"/>
			<point x="502" y="74"/>
			<point x="502" y="179" type="curve" smooth="yes"/>
			<point x="502" y="275"/>
			<point x="447" y="321"/>
			<point x="369" y="354" type="curve" smooth="yes"/>
			<point x="278" y="393" type="line" smooth="yes"/>
			<point x="225" y="415"/>
			<point x="171" y="436"/>
			<point x="171" y="494" type="curve" smooth="yes"/>
			<point x="171" y="547"/>
			<point x="216" y="580"/>
			<point x="284" y="580" type="curve" smooth="yes"/>
			<point x="338" y="580"/>
			<point x="386" y="558"/>
			<point x="428" y="522" type="curve"/>
			<point x="481" y="587" type="line"/>
			<point x="433" y="635"/>
			<point x="363" y="667"/>
			<point x="284" y="667" type="curve" smooth="yes"/>
			<point x="159" y="667"/>
			<point x="70" y="590"/>
			<point x="70" y="488" type="curve" smooth="yes"/>
			<point x="70" y="393"/>
			<point x="139" y="343"/>
			<point x="203" y="316" type="curve" smooth="yes"/>
			<point x="295" y="276" type="line" smooth="yes"/>
			<point x="355" y="250"/>
			<point x="400" y="231"/>
			<point x="400" y="171" type="curve" smooth="yes"/>
			<point x="400" y="113"/>
			<point x="355" y="75"/>
			<point x="275" y="75" type="curve" smooth="yes"/>
			<point x="208" y="75"/>
			<point x="142" y="103"/>
			<point x="95" y="150" type="curve"/>
			<point x="40" y="85" type="line"/>
			<point x="100" y="23"/>
			<point x="181" y="-12"/>
		</contour>
	</outline>
	<anchor name="aboveUC" x="284" y="677"/>
	<anchor name="baseLC" x="275" y="0"/>
	<anchor name="belowLC" x="275" y="-22"/>
</glyph>
<glyph name="X" format="2">
	<unicode hex="0058"/>
	<advance width="527"/>
	<outline>
		<contour>
			<point x="14" y="0" type="line"/>
			<point x="120" y="0" type="line"/>
			<point x="206" y="165" type="line" smooth="yes"/>
			<point x="222" y="198"/>
			<point x="238" y="231"/>
			<point x="256" y="271" type="curve"/>
			<point x="260" y="271" type="line"/>
			<point x="280" y="231"/>
			<point x="297" y="198"/>
			<point x="314" y="165" type="curve" smooth="yes"/>
			<point x="402" y="0" type="line"/>
			<point x="513" y="0" type="line"/>
			<point x="325" y="333" type="line"/>
			<point x="501" y="655" type="line"/>
			<point x="395" y="655" type="line"/>
			<point x="317" y="499" type="line" smooth="yes"/>
			<point x="302" y="469"/>
			<point x="289" y="440"/>
			<point x="272" y="401" type="curve"/>
			<point x="268" y="401" type="line"/>
			<point x="248" y="440"/>
			<point x="234" y="469"/>
			<point x="218" y="499" type="curve" smooth="yes"/>
			<point x="137" y="655" type="line"/>
			<point x="26" y="655" type="line"/>
			<point x="202" y="338" type="line"/>
		</contour>
	</outline>
	<anchor name="aboveUC" x="264" y="677"/>
	<anchor name="belowLC" x="257" y="-22"/>
</glyph>
<glyph name="Y" format="2">
	<unicode hex="0059"/>
	<advance width="488"/>
	<outline>
		<contour>
			<point x="194" y="0" type="line"/>
			<point x="294" y="0" type="line"/>
			<point x="294" y="249" type="line"/>
			<point x="491" y="655" type="line"/>
			<point x="387" y="655" type="line"/>
			<point x="310" y="479" type="line"/>
			<point x="290" y="431"/>
			<point x="268" y="385"/>
			<point x="247" y="336" type="curve"/>
			<point x="243" y="336" type="line"/>
			<point x="221" y="385"/>
			<point x="202" y="431"/>
			<point x="182" y="479" type="curve"/>
			<point x="104" y="655" type="line"/>
			<point x="-3" y="655" type="line"/>
			<point x="194" y="249" type="line"/>
		</contour>
	</outline>
	<anchor name="aboverightUC" x="464" y="677"/>
	<anchor name="aboveUC" x="244" y="677"/>
	<anchor name="belowLC" x="244" y="-22"/>
</glyph>
<glyph name="Z" format="2">
	<unicode hex="005A"/>
	<advance width="540"/>
	<outline>
		<contour>
			<point x="42" y="0" type="line"/>
			<point x="500" y="0" type="line"/>
			<point x="500" y="84" type="line"/>
			<point x="166" y="84" type="line"/>
			<point x="497" y="595" type="line"/>
			<point x="497" y="655" type="line"/>
			<point x="72" y="655" type="line"/>
			<point x="72" y="571" type="line"/>
			<point x="373" y="571" type="line"/>
			<point x="42" y="60" type="line"/>
		</contour>
	</outline>
	<anchor name="aboveUC" x="281" y="677"/>
	<anchor name="belowLC" x="282" y="-22"/>
</glyph>
<glyph name="backslash" format="2">
	<unicode hex="005C"/>
	<advance width="347"/>
	<outline>
		<contour>
			<point x="268" y="-160" type="line"/>
			<point x="336" y="-160" type="line"/>
			<point x="86" y="710" type="line"/>
			<point x="18" y="710" type="line"/>
		</contour>
	</outline>
</glyph>
<glyph name="bracketright" format="2">
	<unicode hex="005D"/>
	<advance width="314"/>
	<outline>
		<contour>
			<point x="35" y="-152" type="line"/>
			<point x="222" y="-152" type="line"/>
			<point x="222" y="708" type="line"/>
			<point x="35" y="708" type="line"/>
			<point x="35" y="653" type="line"/>
			<point x="147" y="653" type="line"/>
			<point x="147" y="-97" type="line"/>
			<point x="35" y="-97" type="line"/>
		</contour>
	</outline>
</glyph>
<glyph name="b" format="2">
	<unicode hex="0062"/>
	<advance width="558"/>
	<outline>
		<contour>
			<point x="304" y="-12" type="curve" smooth="yes"/>
			<point x="414" y="-12"/>
			<point x="514" y="85"/>
			<point x="514" y="252" type="curve" smooth="yes"/>
			<point x="514" y="403"/>
			<point x="445" y="501"/>
			<point x="321" y="501" type="curve" smooth="yes"/>
			<point x="269" y="501"/>
			<point x="216" y="473"/>
			<point x="174" y="436" type="curve"/>
			<point x="177" y="521" type="line"/>
			<point x="177" y="709" type="line"/>
			<point x="78" y="709" type="line"/>
			<point x="78" y="0" type="line"/>
			<point x="156" y="0" type="line"/>
			<point x="165" y="51" type="line"/>
			<point x="168" y="51" type="line"/>
			<point x="210" y="11"/>
			<point x="259" y="-12"/>
		</contour>
		<contour>
			<point x="285" y="70" type="curve" smooth="yes"/>
			<point x="255" y="70"/>
			<point x="215" y="83"/>
			<point x="177" y="116" type="curve"/>
			<point x="177" y="358" type="line"/>
			<point x="218" y="398"/>
			<point x="257" y="418"/>
			<point x="295" y="418" type="curve" smooth="yes"/>
			<point x="378" y="418"/>
			<point x="412" y="353"/>
			<point x="412" y="251" type="curve" smooth="yes"/>
			<point x="412" y="135"/>
			<point x="358" y="70"/>
		</contour>
	</outline>
	<anchor name="aboveUC" x="299" y="727"/>
	<anchor name="belowLC" x="295" y="-22"/>
	<anchor name="center" x="129" y="590"/>
</glyph>
<glyph name="c" format="2">
	<unicode hex="0063"/>
	<advance width="459"/>
	<outline>
		<contour>
			<point x="278" y="-12" type="curve" smooth="yes"/>
			<point x="339" y="-12"/>
			<point x="394" y="12"/>
			<point x="435" y="51" type="curve"/>
			<point x="393" y="112" type="line"/>
			<point x="365" y="86"/>
			<point x="328" y="69"/>
			<point x="286" y="69" type="curve" smooth="yes"/>
			<point x="203" y="69"/>
			<point x="145" y="139"/>
			<point x="145" y="244" type="curve" smooth="yes"/>
			<point x="145" y="349"/>
			<point x="206" y="419"/>
			<point x="288" y="419" type="curve" smooth="yes"/>
			<point x="327" y="419"/>
			<point x="355" y="405"/>
			<point x="378" y="384" type="curve"/>
			<point x="426" y="445" type="line"/>
			<point x="393" y="478"/>
			<point x="347" y="501"/>
			<point x="284" y="501" type="curve" smooth="yes"/>
			<point x="156" y="501"/>
			<point x="43" y="407"/>
			<point x="43" y="244" type="curve" smooth="yes"/>
			<point x="43" y="82"/>
			<point x="144" y="-12"/>
		</contour>
	</outline>
	<anchor name="aboveLC" x="275" y="512"/>
	<anchor name="aboverightLC" x="415" y="512"/>
	<anchor name="baseLC" x="265" y="0"/>
	<anchor name="belowLC" x="265" y="-22"/>
</glyph>
<glyph name="d" format="2">
	<unicode hex="0064"/>
	<advance width="559"/>
	<outline>
		<contour>
			<point x="246" y="-12" type="curve" smooth="yes"/>
			<point x="301" y="-12"/>
			<point x="353" y="18"/>
			<point x="390" y="55" type="curve"/>
			<point x="393" y="55" type="line"/>
			<point x="401" y="0" type="line"/>
			<point x="482" y="0" type="line"/>
			<point x="482" y="709" type="line"/>
			<point x="383" y="709" type="line"/>
			<point x="383" y="527" type="line"/>
			<point x="387" y="446" type="line"/>
			<point x="347" y="480"/>
			<point x="310" y="501"/>
			<point x="254" y="501" type="curve" smooth="yes"/>
			<point x="145" y="501"/>
			<point x="45" y="403"/>
			<point x="45" y="244" type="curve" smooth="yes"/>
			<point x="45" y="82"/>
			<point x="124" y="-12"/>
		</contour>
		<contour>
			<point x="270" y="70" type="curve" smooth="yes"/>
			<point x="192" y="70"/>
			<point x="147" y="133"/>
			<point x="147" y="245" type="curve" smooth="yes"/>
			<point x="147" y="351"/>
			<point x="204" y="418"/>
			<point x="274" y="418" type="curve" smooth="yes"/>
			<point x="310" y="418"/>
			<point x="345" y="406"/>
			<point x="383" y="373" type="curve"/>
			<point x="383" y="131" type="line"/>
			<point x="346" y="90"/>
			<point x="311" y="70"/>
		</contour>
	</outline>
	<anchor name="aboveUC" x="270" y="727"/>
	<anchor name="belowLC" x="275" y="-22"/>
	<anchor name="center" x="430" y="590"/>
</glyph>
<glyph name="e" format="2">
	<unicode hex="0065"/>
	<advance width="501"/>
	<outline>
		<contour>
			<point x="282" y="-12" type="curve" smooth="yes"/>
			<point x="346" y="-12"/>
			<point x="402" y="8"/>
			<point x="446" y="39" type="curve"/>
			<point x="411" y="103" type="line"/>
			<point x="377" y="81"/>
			<point x="338" y="68"/>
			<point x="293" y="68" type="curve" smooth="yes"/>
			<point x="212" y="68"/>
			<point x="141" y="125"/>
			<point x="141" y="245" type="curve" smooth="yes"/>
			<point x="141" y="377"/>
			<point x="207" y="422"/>
			<point x="268" y="422" type="curve" smooth="yes"/>
			<point x="339" y="422"/>
			<point x="376" y="374"/>
			<point x="376" y="292" type="curve"/>
			<point x="115" y="292" type="line"/>
			<point x="115" y="215" type="line"/>
			<point x="459" y="215" type="line"/>
			<point x="463" y="232"/>
			<point x="464" y="250"/>
			<point x="464" y="270" type="curve" smooth="yes"/>
			<point x="464" y="407"/>
			<point x="396" y="501"/>
			<point x="266" y="501" type="curve" smooth="yes"/>
			<point x="152" y="501"/>
			<point x="43" y="404"/>
			<point x="43" y="244" type="curve" smooth="yes"/>
			<point x="43" y="82"/>
			<point x="147" y="-12"/>
		</contour>
	</outline>
	<anchor name="aboveLC" x="265" y="512"/>
	<anchor name="baseLC" x="265" y="0"/>
	<anchor name="belowLC" x="265" y="-22"/>
	<anchor name="ogonekLC" x="350" y="0"/>
</glyph>
<glyph name="f" format="2">
	<unicode hex="0066"/>
	<advance width="304"/>
	<outline>
		<contour>
			<point x="94" y="0" type="line"/>
			<point x="193" y="0" type="line"/>
			<point x="193" y="553" type="line" smooth="yes"/>
			<point x="193" y="612"/>
			<point x="215" y="642"/>
			<point x="259" y="642" type="curve" smooth="yes"/>
			<point x="276" y="642"/>
			<point x="293" y="639"/>
			<point x="312" y="633" type="curve"/>
			<point x="332" y="704" type="line"/>
			<point x="311" y="713"/>
			<point x="280" y="721"/>
			<point x="247" y="721" type="curve" smooth="yes"/>
			<point x="140" y="721"/>
			<point x="94" y="653"/>
			<point x="94" y="552" type="curve" smooth="yes"/>
		</contour>
		<contour>
			<point x="22" y="409" type="line"/>
			<point x="293" y="409" type="line"/>
			<point x="293" y="489" type="line"/>
			<point x="100" y="489" type="line"/>
			<point x="22" y="484" type="line"/>
		</contour>
	</outline>
	<anchor name="aboveUC" x="224" y="727"/>
	<anchor name="belowLC" x="144" y="-22"/>
	<anchor name="center" x="154" y="230"/>
</glyph>
<glyph name="k" format="2">
	<unicode hex="006B"/>
	<advance width="508"/>
	<outline>
		<contour>
			<point x="78" y="0" type="line"/>
			<point x="176" y="0" type="line"/>
			<point x="176" y="127" type="line"/>
			<point x="258" y="223" type="line"/>
			<point x="392" y="0" type="line"/>
			<point x="500" y="0" type="line"/>
			<point x="316" y="290" type="line"/>
			<point x="481" y="489" type="line"/>
			<point x="371" y="489" type="line"/>
			<point x="179" y="249" type="line"/>
			<point x="176" y="249" type="line"/>
			<point x="176" y="709" type="line"/>
			<point x="78" y="709" type="line"/>
		</contour>
	</outline>
	<anchor name="aboverightLC" x="434" y="512"/>
	<anchor name="aboveUC" x="294" y="727"/>
	<anchor name="belowLC" x="279" y="-22"/>
</glyph>
<glyph name="n" format="2">
	<unicode hex="006E"/>
	<advance width="553"/>
	<outline>
		<contour>
			<point x="78" y="0" type="line"/>
			<point x="177" y="0" type="line"/>
			<point x="177" y="348" type="line"/>
			<point x="221" y="392"/>
			<point x="252" y="415"/>
			<point x="299" y="415" type="curve" smooth="yes"/>
			<point x="357" y="415"/>
			<point x="383" y="381"/>
			<point x="383" y="295" type="curve" smooth="yes"/>
			<point x="383" y="0" type="line"/>
			<point x="482" y="0" type="line"/>
			<point x="482" y="308" type="line" smooth="yes"/>
			<point x="482" y="432"/>
			<point x="436" y="501"/>
			<point x="332" y="501" type="curve" smooth="yes"/>
			<point x="265" y="501"/>
			<point x="215" y="465"/>
			<point x="170" y="420" type="curve"/>
			<point x="167" y="420" type="line"/>
			<point x="159" y="489" type="line"/>
			<point x="78" y="489" type="line"/>
		</contour>
	</outline>
	<anchor name="aboveLC" x="299" y="512"/>
	<anchor name="belowLC" x="280" y="-22"/>
</glyph>
<glyph name="o" format="2">
	<unicode hex="006F"/>
	<advance width="546"/>
	<outline>
		<contour>
			<point x="273" y="-12" type="curve" smooth="yes"/>
			<point x="394" y="-12"/>
			<point x="502" y="82"/>
			<point x="502" y="244" type="curve" smooth="yes"/>
			<point x="502" y="407"/>
			<point x="394" y="501"/>
			<point x="273" y="501" type="curve" smooth="yes"/>
			<point x="152" y="501"/>
			<point x="43" y="407"/>
			<point x="43" y="244" type="curve" smooth="yes"/>
			<point x="43" y="82"/>
			<point x="152" y="-12"/>
		</contour>
		<contour>
			<point x="273" y="69" type="curve" smooth="yes"/>
			<point x="195" y="69"/>
			<point x="145" y="139"/>
			<point x="145" y="244" type="curve" smooth="yes"/>
			<point x="145" y="349"/>
			<point x="195" y="419"/>
			<point x="273" y="419" type="curve" smooth="yes"/>
			<point x="351" y="419"/>
			<point x="400" y="349"/>
			<point x="400" y="244" type="curve" smooth="yes"/>
			<point x="400" y="139"/>
			<point x="351" y="69"/>
		</contour>
	</outline>
	<anchor name="aboveLC" x="273" y="512"/>
	<anchor name="aboverightLC" x="508" y="512"/>
	<anchor name="belowLC" x="273" y="-22"/>
	<anchor name="hornLC" x="366" y="491"/>
	<anchor name="ogonekLC" x="273" y="0"/>
</glyph>
<glyph name="p" format="2">
	<unicode hex="0070"/>
	<advance width="559"/>
	<outline>
		<contour>
			<point x="78" y="-200" type="line"/>
			<point x="177" y="-200" type="line"/>
			<point x="177" y="-40" type="line"/>
			<point x="174" y="43" type="line"/>
			<point x="216" y="8"/>
			<point x="260" y="-12"/>
			<point x="304" y="-12" type="curve" smooth="yes"/>
			<point x="414" y="-12"/>
			<point x="514" y="85"/>
			<point x="514" y="252" type="curve" smooth="yes"/>
			<point x="514" y="403"/>
			<point x="445" y="501"/>
			<point x="321" y="501" type="curve" smooth="yes"/>
			<point x="266" y="501"/>
			<point x="212" y="471"/>
			<point x="170" y="434" type="curve"/>
			<point x="167" y="434" type="line"/>
			<point x="159" y="489" type="line"/>
			<point x="78" y="489" type="line"/>
		</contour>
		<contour>
			<point x="285" y="70" type="curve" smooth="yes"/>
			<point x="255" y="70"/>
			<point x="216" y="83"/>
			<point x="177" y="116" type="curve"/>
			<point x="177" y="358" type="line"/>
			<point x="219" y="398"/>
			<point x="257" y="418"/>
			<point x="295" y="418" type="curve" smooth="yes"/>
			<point x="378" y="418"/>
			<point x="412" y="353"/>
			<point x="412" y="251" type="curve" smooth="yes"/>
			<point x="412" y="135"/>
			<point x="358" y="70"/>
		</contour>
	</outline>
	<anchor name="aboveLC" x="299" y="512"/>
	<anchor name="aboverightLC" x="474" y="512"/>
	<anchor name="belowLC" x="130" y="-203"/>
	<anchor name="center" x="140" y="-121"/>
</glyph>
<glyph name="q" format="2">
	<unicode hex="0071"/>
	<advance width="559"/>
	<outline>
		<contour>
			<point x="383" y="-200" type="line"/>
			<point x="482" y="-200" type="line"/>
			<point x="482" y="489" type="line"/>
			<point x="403" y="489" type="line"/>
			<point x="395" y="442" type="line"/>
			<point x="392" y="442" type="line"/>
			<point x="349" y="481"/>
			<point x="310" y="501"/>
			<point x="254" y="501" type="curve" smooth="yes"/>
			<point x="145" y="501"/>
			<point x="45" y="403"/>
			<point x="45" y="244" type="curve" smooth="yes"/>
			<point x="45" y="82"/>
			<point x="124" y="-12"/>
			<point x="246" y="-12" type="curve" smooth="yes"/>
			<point x="300" y="-12"/>
			<point x="350" y="16"/>
			<point x="387" y="52" type="curve"/>
			<point x="383" y="-32" type="line"/>
		</contour>
		<contour>
			<point x="270" y="70" type="curve" smooth="yes"/>
			<point x="192" y="70"/>
			<point x="147" y="133"/>
			<point x="147" y="245" type="curve" smooth="yes"/>
			<point x="147" y="351"/>
			<point x="204" y="418"/>
			<point x="274" y="418" type="curve" smooth="yes"/>
			<point x="310" y="418"/>
			<point x="345" y="406"/>
			<point x="383" y="373" type="curve"/>
			<point x="383" y="131" type="line"/>
			<point x="346" y="90"/>
			<point x="311" y="70"/>
		</contour>
	</outline>
	<anchor name="aboveLC" x="282" y="512"/>
	<anchor name="belowLC" x="425" y="-203"/>
</glyph>
<glyph name="r" format="2">
	<unicode hex="0072"/>
	<advance width="360"/>
	<outline>
		<contour>
			<point x="78" y="0" type="line"/>
			<point x="177" y="0" type="line"/>
			<point x="177" y="306" type="line"/>
			<point x="208" y="384"/>
			<point x="256" y="412"/>
			<point x="296" y="412" type="curve" smooth="yes"/>
			<point x="316" y="412"/>
			<point x="327" y="410"/>
			<point x="342" y="406" type="curve"/>
			<point x="362" y="491" type="line"/>
			<point x="347" y="498"/>
			<point x="332" y="501"/>
			<point x="309" y="501" type="curve" smooth="yes"/>
			<point x="254" y="501"/>
			<point x="203" y="463"/>
			<point x="170" y="401" type="curve"/>
			<point x="167" y="401" type="line"/>
			<point x="159" y="489" type="line"/>
			<point x="78" y="489" type="line"/>
		</contour>
	</outline>
	<anchor name="aboveLC" x="229" y="512"/>
	<anchor name="belowLC" x="125" y="-22"/>
	<anchor name="center" x="140" y="215"/>
</glyph>
<glyph name="s" format="2">
	<unicode hex="0073"/>
	<advance width="425"/>
	<outline>
		<contour>
			<point x="210" y="-12" type="curve" smooth="yes"/>
			<point x="329" y="-12"/>
			<point x="394" y="55"/>
			<point x="394" y="137" type="curve" smooth="yes"/>
			<point x="394" y="224"/>
			<point x="324" y="259"/>
			<point x="248" y="285" type="curve" smooth="yes"/>
			<point x="187" y="306"/>
			<point x="147" y="323"/>
			<point x="147" y="363" type="curve" smooth="yes"/>
			<point x="147" y="396"/>
			<point x="173" y="425"/>
			<point x="228" y="425" type="curve" smooth="yes"/>
			<point x="270" y="425"/>
			<point x="305" y="412"/>
			<point x="340" y="387" type="curve"/>
			<point x="384" y="444" type="line"/>
			<point x="345" y="477"/>
			<point x="290" y="501"/>
			<point x="227" y="501" type="curve" smooth="yes"/>
			<point x="119" y="501"/>
			<point x="53" y="440"/>
			<point x="53" y="358" type="curve" smooth="yes"/>
			<point x="53" y="279"/>
			<point x="121" y="241"/>
			<point x="194" y="215" type="curve" smooth="yes"/>
			<point x="248" y="195"/>
			<point x="300" y="176"/>
			<point x="300" y="131" type="curve" smooth="yes"/>
			<point x="300" y="93"/>
			<point x="272" y="64"/>
			<point x="213" y="64" type="curve" smooth="yes"/>
			<point x="157" y="64"/>
			<point x="113" y="81"/>
			<point x="70" y="116" type="curve"/>
			<point x="26" y="59" type="line"/>
			<point x="72" y="14"/>
			<point x="140" y="-12"/>
		</contour>
	</outline>
	<anchor name="aboveLC" x="219" y="512"/>
	<anchor name="baseLC" x="215" y="0"/>
	<anchor name="belowLC" x="215" y="-22"/>
	<anchor name="center" x="220" y="240"/>
</glyph>
<glyph name="t" format="2">
	<unicode hex="0074"/>
	<advance width="350"/>
	<outline>
		<contour>
			<point x="240" y="-10" type="curve" smooth="yes"/>
			<point x="277" y="-10"/>
			<point x="311" y="-1"/>
			<point x="337" y="11" type="curve"/>
			<point x="318" y="81" type="line"/>
			<point x="300" y="73"/>
			<point x="282" y="70"/>
			<point x="265" y="70" type="curve" smooth="yes"/>
			<point x="213" y="70"/>
			<point x="192" y="101"/>
			<point x="192" y="160" type="curve" smooth="yes"/>
			<point x="192" y="409" type="line"/>
			<point x="321" y="409" type="line"/>
			<point x="321" y="489" type="line"/>
			<point x="192" y="489" type="line"/>
			<point x="192" y="644" type="line"/>
			<point x="110" y="644" type="line"/>
			<point x="98" y="489" type="line"/>
			<point x="22" y="484" type="line"/>
			<point x="22" y="409" type="line"/>
			<point x="93" y="409" type="line"/>
			<point x="93" y="160" type="line" smooth="yes"/>
			<point x="93" y="59"/>
			<point x="132" y="-10"/>
		</contour>
	</outline>
	<anchor name="aboveLC" x="154" y="647"/>
	<anchor name="aboverightLC" x="318" y="512"/>
	<anchor name="baseLC" x="219" y="0"/>
	<anchor name="belowLC" x="219" y="-22"/>
	<anchor name="center" x="159" y="245"/>
</glyph>
<glyph name="u" format="2">
	<unicode hex="0075"/>
	<advance width="550"/>
	<outline>
		<contour>
			<point x="221" y="-12" type="curve" smooth="yes"/>
			<point x="288" y="-12"/>
			<point x="336" y="22"/>
			<point x="380" y="74" type="curve"/>
			<point x="383" y="74" type="line"/>
			<point x="391" y="0" type="line"/>
			<point x="473" y="0" type="line"/>
			<point x="473" y="489" type="line"/>
			<point x="374" y="489" type="line"/>
			<point x="374" y="148" type="line"/>
			<point x="332" y="96"/>
			<point x="301" y="73"/>
			<point x="254" y="73" type="curve" smooth="yes"/>
			<point x="196" y="73"/>
			<point x="170" y="108"/>
			<point x="170" y="193" type="curve" smooth="yes"/>
			<point x="170" y="489" type="line"/>
			<point x="71" y="489" type="line"/>
			<point x="71" y="181" type="line" smooth="yes"/>
			<point x="71" y="57"/>
			<point x="117" y="-12"/>
		</contour>
	</outline>
	<anchor name="aboveLC" x="275" y="512"/>
	<anchor name="baseLC" x="255" y="0"/>
	<anchor name="belowLC" x="275" y="-22"/>
	<anchor name="hornLC" x="416" y="501"/>
	<anchor name="ogonekLC" x="397" y="0"/>
</glyph>
<glyph name="v" format="2">
	<unicode hex="0076"/>
	<advance width="481"/>
	<outline>
		<contour>
			<point x="185" y="0" type="line"/>
			<point x="300" y="0" type="line"/>
			<point x="469" y="489" type="line"/>
			<point x="373" y="489" type="line"/>
			<point x="288" y="223" type="line" smooth="yes"/>
			<point x="274" y="175"/>
			<point x="259" y="126"/>
			<point x="245" y="78" type="curve"/>
			<point x="241" y="78" type="line"/>
			<point x="227" y="126"/>
			<point x="212" y="175"/>
			<point x="198" y="223" type="curve" smooth="yes"/>
			<point x="113" y="489" type="line"/>
			<point x="12" y="489" type="line"/>
		</contour>
	</outline>
	<anchor name="aboveLC" x="242" y="512"/>
	<anchor name="belowLC" x="242" y="-22"/>
</glyph>
<glyph name="w" format="2">
	<unicode hex="0077"/>
	<advance width="734"/>
	<outline>
		<contour>
			<point x="157" y="0" type="line"/>
			<point x="279" y="0" type="line"/>
			<point x="336" y="244" type="line"/>
			<point x="347" y="288"/>
			<point x="356" y="329"/>
			<point x="365" y="390" type="curve"/>
			<point x="369" y="390" type="line"/>
			<point x="378" y="329"/>
			<point x="386" y="288"/>
			<point x="397" y="244" type="curve"/>
			<point x="455" y="0" type="line"/>
			<point x="582" y="0" type="line"/>
			<point x="710" y="489" type="line"/>
			<point x="614" y="489" type="line"/>
			<point x="550" y="221" type="line"/>
			<point x="540" y="177"/>
			<point x="533" y="134"/>
			<point x="523" y="79" type="curve"/>
			<point x="519" y="79" type="line"/>
			<point x="510" y="134"/>
			<point x="500" y="177"/>
			<point x="489" y="221" type="curve"/>
			<point x="421" y="489" type="line"/>
			<point x="316" y="489" type="line"/>
			<point x="250" y="221" type="line"/>
			<point x="240" y="177"/>
			<point x="231" y="134"/>
			<point x="221" y="79" type="curve"/>
			<point x="217" y="79" type="line"/>
			<point x="210" y="134"/>
			<point x="201" y="177"/>
			<point x="190" y="221" type="curve"/>
			<point x="126" y="489" type="line"/>
			<point x="24" y="489" type="line"/>
		</contour>
	</outline>
	<anchor name="aboveLC" x="367" y="512"/>
	<anchor name="aboverightLC" x="674" y="512"/>
	<anchor name="belowLC" x="367" y="-22"/>
</glyph>
<glyph name="z" format="2">
	<unicode hex="007A"/>
	<advance width="434"/>
	<outline>
		<contour>
			<point x="33" y="0" type="line"/>
			<point x="409" y="0" type="line"/>
			<point x="409" y="80" type="line"/>
			<point x="157" y="80" type="line"/>
			<point x="401" y="436" type="line"/>
			<point x="401" y="489" type="line"/>
			<point x="60" y="489" type="line"/>
			<point x="60" y="409" type="line"/>
			<point x="276" y="409" type="line"/>
			<point x="33" y="53" type="line"/>
		</contour>
	</outline>
	<anchor name="aboveLC" x="235" y="512"/>
	<anchor name="belowLC" x="229" y="-22"/>
	<anchor name="center" x="219" y="245"/>
</glyph>
<glyph name="braceleft" format="2">
	<unicode hex="007B"/>
	<advance width="314"/>
	<outline>
		<contour>
			<point x="230" y="-152" type="curve" smooth="yes"/>
			<point x="279" y="-152" type="line"/>
			<point x="279" y="-97" type="line"/>
			<point x="255" y="-97" type="line" smooth="yes"/>
			<point x="204" y="-97"/>
			<point x="191" y="-74"/>
			<point x="191" y="-11" type="curve" smooth="yes"/>
			<point x="191" y="47"/>
			<point x="196" y="99"/>
			<point x="196" y="165" type="curve" smooth="yes"/>
			<point x="196" y="232"/>
			<point x="177" y="264"/>
			<point x="132" y="276" type="curve"/>
			<point x="132" y="280" type="line"/>
			<point x="177" y="292"/>
			<point x="196" y="323"/>
			<point x="196" y="391" type="curve" smooth="yes"/>
			<point x="196" y="457"/>
			<point x="191" y="509"/>
			<point x="191" y="567" type="curve" smooth="yes"/>
			<point x="191" y="630"/>
			<point x="204" y="653"/>
			<point x="255" y="653" type="curve" smooth="yes"/>
			<point x="279" y="653" type="line"/>
			<point x="279" y="708" type="line"/>
			<point x="230" y="708" type="line" smooth="yes"/>
			<point x="148" y="708"/>
			<point x="110" y="677"/>
			<point x="110" y="572" type="curve" smooth="yes"/>
			<point x="110" y="500"/>
			<point x="119" y="452"/>
			<point x="119" y="385" type="curve" smooth="yes"/>
			<point x="119" y="347"/>
			<point x="100" y="309"/>
			<point x="33" y="308" type="curve"/>
			<point x="33" y="248" type="line"/>
			<point x="100" y="247"/>
			<point x="119" y="209"/>
			<point x="119" y="170" type="curve" smooth="yes"/>
			<point x="119" y="104"/>
			<point x="110" y="56"/>
			<point x="110" y="-16" type="curve" smooth="yes"/>
			<point x="110" y="-121"/>
			<point x="148" y="-152"/>
		</contour>
	</outline>
</glyph>
<glyph name="asciitilde" format="2">
	<unicode hex="007E"/>
	<advance width="505"/>
	<outline>
		<contour>
			<point x="340" y="253" type="curve" smooth="yes"/>
			<point x="384" y="253"/>
			<point x="431" y="279"/>
			<point x="471" y="345" type="curve"/>
			<point x="417" y="385" type="line"/>
			<point x="395" y="344"/>
			<point x="370" y="325"/>
			<point x="342" y="325" type="curve" smooth="yes"/>
			<point x="286" y="325"/>
			<point x="245" y="407"/>
			<point x="165" y="407" type="curve" smooth="yes"/>
			<point x="121" y="407"/>
			<point x="74" y="381"/>
			<point x="34" y="314" type="curve"/>
			<point x="88" y="275" type="line"/>
			<point x="110" y="316"/>
			<point x="135" y="335"/>
			<point x="163" y="335" type="curve" smooth="yes"/>
			<point x="219" y="335"/>
			<point x="260" y="253"/>
		</contour>
	</outline>
</glyph>
<glyph name="exclamdown" format="2">
	<unicode hex="00A1"/>
	<advance width="302"/>
	<outline>
		<contour>
			<point x="101" y="-181" type="line"/>
			<point x="201" y="-181" type="line"/>
			<point x="198" y="-78" type="line"/>
			<point x="185" y="282" type="line"/>
			<point x="118" y="282" type="line"/>
			<point x="104" y="-78" type="line"/>
		</contour>
		<contour>
			<point x="151" y="360" type="curve" smooth="yes"/>
			<point x="189" y="360"/>
			<point x="218" y="389"/>
			<point x="218" y="431" type="curve" smooth="yes"/>
			<point x="218" y="471"/>
			<point x="189" y="501"/>
			<point x="151" y="501" type="curve" smooth="yes"/>
			<point x="114" y="501"/>
			<point x="84" y="471"/>
			<point x="84" y="431" type="curve" smooth="yes"/>
			<point x="84" y="389"/>
			<point x="114" y="360"/>
		</contour>
	</outline>
</glyph>
<glyph name="cent" format="2">
	<unicode hex="00A2"/>
	<advance width="505"/>
	<outline>
		<contour>
			<point x="303" y="65" type="curve" smooth="yes"/>
			<point x="360" y="65"/>
			<point x="418" y="88"/>
			<point x="463" y="128" type="curve"/>
			<point x="421" y="190" type="line"/>
			<point x="393" y="167"/>
			<point x="356" y="146"/>
			<point x="313" y="146" type="curve" smooth="yes"/>
			<point x="217" y="146"/>
			<point x="158" y="210"/>
			<point x="158" y="309" type="curve" smooth="yes"/>
			<point x="158" y="408"/>
			<point x="219" y="472"/>
			<point x="316" y="472" type="curve" smooth="yes"/>
			<point x="350" y="472"/>
			<point x="380" y="458"/>
			<point x="407" y="434" type="curve"/>
			<point x="454" y="496" type="line"/>
			<point x="421" y="527"/>
			<point x="374" y="554"/>
			<point x="311" y="554" type="curve" smooth="yes"/>
			<point x="174" y="554"/>
			<point x="61" y="466"/>
			<point x="61" y="309" type="curve" smooth="yes"/>
			<point x="61" y="153"/>
			<point x="161" y="65"/>
		</contour>
		<contour>
			<point x="266" y="-35" type="line"/>
			<point x="325" y="-35" type="line"/>
			<point x="325" y="654" type="line"/>
			<point x="266" y="654" type="line"/>
		</contour>
	</outline>
</glyph>
<glyph name="sterling" format="2">
	<unicode hex="00A3"/>
	<advance width="505"/>
	<outline>
		<contour>
			<point x="52" y="0" type="line"/>
			<point x="465" y="0" type="line"/>
			<point x="465" y="84" type="line"/>
			<point x="189" y="84" type="line"/>
			<point x="189" y="88" type="line"/>
			<point x="227" y="129"/>
			<point x="246" y="168"/>
			<point x="246" y="233" type="curve" smooth="yes"/>
			<point x="246" y="317"/>
			<point x="207" y="383"/>
			<point x="207" y="456" type="curve" smooth="yes"/>
			<point x="207" y="522"/>
			<point x="245" y="568"/>
			<point x="313" y="568" type="curve" smooth="yes"/>
			<point x="356" y="568"/>
			<point x="385" y="551"/>
			<point x="411" y="519" type="curve"/>
			<point x="464" y="569" type="line"/>
			<point x="430" y="616"/>
			<point x="378" y="649"/>
			<point x="303" y="649" type="curve" smooth="yes"/>
			<point x="190" y="649"/>
			<point x="111" y="576"/>
			<point x="111" y="460" type="curve" smooth="yes"/>
			<point x="111" y="386"/>
			<point x="158" y="311"/>
			<point x="158" y="234" type="curve" smooth="yes"/>
			<point x="158" y="159"/>
			<point x="118" y="95"/>
			<point x="52" y="61" type="curve"/>
		</contour>
		<contour>
			<point x="53" y="281" type="line"/>
			<point x="384" y="281" type="line"/>
			<point x="384" y="346" type="line"/>
			<point x="120" y="346" type="line"/>
			<point x="53" y="342" type="line"/>
		</contour>
	</outline>
</glyph>
<glyph name="currency" format="2">
	<unicode hex="00A4"/>
	<advance width="505"/>
	<outline>
		<contour>
			<point x="76" y="98" type="line"/>
			<point x="144" y="167" type="line"/>
			<point x="176" y="145"/>
			<point x="213" y="133"/>
			<point x="253" y="133" type="curve" smooth="yes"/>
			<point x="291" y="133"/>
			<point x="329" y="145"/>
			<point x="360" y="167" type="curve"/>
			<point x="429" y="98" type="line"/>
			<point x="480" y="150" type="line"/>
			<point x="417" y="214" type="line"/>
			<point x="439" y="245"/>
			<point x="453" y="284"/>
			<point x="453" y="329" type="curve" smooth="yes"/>
			<point x="453" y="375"/>
			<point x="439" y="414"/>
			<point x="417" y="444" type="curve"/>
			<point x="480" y="509" type="line"/>
			<point x="429" y="561" type="line"/>
			<point x="361" y="492" type="line"/>
			<point x="329" y="514"/>
			<point x="291" y="526"/>
			<point x="253" y="526" type="curve" smooth="yes"/>
			<point x="213" y="526"/>
			<point x="175" y="514"/>
			<point x="144" y="492" type="curve"/>
			<point x="76" y="561" type="line"/>
			<point x="25" y="509" type="line"/>
			<point x="87" y="444" type="line"/>
			<point x="65" y="414"/>
			<point x="52" y="375"/>
			<point x="52" y="329" type="curve" smooth="yes"/>
			<point x="52" y="284"/>
			<point x="65" y="245"/>
			<point x="88" y="214" type="curve"/>
			<point x="25" y="150" type="line"/>
		</contour>
		<contour>
			<point x="253" y="205" type="curve" smooth="yes"/>
			<point x="192" y="205"/>
			<point x="143" y="254"/>
			<point x="143" y="329" type="curve" smooth="yes"/>
			<point x="143" y="404"/>
			<point x="192" y="454"/>
			<point x="253" y="454" type="curve" smooth="yes"/>
			<point x="313" y="454"/>
			<point x="363" y="404"/>
			<point x="363" y="329" type="curve" smooth="yes"/>
			<point x="363" y="254"/>
			<point x="313" y="205"/>
		</contour>
	</outline>
</glyph>
<glyph name="section" format="2">
	<unicode hex="00A7"/>
	<advance width="505"/>
	<outline>
		<contour>
			<point x="237" y="-69" type="curve" smooth="yes"/>
			<point x="339" y="-69"/>
			<point x="406" y="-9"/>
			<point x="406" y="73" type="curve" smooth="yes"/>
			<point x="406" y="244"/>
			<point x="129" y="218"/>
			<point x="129" y="345" type="curve" smooth="yes"/>
			<point x="129" y="388"/>
			<point x="156" y="414"/>
			<point x="202" y="434" type="curve"/>
			<point x="154" y="480" type="line"/>
			<point x="90" y="454"/>
			<point x="43" y="404"/>
			<point x="43" y="339" type="curve" smooth="yes"/>
			<point x="43" y="153"/>
			<point x="316" y="173"/>
			<point x="316" y="68" type="curve" smooth="yes"/>
			<point x="316" y="34"/>
			<point x="287" y="6"/>
			<point x="237" y="6" type="curve" smooth="yes"/>
			<point x="187" y="6"/>
			<point x="150" y="25"/>
			<point x="117" y="58" type="curve"/>
			<point x="59" y="5" type="line"/>
			<point x="100" y="-42"/>
			<point x="166" y="-69"/>
		</contour>
		<contour>
			<point x="353" y="140" type="line"/>
			<point x="419" y="172"/>
			<point x="462" y="212"/>
			<point x="462" y="284" type="curve" smooth="yes"/>
			<point x="462" y="467"/>
			<point x="187" y="455"/>
			<point x="187" y="553" type="curve" smooth="yes"/>
			<point x="187" y="585"/>
			<point x="208" y="610"/>
			<point x="259" y="610" type="curve" smooth="yes"/>
			<point x="301" y="610"/>
			<point x="337" y="590"/>
			<point x="369" y="563" type="curve"/>
			<point x="416" y="626" type="line"/>
			<point x="377" y="658"/>
			<point x="321" y="686"/>
			<point x="255" y="686" type="curve" smooth="yes"/>
			<point x="151" y="686"/>
			<point x="96" y="624"/>
			<point x="96" y="550" type="curve" smooth="yes"/>
			<point x="96" y="381"/>
			<point x="376" y="407"/>
			<point x="376" y="276" type="curve" smooth="yes"/>
			<point x="376" y="229"/>
			<point x="349" y="207"/>
			<point x="298" y="187" type="curve"/>
		</contour>
	</outline>
</glyph>
<glyph name="copyright" format="2">
	<unicode hex="00A9"/>
	<advance width="746"/>
	<outline>
		<contour>
			<point x="373" y="-10" type="curve" smooth="yes"/>
			<point x="548" y="-10"/>
			<point x="698" y="119"/>
			<point x="698" y="324" type="curve" smooth="yes"/>
			<point x="698" y="527"/>
			<point x="548" y="654"/>
			<point x="373" y="654" type="curve" smooth="yes"/>
			<point x="198" y="654"/>
			<point x="48" y="528"/>
			<point x="48" y="324" type="curve" smooth="yes"/>
			<point x="48" y="119"/>
			<point x="198" y="-10"/>
		</contour>
		<contour>
			<point x="373" y="36" type="curve" smooth="yes"/>
			<point x="223" y="36"/>
			<point x="100" y="152"/>
			<point x="100" y="324" type="curve" smooth="yes"/>
			<point x="100" y="495"/>
			<point x="223" y="608"/>
			<point x="373" y="608" type="curve" smooth="yes"/>
			<point x="523" y="608"/>
			<point x="645" y="495"/>
			<point x="645" y="324" type="curve" smooth="yes"/>
			<point x="645" y="152"/>
			<point x="523" y="36"/>
		</contour>
		<contour>
			<point x="382" y="129" type="curve" smooth="yes"/>
			<point x="440" y="129"/>
			<point x="479" y="151"/>
			<point x="515" y="185" type="curve"/>
			<point x="479" y="232" type="line"/>
			<point x="451" y="207"/>
			<point x="428" y="192"/>
			<point x="385" y="192" type="curve" smooth="yes"/>
			<point x="317" y="192"/>
			<point x="273" y="241"/>
			<point x="273" y="321" type="curve" smooth="yes"/>
			<point x="273" y="398"/>
			<point x="319" y="453"/>
			<point x="389" y="453" type="curve" smooth="yes"/>
			<point x="422" y="453"/>
			<point x="448" y="439"/>
			<point x="471" y="414" type="curve"/>
			<point x="512" y="457" type="line"/>
			<point x="482" y="490"/>
			<point x="442" y="516"/>
			<point x="384" y="516" type="curve" smooth="yes"/>
			<point x="286" y="516"/>
			<point x="197" y="441"/>
			<point x="197" y="321" type="curve" smooth="yes"/>
			<point x="197" y="201"/>
			<point x="277" y="129"/>
		</contour>
	</outline>
</glyph>
<glyph name="logicalnot" format="2">
	<unicode hex="00AC"/>
	<advance width="505"/>
	<outline>
		<contour>
			<point x="394" y="101" type="line"/>
			<point x="471" y="101" type="line"/>
			<point x="471" y="366" type="line"/>
			<point x="34" y="366" type="line"/>
			<point x="34" y="294" type="line"/>
			<point x="394" y="294" type="line"/>
		</contour>
	</outline>
</glyph>
<glyph name="registered" format="2">
	<unicode hex="00AE"/>
	<advance width="433"/>
	<outline>
		<contour>
			<point x="216" y="317" type="curve" smooth="yes"/>
			<point x="321" y="317"/>
			<point x="407" y="398"/>
			<point x="407" y="515" type="curve" smooth="yes"/>
			<point x="407" y="632"/>
			<point x="321" y="714"/>
			<point x="216" y="714" type="curve" smooth="yes"/>
			<point x="112" y="714"/>
			<point x="26" y="632"/>
			<point x="26" y="515" type="curve" smooth="yes"/>
			<point x="26" y="398"/>
			<point x="112" y="317"/>
		</contour>
		<contour>
			<point x="216" y="357" type="curve" smooth="yes"/>
			<point x="132" y="357"/>
			<point x="69" y="421"/>
			<point x="69" y="515" type="curve" smooth="yes"/>
			<point x="69" y="609"/>
			<point x="132" y="674"/>
			<point x="216" y="674" type="curve" smooth="yes"/>
			<point x="300" y="674"/>
			<point x="364" y="609"/>
			<point x="364" y="515" type="curve" smooth="yes"/>
			<point x="364" y="421"/>
			<point x="300" y="357"/>
		</contour>
		<contour>
			<point x="142" y="417" type="line"/>
			<point x="187" y="417" type="line"/>
			<point x="187" y="484" type="line"/>
			<point x="225" y="484" type="line"/>
			<point x="259" y="417" type="line"/>
			<point x="308" y="417" type="line"/>
			<point x="263" y="498" type="line"/>
			<point x="286" y="507"/>
			<point x="300" y="529"/>
			<point x="300" y="553" type="curve" smooth="yes"/>
			<point x="300" y="600"/>
			<point x="264" y="618"/>
			<point x="221" y="618" type="curve" smooth="yes"/>
			<point x="142" y="618" type="line"/>
		</contour>
		<contour>
			<point x="187" y="519" type="line"/>
			<point x="187" y="582" type="line"/>
			<point x="213" y="582" type="line" smooth="yes"/>
			<point x="241" y="582"/>
			<point x="252" y="569"/>
			<point x="252" y="550" type="curve" smooth="yes"/>
			<point x="252" y="530"/>
			<point x="237" y="519"/>
			<point x="211" y="519" type="curve" smooth="yes"/>
		</contour>
	</outline>
</glyph>
<glyph name="degree" format="2">
	<unicode hex="00B0"/>
	<advance width="340"/>
	<outline>
		<contour>
			<point x="170" y="421" type="curve" smooth="yes"/>
			<point x="241" y="421"/>
			<point x="301" y="474"/>
			<point x="301" y="552" type="curve" smooth="yes"/>
			<point x="301" y="632"/>
			<point x="241" y="685"/>
			<point x="170" y="685" type="curve" smooth="yes"/>
			<point x="100" y="685"/>
			<point x="40" y="632"/>
			<point x="40" y="552" type="curve" smooth="yes"/>
			<point x="40" y="474"/>
			<point x="100" y="421"/>
		</contour>
		<contour>
			<point x="170" y="473" type="curve" smooth="yes"/>
			<point x="127" y="473"/>
			<point x="97" y="506"/>
			<point x="97" y="552" type="curve" smooth="yes"/>
			<point x="97" y="600"/>
			<point x="127" y="633"/>
			<point x="170" y="633" type="curve" smooth="yes"/>
			<point x="214" y="633"/>
			<point x="244" y="600"/>
			<point x="244" y="552" type="curve" smooth="yes"/>
			<point x="244" y="506"/>
			<point x="214" y="473"/>
		</contour>
	</outline>
</glyph>
<glyph name="paragraph" format="2">
	<unicode hex="00B6"/>
	<advance width="580"/>
	<outline>
		<contour>
			<point x="384" y="-80" type="line"/>
			<point x="484" y="-80" type="line"/>
			<point x="484" y="655" type="line"/>
			<point x="384" y="655" type="line"/>
		</contour>
		<contour>
			<point x="294" y="219" type="curve" smooth="yes"/>
			<point x="329" y="219" type="line"/>
			<point x="329" y="655" type="line"/>
			<point x="285" y="655" type="line" smooth="yes"/>
			<point x="147" y="655"/>
			<point x="40" y="599"/>
			<point x="40" y="439" type="curve" smooth="yes"/>
			<point x="40" y="288"/>
			<point x="150" y="219"/>
		</contour>
	</outline>
</glyph>
<glyph name="questiondown" format="2">
	<unicode hex="00BF"/>
	<advance width="435"/>
	<outline>
		<contour>
			<point x="219" y="-193" type="curve" smooth="yes"/>
			<point x="293" y="-193"/>
			<point x="352" y="-157"/>
			<point x="396" y="-109" type="curve"/>
			<point x="340" y="-58" type="line"/>
			<point x="310" y="-91"/>
			<point x="273" y="-112"/>
			<point x="231" y="-112" type="curve" smooth="yes"/>
			<point x="173" y="-112"/>
			<point x="142" y="-74"/>
			<point x="142" y="-24" type="curve" smooth="yes"/>
			<point x="142" y="74"/>
			<point x="298" y="131"/>
			<point x="277" y="282" type="curve"/>
			<point x="189" y="282" type="line"/>
			<point x="205" y="148"/>
			<point x="46" y="99"/>
			<point x="46" y="-31" type="curve" smooth="yes"/>
			<point x="46" y="-134"/>
			<point x="117" y="-193"/>
		</contour>
		<contour>
			<point x="231" y="360" type="curve" smooth="yes"/>
			<point x="269" y="360"/>
			<point x="299" y="389"/>
			<point x="299" y="431" type="curve" smooth="yes"/>
			<point x="299" y="471"/>
			<point x="269" y="501"/>
			<point x="231" y="501" type="curve" smooth="yes"/>
			<point x="194" y="501"/>
			<point x="164" y="471"/>
			<point x="164" y="431" type="curve" smooth="yes"/>
			<point x="164" y="389"/>
			<point x="194" y="360"/>
		</contour>
	</outline>
</glyph>
<glyph name="Oslash" format="2">
	<unicode hex="00D8"/>
	<advance width="669"/>
	<outline>
		<contour>
			<point x="104" y="-36" type="line"/>
			<point x="633" y="643" type="line"/>
			<point x="572" y="691" type="line"/>
			<point x="44" y="12" type="line"/>
		</contour>
		<component base="O" xOffset="2"/>
	</outline>
	<anchor name="aboveUC" x="333" y="677"/>
	<anchor name="belowLC" x="333" y="-22"/>
</glyph>
<glyph name="Thorn" format="2">
	<unicode hex="00DE"/>
	<advance width="592"/>
	<outline>
		<contour>
			<point x="86" y="0" type="line"/>
			<point x="186" y="0" type="line"/>
			<point x="186" y="143" type="line"/>
			<point x="297" y="143" type="line" smooth="yes"/>
			<point x="439" y="143"/>
			<point x="543" y="208"/>
			<point x="543" y="350" type="curve" smooth="yes"/>
			<point x="543" y="498"/>
			<point x="441" y="548"/>
			<point x="297" y="548" type="curve" smooth="yes"/>
			<point x="186" y="548" type="line"/>
			<point x="186" y="655" type="line"/>
			<point x="86" y="655" type="line"/>
		</contour>
		<contour>
			<point x="186" y="223" type="line"/>
			<point x="186" y="467" type="line"/>
			<point x="287" y="467" type="line" smooth="yes"/>
			<point x="391" y="467"/>
			<point x="444" y="438"/>
			<point x="444" y="350" type="curve" smooth="yes"/>
			<point x="444" y="263"/>
			<point x="393" y="223"/>
			<point x="287" y="223" type="curve" smooth="yes"/>
		</contour>
	</outline>
</glyph>
<glyph name="germandbls" format="2">
	<unicode hex="00DF"/>
	<advance width="590"/>
	<outline>
		<contour>
			<point x="396" y="-12" type="curve" smooth="yes"/>
			<point x="500" y="-12"/>
			<point x="562" y="55"/>
			<point x="562" y="141" type="curve" smooth="yes"/>
			<point x="562" y="301"/>
			<point x="383" y="283"/>
			<point x="383" y="372" type="curve" smooth="yes"/>
			<point x="383" y="437"/>
			<point x="478" y="469"/>
			<point x="478" y="568" type="curve" smooth="yes"/>
			<point x="478" y="649"/>
			<point x="410" y="719"/>
			<point x="294" y="719" type="curve" smooth="yes"/>
			<point x="156" y="719"/>
			<point x="78" y="633"/>
			<point x="78" y="506" type="curve" smooth="yes"/>
			<point x="78" y="0" type="line"/>
			<point x="176" y="0" type="line"/>
			<point x="176" y="490" type="line" smooth="yes"/>
			<point x="176" y="589"/>
			<point x="222" y="641"/>
			<point x="293" y="641" type="curve" smooth="yes"/>
			<point x="348" y="641"/>
			<point x="382" y="606"/>
			<point x="382" y="557" type="curve" smooth="yes"/>
			<point x="382" y="476"/>
			<point x="290" y="447"/>
			<point x="290" y="360" type="curve" smooth="yes"/>
			<point x="290" y="223"/>
			<point x="470" y="241"/>
			<point x="470" y="136" type="curve" smooth="yes"/>
			<point x="470" y="97"/>
			<point x="443" y="64"/>
			<point x="393" y="64" type="curve" smooth="yes"/>
			<point x="357" y="64"/>
			<point x="323" y="73"/>
			<point x="289" y="99" type="curve"/>
			<point x="253" y="38" type="line"/>
			<point x="296" y="2"/>
			<point x="343" y="-12"/>
		</contour>
	</outline>
</glyph>
<glyph name="eth" format="2">
	<unicode hex="00F0"/>
	<advance width="548"/>
	<outline>
		<contour>
			<point x="270" y="-12" type="curve" smooth="yes"/>
			<point x="405" y="-12"/>
			<point x="492" y="99"/>
			<point x="492" y="260" type="curve" smooth="yes"/>
			<point x="492" y="528"/>
			<point x="327" y="656"/>
			<point x="144" y="734" type="curve"/>
			<point x="101" y="672" type="line"/>
			<point x="285" y="591"/>
			<point x="397" y="483"/>
			<point x="397" y="255" type="curve" smooth="yes"/>
			<point x="397" y="141"/>
			<point x="354" y="69"/>
			<point x="272" y="69" type="curve" smooth="yes"/>
			<point x="202" y="69"/>
			<point x="143" y="129"/>
			<point x="143" y="224" type="curve" smooth="yes"/>
			<point x="143" y="313"/>
			<point x="191" y="373"/>
			<point x="272" y="373" type="curve" smooth="yes"/>
			<point x="316" y="373"/>
			<point x="359" y="358"/>
			<point x="401" y="300" type="curve"/>
			<point x="400" y="361" type="line"/>
			<point x="369" y="423"/>
			<point x="314" y="449"/>
			<point x="257" y="449" type="curve" smooth="yes"/>
			<point x="143" y="449"/>
			<point x="51" y="362"/>
			<point x="51" y="224" type="curve" smooth="yes"/>
			<point x="51" y="78"/>
			<point x="154" y="-12"/>
		</contour>
		<contour>
			<point x="127" y="484" type="line"/>
			<point x="473" y="660" type="line"/>
			<point x="435" y="726" type="line"/>
			<point x="93" y="550" type="line"/>
		</contour>
	</outline>
	<anchor name="aboveUC" x="290" y="727"/>
	<anchor name="belowLC" x="270" y="-22"/>
</glyph>
<glyph name="divide" format="2">
	<unicode hex="00F7"/>
	<advance width="505"/>
	<outline>
		<contour>
			<point x="34" y="294" type="line"/>
			<point x="471" y="294" type="line"/>
			<point x="471" y="366" type="line"/>
			<point x="34" y="366" type="line"/>
		</contour>
		<contour>
			<point x="253" y="90" type="curve" smooth="yes"/>
			<point x="287" y="90"/>
			<point x="314" y="114"/>
			<point x="314" y="150" type="curve" smooth="yes"/>
			<point x="314" y="185"/>
			<point x="287" y="209"/>
			<point x="253" y="209" type="curve" smooth="yes"/>
			<point x="218" y="209"/>
			<point x="191" y="185"/>
			<point x="191" y="150" type="curve" smooth="yes"/>
			<point x="191" y="114"/>
			<point x="218" y="90"/>
		</contour>
		<contour>
			<point x="253" y="450" type="curve" smooth="yes"/>
			<point x="287" y="450"/>
			<point x="314" y="474"/>
			<point x="314" y="510" type="curve" smooth="yes"/>
			<point x="314" y="545"/>
			<point x="287" y="569"/>
			<point x="253" y="569" type="curve" smooth="yes"/>
			<point x="218" y="569"/>
			<point x="191" y="545"/>
			<point x="191" y="510" type="curve" smooth="yes"/>
			<point x="191" y="474"/>
			<point x="218" y="450"/>
		</contour>
	</outline>
</glyph>
<glyph name="oslash" format="2">
	<unicode hex="00F8"/>
	<advance width="546"/>
	<outline>
		<contour>
			<point x="274" y="-12" type="curve" smooth="yes"/>
			<point x="394" y="-12"/>
			<point x="504" y="82"/>
			<point x="504" y="243" type="curve" smooth="yes"/>
			<point x="504" y="407"/>
			<point x="394" y="501"/>
			<point x="272" y="501" type="curve" smooth="yes"/>
			<point x="152" y="501"/>
			<point x="43" y="407"/>
			<point x="43" y="243" type="curve" smooth="yes"/>
			<point x="43" y="82"/>
			<point x="152" y="-12"/>
		</contour>
		<contour>
			<point x="274" y="66" type="curve" smooth="yes"/>
			<point x="194" y="66"/>
			<point x="141" y="134"/>
			<point x="141" y="249" type="curve" smooth="yes"/>
			<point x="141" y="352"/>
			<point x="195" y="423"/>
			<point x="272" y="423" type="curve" smooth="yes"/>
			<point x="352" y="423"/>
			<point x="406" y="355"/>
			<point x="406" y="238" type="curve" smooth="yes"/>
			<point x="406" y="136"/>
			<point x="350" y="66"/>
		</contour>
		<contour>
			<point x="92" y="-32" type="line"/>
			<point x="509" y="475" type="line"/>
			<point x="454" y="521" type="line"/>
			<point x="38" y="14" type="line"/>
		</contour>
	</outline>
	<anchor name="aboveLC" x="272" y="512"/>
	<anchor name="belowLC" x="272" y="-22"/>
</glyph>
<glyph name="Aogonek" format="2">
	<unicode hex="0104"/>
	<advance width="551"/>
	<outline>
		<contour>
			<point x="496" y="-221" type="curve" smooth="yes"/>
			<point x="531" y="-221"/>
			<point x="568" y="-206"/>
			<point x="591" y="-188" type="curve"/>
			<point x="565" y="-131" type="line"/>
			<point x="551" y="-141"/>
			<point x="535" y="-148"/>
			<point x="516" y="-148" type="curve" smooth="yes"/>
			<point x="488" y="-148"/>
			<point x="465" y="-134"/>
			<point x="465" y="-101" type="curve" smooth="yes"/>
			<point x="465" y="-61"/>
			<point x="502" y="-17"/>
			<point x="551" y="0" type="curve"/>
			<point x="333" y="655" type="line"/>
			<point x="218" y="655" type="line"/>
			<point x="0" y="0" type="line"/>
			<point x="102" y="0" type="line"/>
			<point x="210" y="357" type="line" smooth="yes"/>
			<point x="232" y="428"/>
			<point x="252" y="501"/>
			<point x="272" y="575" type="curve"/>
			<point x="276" y="575" type="line"/>
			<point x="296" y="502"/>
			<point x="316" y="428"/>
			<point x="338" y="357" type="curve" smooth="yes"/>
			<point x="445" y="0" type="line"/>
			<point x="464" y="0" type="line"/>
			<point x="429" y="-22"/>
			<point x="384" y="-70"/>
			<point x="384" y="-127" type="curve" smooth="yes"/>
			<point x="384" y="-189"/>
			<point x="434" y="-221"/>
		</contour>
		<contour>
			<point x="122" y="188" type="line"/>
			<point x="427" y="188" type="line"/>
			<point x="427" y="267" type="line"/>
			<point x="122" y="267" type="line"/>
		</contour>
	</outline>
	<anchor name="aboveUC" x="275" y="677"/>
</glyph>
<glyph name="aogonek" format="2">
	<unicode hex="0105"/>
	<advance width="510"/>
	<outline>
		<contour>
			<point x="392" y="-216" type="curve" smooth="yes"/>
			<point x="426" y="-216"/>
			<point x="462" y="-202"/>
			<point x="485" y="-184" type="curve"/>
			<point x="462" y="-130" type="line"/>
			<point x="446" y="-140"/>
			<point x="431" y="-146"/>
			<point x="412" y="-146" type="curve" smooth="yes"/>
			<point x="387" y="-146"/>
			<point x="363" y="-132"/>
			<point x="363" y="-100" type="curve" smooth="yes"/>
			<point x="363" y="-65"/>
			<point x="392" y="-20"/>
			<point x="442" y="0" type="curve"/>
			<point x="442" y="294" type="line" smooth="yes"/>
			<point x="442" y="424"/>
			<point x="386" y="501"/>
			<point x="266" y="501" type="curve" smooth="yes"/>
			<point x="188" y="501"/>
			<point x="119" y="470"/>
			<point x="69" y="438" type="curve"/>
			<point x="106" y="370" type="line"/>
			<point x="148" y="396"/>
			<point x="196" y="418"/>
			<point x="248" y="418" type="curve" smooth="yes"/>
			<point x="320" y="418"/>
			<point x="342" y="368"/>
			<point x="343" y="313" type="curve"/>
			<point x="139" y="290"/>
			<point x="49" y="239"/>
			<point x="49" y="129" type="curve" smooth="yes"/>
			<point x="49" y="42"/>
			<point x="109" y="-12"/>
			<point x="193" y="-12" type="curve" smooth="yes"/>
			<point x="252" y="-12"/>
			<point x="303" y="18"/>
			<point x="349" y="56" type="curve"/>
			<point x="353" y="56" type="line"/>
			<point x="360" y="2" type="line"/>
			<point x="326" y="-21"/>
			<point x="286" y="-67"/>
			<point x="286" y="-121" type="curve" smooth="yes"/>
			<point x="286" y="-186"/>
			<point x="333" y="-216"/>
		</contour>
		<contour>
			<point x="223" y="69" type="curve" smooth="yes"/>
			<point x="179" y="69"/>
			<point x="145" y="88"/>
			<point x="145" y="136" type="curve" smooth="yes"/>
			<point x="145" y="192"/>
			<point x="195" y="225"/>
			<point x="343" y="243" type="curve"/>
			<point x="343" y="126" type="line"/>
			<point x="302" y="88"/>
			<point x="266" y="69"/>
		</contour>
	</outline>
	<anchor name="aboveLC" x="270" y="512"/>
</glyph>
<glyph name="dcroat" format="2">
	<unicode hex="0111"/>
	<advance width="563"/>
	<outline>
		<contour>
			<point x="247" y="-12" type="curve" smooth="yes"/>
			<point x="303" y="-12"/>
			<point x="351" y="16"/>
			<point x="388" y="53" type="curve"/>
			<point x="391" y="53" type="line"/>
			<point x="399" y="0" type="line"/>
			<point x="482" y="0" type="line"/>
			<point x="482" y="709" type="line"/>
			<point x="383" y="709" type="line"/>
			<point x="383" y="486" type="line"/>
			<point x="387" y="404" type="line"/>
			<point x="347" y="439"/>
			<point x="311" y="460"/>
			<point x="254" y="460" type="curve" smooth="yes"/>
			<point x="146" y="460"/>
			<point x="44" y="368"/>
			<point x="44" y="224" type="curve" smooth="yes"/>
			<point x="44" y="76"/>
			<point x="124" y="-12"/>
		</contour>
		<contour>
			<point x="269" y="70" type="curve" smooth="yes"/>
			<point x="191" y="70"/>
			<point x="148" y="129"/>
			<point x="148" y="225" type="curve" smooth="yes"/>
			<point x="148" y="317"/>
			<point x="204" y="377"/>
			<point x="274" y="377" type="curve" smooth="yes"/>
			<point x="311" y="377"/>
			<point x="345" y="365"/>
			<point x="383" y="330" type="curve"/>
			<point x="383" y="131" type="line"/>
			<point x="346" y="90"/>
			<point x="311" y="70"/>
		</contour>
		<contour>
			<point x="204" y="548" type="line"/>
			<point x="478" y="548" type="line"/>
			<point x="557" y="554" type="line"/>
			<point x="557" y="625" type="line"/>
			<point x="204" y="625" type="line"/>
		</contour>
	</outline>
</glyph>
<glyph name="eogonek" format="2">
	<unicode hex="0119"/>
	<advance width="501"/>
	<outline>
		<contour>
			<point x="362" y="-215" type="curve" smooth="yes"/>
			<point x="396" y="-215"/>
			<point x="433" y="-203"/>
			<point x="455" y="-184" type="curve"/>
			<point x="431" y="-130" type="line"/>
			<point x="417" y="-141"/>
			<point x="401" y="-145"/>
			<point x="381" y="-145" type="curve" smooth="yes"/>
			<point x="357" y="-145"/>
			<point x="332" y="-134"/>
			<point x="332" y="-100" type="curve" smooth="yes"/>
			<point x="332" y="-56"/>
			<point x="365" y="-12"/>
			<point x="446" y="39" type="curve"/>
			<point x="411" y="103" type="line"/>
			<point x="377" y="81"/>
			<point x="338" y="68"/>
			<point x="293" y="68" type="curve" smooth="yes"/>
			<point x="212" y="68"/>
			<point x="141" y="125"/>
			<point x="141" y="245" type="curve" smooth="yes"/>
			<point x="141" y="377"/>
			<point x="207" y="422"/>
			<point x="268" y="422" type="curve" smooth="yes"/>
			<point x="339" y="422"/>
			<point x="376" y="374"/>
			<point x="376" y="292" type="curve"/>
			<point x="115" y="292" type="line"/>
			<point x="115" y="215" type="line"/>
			<point x="459" y="215" type="line"/>
			<point x="463" y="232"/>
			<point x="464" y="250"/>
			<point x="464" y="270" type="curve" smooth="yes"/>
			<point x="464" y="407"/>
			<point x="396" y="501"/>
			<point x="266" y="501" type="curve" smooth="yes"/>
			<point x="152" y="501"/>
			<point x="43" y="404"/>
			<point x="43" y="244" type="curve" smooth="yes"/>
			<point x="43" y="82"/>
			<point x="147" y="-12"/>
			<point x="282" y="-12" type="curve" smooth="yes"/>
			<point x="299" y="-12"/>
			<point x="322" y="-8"/>
			<point x="340" y="0" type="curve"/>
			<point x="338" y="5" type="line"/>
			<point x="286" y="-30"/>
			<point x="255" y="-73"/>
			<point x="255" y="-121" type="curve" smooth="yes"/>
			<point x="255" y="-186"/>
			<point x="303" y="-215"/>
		</contour>
	</outline>
	<anchor name="aboveLC" x="265" y="512"/>
	<anchor name="belowLC" x="270" y="-222"/>
</glyph>
<glyph name="Iogonek" format="2">
	<unicode hex="012E"/>
	<advance width="273"/>
	<outline>
		<contour>
			<point x="144" y="-221" type="curve" smooth="yes"/>
			<point x="179" y="-221"/>
			<point x="217" y="-206"/>
			<point x="240" y="-188" type="curve"/>
			<point x="214" y="-131" type="line"/>
			<point x="200" y="-141"/>
			<point x="184" y="-148"/>
			<point x="165" y="-148" type="curve" smooth="yes"/>
			<point x="137" y="-148"/>
			<point x="114" y="-134"/>
			<point x="114" y="-101" type="curve" smooth="yes"/>
			<point x="114" y="-65"/>
			<point x="141" y="-28"/>
			<point x="186" y="0" type="curve"/>
			<point x="186" y="655" type="line"/>
			<point x="86" y="655" type="line"/>
			<point x="86" y="0" type="line"/>
			<point x="108" y="0" type="line"/>
			<point x="72" y="-28"/>
			<point x="33" y="-72"/>
			<point x="33" y="-127" type="curve" smooth="yes"/>
			<point x="33" y="-189"/>
			<point x="83" y="-221"/>
		</contour>
	</outline>
	<anchor name="aboveUC" x="137" y="677"/>
</glyph>
<glyph name="dotlessi" format="2">
	<unicode hex="0131"/>
	<advance width="254"/>
	<outline>
		<contour>
			<point x="78" y="0" type="line"/>
			<point x="177" y="0" type="line"/>
			<point x="177" y="489" type="line"/>
			<point x="78" y="489" type="line"/>
		</contour>
	</outline>
	<anchor name="aboveLC" x="127" y="512"/>
	<anchor name="belowLC" x="127" y="-22"/>
	<anchor name="ogonekLC" x="119" y="0"/>
</glyph>
<glyph name="IJ" format="2">
	<unicode hex="0132"/>
	<advance width="546"/>
	<outline>
		<contour>
			<point x="86" y="0" type="line"/>
			<point x="186" y="0" type="line"/>
			<point x="186" y="655" type="line"/>
			<point x="86" y="655" type="line"/>
		</contour>
		<contour>
			<point x="314" y="-169" type="curve" smooth="yes"/>
			<point x="420" y="-169"/>
			<point x="459" y="-99"/>
			<point x="459" y="2" type="curve" smooth="yes"/>
			<point x="459" y="655" type="line"/>
			<point x="359" y="655" type="line"/>
			<point x="359" y="4" type="line" smooth="yes"/>
			<point x="359" y="-55"/>
			<point x="347" y="-88"/>
			<point x="301" y="-88" type="curve" smooth="yes"/>
			<point x="285" y="-88"/>
			<point x="270" y="-84"/>
			<point x="257" y="-80" type="curve"/>
			<point x="238" y="-157" type="line"/>
			<point x="256" y="-163"/>
			<point x="281" y="-169"/>
		</contour>
	</outline>
</glyph>
<glyph name="kgreenlandic" format="2">
	<unicode hex="0138"/>
	<advance width="508"/>
	<outline>
		<contour>
			<point x="78" y="0" type="line"/>
			<point x="177" y="0" type="line"/>
			<point x="177" y="123" type="line"/>
			<point x="258" y="220" type="line"/>
			<point x="392" y="0" type="line"/>
			<point x="500" y="0" type="line"/>
			<point x="317" y="291" type="line"/>
			<point x="481" y="489" type="line"/>
			<point x="372" y="489" type="line"/>
			<point x="180" y="246" type="line"/>
			<point x="177" y="246" type="line"/>
			<point x="177" y="489" type="line"/>
			<point x="78" y="489" type="line"/>
		</contour>
	</outline>
</glyph>
<glyph name="Lslash" format="2">
	<unicode hex="0141"/>
	<advance width="511"/>
	<outline>
		<contour>
			<point x="27" y="200" type="line"/>
			<point x="114" y="240" type="line"/>
			<point x="193" y="276" type="line"/>
			<point x="422" y="376" type="line"/>
			<point x="384" y="451" type="line"/>
			<point x="186" y="362" type="line"/>
			<point x="108" y="326" type="line"/>
			<point x="-11" y="275" type="line"/>
		</contour>
		<component base="L" xOffset="20"/>
	</outline>
	<anchor name="aboveUC" x="159" y="677"/>
	<anchor name="belowLC" x="305" y="-22"/>
</glyph>
<glyph name="lslash" format="2">
	<unicode hex="0142"/>
	<advance width="314"/>
	<outline>
		<contour>
			<point x="27" y="299" type="line"/>
			<point x="114" y="341" type="line"/>
			<point x="193" y="378" type="line"/>
			<point x="319" y="434" type="line"/>
			<point x="281" y="508" type="line"/>
			<point x="186" y="463" type="line"/>
			<point x="108" y="426" type="line"/>
			<point x="-11" y="373" type="line"/>
		</contour>
		<component base="l" xOffset="25"/>
	</outline>
	<anchor name="aboveUC" x="154" y="727"/>
	<anchor name="belowLC" x="174" y="-22"/>
</glyph>
<glyph name="Eng" format="2">
	<unicode hex="014A"/>
	<advance width="643"/>
	<outline>
		<contour>
			<point x="408" y="-12" type="curve" smooth="yes"/>
			<point x="524" y="-12"/>
			<point x="593" y="87"/>
			<point x="593" y="334" type="curve" smooth="yes"/>
			<point x="593" y="578"/>
			<point x="496" y="667"/>
			<point x="366" y="667" type="curve" smooth="yes"/>
			<point x="298" y="667"/>
			<point x="231" y="630"/>
			<point x="184" y="577" type="curve"/>
			<point x="184" y="655" type="line"/>
			<point x="86" y="655" type="line"/>
			<point x="86" y="0" type="line"/>
			<point x="186" y="0" type="line"/>
			<point x="186" y="486" type="line"/>
			<point x="224" y="542"/>
			<point x="290" y="580"/>
			<point x="339" y="580" type="curve" smooth="yes"/>
			<point x="430" y="580"/>
			<point x="490" y="519"/>
			<point x="490" y="334" type="curve" smooth="yes"/>
			<point x="490" y="136"/>
			<point x="448" y="82"/>
			<point x="397" y="82" type="curve" smooth="yes"/>
			<point x="377" y="82"/>
			<point x="363" y="85"/>
			<point x="350" y="91" type="curve"/>
			<point x="326" y="4" type="line"/>
			<point x="345" y="-6"/>
			<point x="381" y="-12"/>
		</contour>
	</outline>
	<anchor name="aboveUC" x="349" y="677"/>
	<anchor name="belowLC" x="320" y="-22"/>
</glyph>
<glyph name="eng" format="2">
	<unicode hex="014B"/>
	<advance width="553"/>
	<outline>
		<contour>
			<point x="337" y="-212" type="curve" smooth="yes"/>
			<point x="444" y="-212"/>
			<point x="482" y="-142"/>
			<point x="482" y="-40" type="curve" smooth="yes"/>
			<point x="482" y="308" type="line" smooth="yes"/>
			<point x="482" y="432"/>
			<point x="436" y="501"/>
			<point x="332" y="501" type="curve" smooth="yes"/>
			<point x="265" y="501"/>
			<point x="215" y="465"/>
			<point x="170" y="420" type="curve"/>
			<point x="167" y="420" type="line"/>
			<point x="159" y="489" type="line"/>
			<point x="78" y="489" type="line"/>
			<point x="78" y="0" type="line"/>
			<point x="177" y="0" type="line"/>
			<point x="177" y="348" type="line"/>
			<point x="221" y="392"/>
			<point x="252" y="415"/>
			<point x="299" y="415" type="curve" smooth="yes"/>
			<point x="357" y="415"/>
			<point x="383" y="381"/>
			<point x="383" y="295" type="curve" smooth="yes"/>
			<point x="383" y="-41" type="line" smooth="yes"/>
			<point x="383" y="-99"/>
			<point x="371" y="-132"/>
			<point x="325" y="-132" type="curve" smooth="yes"/>
			<point x="309" y="-132"/>
			<point x="293" y="-128"/>
			<point x="280" y="-124" type="curve"/>
			<point x="262" y="-198" type="line"/>
			<point x="279" y="-206"/>
			<point x="305" y="-212"/>
		</contour>
	</outline>
	<anchor name="aboveLC" x="299" y="512"/>
	<anchor name="belowLC" x="280" y="-203"/>
</glyph>
<glyph name="OE" format="2">
	<unicode hex="0152"/>
	<advance width="853"/>
	<outline>
		<contour>
			<point x="370" y="0" type="curve" smooth="yes"/>
			<point x="803" y="0" type="line"/>
			<point x="803" y="84" type="line"/>
			<point x="523" y="84" type="line"/>
			<point x="523" y="300" type="line"/>
			<point x="749" y="300" type="line"/>
			<point x="749" y="384" type="line"/>
			<point x="523" y="384" type="line"/>
			<point x="523" y="571" type="line"/>
			<point x="793" y="571" type="line"/>
			<point x="793" y="655" type="line"/>
			<point x="375" y="655" type="line" smooth="yes"/>
			<point x="174" y="655"/>
			<point x="50" y="543"/>
			<point x="50" y="330" type="curve" smooth="yes"/>
			<point x="50" y="118"/>
			<point x="174" y="0"/>
		</contour>
		<contour>
			<point x="382" y="81" type="line" smooth="yes"/>
			<point x="235" y="81"/>
			<point x="153" y="166"/>
			<point x="153" y="330" type="curve" smooth="yes"/>
			<point x="153" y="494"/>
			<point x="235" y="574"/>
			<point x="382" y="574" type="curve" smooth="yes"/>
			<point x="423" y="574" type="line"/>
			<point x="423" y="81" type="line"/>
		</contour>
	</outline>
	<anchor name="aboveUC" x="531" y="677"/>
</glyph>
<glyph name="Tbar" format="2">
	<unicode hex="0166"/>
	<advance width="541"/>
	<outline>
		<contour>
			<point x="98" y="292" type="line"/>
			<point x="443" y="292" type="line"/>
			<point x="443" y="369" type="line"/>
			<point x="189" y="369" type="line"/>
			<point x="98" y="365" type="line"/>
		</contour>
		<component base="T"/>
	</outline>
	<anchor name="aboveUC" x="270" y="677"/>
	<anchor name="belowLC" x="270" y="-22"/>
</glyph>
<glyph name="tbar" format="2">
	<unicode hex="0167"/>
	<advance width="350"/>
	<outline>
		<contour>
			<point x="22" y="212" type="line"/>
			<point x="322" y="212" type="line"/>
			<point x="322" y="289" type="line"/>
			<point x="98" y="289" type="line"/>
			<point x="22" y="283" type="line"/>
		</contour>
		<component base="t"/>
	</outline>
	<anchor name="aboveLC" x="154" y="647"/>
	<anchor name="belowLC" x="219" y="-22"/>
</glyph>
<glyph name="Uogonek" format="2">
	<unicode hex="0172"/>
	<advance width="650"/>
	<outline>
		<contour>
			<point x="340" y="-221" type="curve" smooth="yes"/>
			<point x="374" y="-221"/>
			<point x="412" y="-206"/>
			<point x="435" y="-188" type="curve"/>
			<point x="409" y="-131" type="line"/>
			<point x="395" y="-141"/>
			<point x="379" y="-148"/>
			<point x="360" y="-148" type="curve" smooth="yes"/>
			<point x="332" y="-148"/>
			<point x="309" y="-134"/>
			<point x="309" y="-101" type="curve" smooth="yes"/>
			<point x="309" y="-64"/>
			<point x="339" y="-21"/>
			<point x="385" y="-9" type="curve" smooth="yes"/>
			<point x="504" y="22"/>
			<point x="567" y="104"/>
			<point x="567" y="279" type="curve" smooth="yes"/>
			<point x="567" y="655" type="line"/>
			<point x="471" y="655" type="line"/>
			<point x="471" y="273" type="line" smooth="yes"/>
			<point x="471" y="122"/>
			<point x="409" y="73"/>
			<point x="326" y="73" type="curve" smooth="yes"/>
			<point x="243" y="73"/>
			<point x="183" y="122"/>
			<point x="183" y="273" type="curve" smooth="yes"/>
			<point x="183" y="655" type="line"/>
			<point x="83" y="655" type="line"/>
			<point x="83" y="279" type="line" smooth="yes"/>
			<point x="83" y="66"/>
			<point x="183" y="-12"/>
			<point x="326" y="-12" type="curve"/>
			<point x="305" y="3" type="line"/>
			<point x="267" y="-24"/>
			<point x="228" y="-73"/>
			<point x="228" y="-127" type="curve" smooth="yes"/>
			<point x="228" y="-189"/>
			<point x="278" y="-221"/>
		</contour>
	</outline>
	<anchor name="aboveUC" x="325" y="677"/>
</glyph>
<glyph name="uogonek" format="2">
	<unicode hex="0173"/>
	<advance width="550"/>
	<outline>
		<contour>
			<point x="422" y="-216" type="curve" smooth="yes"/>
			<point x="456" y="-216"/>
			<point x="492" y="-202"/>
			<point x="515" y="-184" type="curve"/>
			<point x="491" y="-131" type="line"/>
			<point x="476" y="-141"/>
			<point x="461" y="-147"/>
			<point x="441" y="-147" type="curve" smooth="yes"/>
			<point x="417" y="-147"/>
			<point x="393" y="-133"/>
			<point x="393" y="-101" type="curve" smooth="yes"/>
			<point x="393" y="-65"/>
			<point x="421" y="-21"/>
			<point x="473" y="0" type="curve"/>
			<point x="473" y="489" type="line"/>
			<point x="374" y="489" type="line"/>
			<point x="374" y="148" type="line"/>
			<point x="332" y="96"/>
			<point x="301" y="73"/>
			<point x="254" y="73" type="curve" smooth="yes"/>
			<point x="195" y="73"/>
			<point x="170" y="108"/>
			<point x="170" y="193" type="curve" smooth="yes"/>
			<point x="170" y="489" type="line"/>
			<point x="71" y="489" type="line"/>
			<point x="71" y="181" type="line" smooth="yes"/>
			<point x="71" y="57"/>
			<point x="117" y="-12"/>
			<point x="221" y="-12" type="curve" smooth="yes"/>
			<point x="288" y="-12"/>
			<point x="336" y="22"/>
			<point x="380" y="74" type="curve"/>
			<point x="383" y="74" type="line"/>
			<point x="392" y="2" type="line"/>
			<point x="357" y="-21"/>
			<point x="317" y="-67"/>
			<point x="317" y="-121" type="curve" smooth="yes"/>
			<point x="317" y="-186"/>
			<point x="364" y="-216"/>
		</contour>
	</outline>
	<anchor name="aboveLC" x="269" y="502"/>
</glyph>
<glyph name="longs" format="2">
	<unicode hex="017F"/>
	<advance width="282"/>
	<outline>
		<contour>
			<point x="94" y="0" type="line"/>
			<point x="193" y="0" type="line"/>
			<point x="193" y="553" type="line" smooth="yes"/>
			<point x="193" y="613"/>
			<point x="215" y="642"/>
			<point x="259" y="642" type="curve" smooth="yes"/>
			<point x="276" y="642"/>
			<point x="295" y="638"/>
			<point x="313" y="631" type="curve"/>
			<point x="332" y="704" type="line"/>
			<point x="311" y="713"/>
			<point x="280" y="721"/>
			<point x="247" y="721" type="curve" smooth="yes"/>
			<point x="140" y="721"/>
			<point x="94" y="653"/>
			<point x="94" y="552" type="curve" smooth="yes"/>
		</contour>
		<contour>
			<point x="28" y="409" type="line"/>
			<point x="177" y="409" type="line"/>
			<point x="177" y="489" type="line"/>
			<point x="99" y="489" type="line"/>
			<point x="28" y="484" type="line"/>
		</contour>
	</outline>
	<anchor name="aboveUC" x="224" y="727"/>
	<anchor name="belowLC" x="144" y="-22"/>
</glyph>
<glyph name="bstroke" format="2">
	<unicode hex="0180"/>
	<advance width="569"/>
	<outline>
		<contour>
			<point x="315" y="-12" type="curve" smooth="yes"/>
			<point x="426" y="-12"/>
			<point x="525" y="80"/>
			<point x="525" y="232" type="curve" smooth="yes"/>
			<point x="525" y="370"/>
			<point x="455" y="460"/>
			<point x="330" y="460" type="curve" smooth="yes"/>
			<point x="278" y="460"/>
			<point x="228" y="433"/>
			<point x="183" y="395" type="curve"/>
			<point x="186" y="481" type="line"/>
			<point x="186" y="709" type="line"/>
			<point x="88" y="709" type="line"/>
			<point x="88" y="0" type="line"/>
			<point x="166" y="0" type="line"/>
			<point x="175" y="51" type="line"/>
			<point x="179" y="51" type="line"/>
			<point x="220" y="10"/>
			<point x="269" y="-12"/>
		</contour>
		<contour>
			<point x="295" y="70" type="curve" smooth="yes"/>
			<point x="264" y="70"/>
			<point x="225" y="83"/>
			<point x="186" y="116" type="curve"/>
			<point x="186" y="317" type="line"/>
			<point x="229" y="357"/>
			<point x="267" y="377"/>
			<point x="306" y="377" type="curve" smooth="yes"/>
			<point x="388" y="377"/>
			<point x="422" y="318"/>
			<point x="422" y="232" type="curve" smooth="yes"/>
			<point x="422" y="132"/>
			<point x="368" y="70"/>
		</contour>
		<contour>
			<point x="7" y="548" type="line"/>
			<point x="366" y="548" type="line"/>
			<point x="366" y="625" type="line"/>
			<point x="93" y="625" type="line"/>
			<point x="7" y="620" type="line"/>
		</contour>
	</outline>
</glyph>
<glyph name="Oopen" format="2">
	<unicode hex="0186"/>
	<advance width="574"/>
	<outline>
		<contour>
			<point x="242" y="-12" type="curve" smooth="yes"/>
			<point x="403" y="-12"/>
			<point x="523" y="101"/>
			<point x="523" y="326" type="curve" smooth="yes"/>
			<point x="523" y="551"/>
			<point x="402" y="667"/>
			<point x="245" y="667" type="curve" smooth="yes"/>
			<point x="160" y="667"/>
			<point x="92" y="633"/>
			<point x="47" y="585" type="curve"/>
			<point x="97" y="523" type="line"/>
			<point x="135" y="561"/>
			<point x="184" y="580"/>
			<point x="240" y="580" type="curve" smooth="yes"/>
			<point x="348" y="580"/>
			<point x="420" y="495"/>
			<point x="420" y="332" type="curve" smooth="yes"/>
			<point x="420" y="159"/>
			<point x="351" y="75"/>
			<point x="240" y="75" type="curve" smooth="yes"/>
			<point x="175" y="75"/>
			<point x="125" y="97"/>
			<point x="83" y="142" type="curve"/>
			<point x="29" y="83" type="line"/>
			<point x="85" y="20"/>
			<point x="154" y="-12"/>
		</contour>
	</outline>
	<anchor name="aboveUC" x="265" y="677"/>
	<anchor name="baseLC" x="255" y="0"/>
	<anchor name="belowLC" x="255" y="-22"/>
	<anchor name="ogonekUC" x="260" y="0"/>
</glyph>
<glyph name="florin" format="2">
	<unicode hex="0192"/>
	<advance width="304"/>
	<outline>
		<contour>
			<point x="49" y="-212" type="curve" smooth="yes"/>
			<point x="155" y="-212"/>
			<point x="193" y="-142"/>
			<point x="193" y="-40" type="curve" smooth="yes"/>
			<point x="193" y="553" type="line" smooth="yes"/>
			<point x="193" y="612"/>
			<point x="215" y="642"/>
			<point x="259" y="642" type="curve" smooth="yes"/>
			<point x="276" y="642"/>
			<point x="293" y="639"/>
			<point x="312" y="633" type="curve"/>
			<point x="332" y="704" type="line"/>
			<point x="311" y="713"/>
			<point x="280" y="721"/>
			<point x="247" y="721" type="curve" smooth="yes"/>
			<point x="140" y="721"/>
			<point x="94" y="653"/>
			<point x="94" y="552" type="curve" smooth="yes"/>
			<point x="94" y="-41" type="line" smooth="yes"/>
			<point x="94" y="-99"/>
			<point x="82" y="-132"/>
			<point x="36" y="-132" type="curve" smooth="yes"/>
			<point x="21" y="-132"/>
			<point x="5" y="-128"/>
			<point x="-8" y="-124" type="curve"/>
			<point x="-27" y="-198" type="line"/>
			<point x="-9" y="-206"/>
			<point x="17" y="-212"/>
		</contour>
		<contour>
			<point x="24" y="409" type="line"/>
			<point x="293" y="409" type="line"/>
			<point x="293" y="489" type="line"/>
			<point x="95" y="489" type="line"/>
			<point x="24" y="484" type="line"/>
		</contour>
	</outline>
	<anchor name="aboveUC" x="224" y="727"/>
	<anchor name="belowLC" x="84" y="-203"/>
</glyph>
<glyph name="Ghook" format="2">
	<unicode hex="0193"/>
	<advance width="622"/>
	<outline>
		<contour>
			<point x="352" y="-12" type="curve" smooth="yes"/>
			<point x="441" y="-12"/>
			<point x="515" y="21"/>
			<point x="558" y="65" type="curve"/>
			<point x="558" y="347" type="line"/>
			<point x="337" y="347" type="line"/>
			<point x="337" y="265" type="line"/>
			<point x="468" y="265" type="line"/>
			<point x="468" y="109" type="line"/>
			<point x="444" y="88"/>
			<point x="404" y="75"/>
			<point x="362" y="75" type="curve" smooth="yes"/>
			<point x="227" y="75"/>
			<point x="153" y="172"/>
			<point x="153" y="329" type="curve" smooth="yes"/>
			<point x="153" y="484"/>
			<point x="235" y="580"/>
			<point x="359" y="580" type="curve" smooth="yes"/>
			<point x="422" y="580"/>
			<point x="462" y="560"/>
			<point x="495" y="536" type="curve"/>
			<point x="549" y="600" type="line"/>
			<point x="525" y="632"/>
			<point x="507" y="646"/>
			<point x="507" y="677" type="curve" smooth="yes"/>
			<point x="507" y="707"/>
			<point x="527" y="728"/>
			<point x="557" y="728" type="curve" smooth="yes"/>
			<point x="572" y="728"/>
			<point x="581" y="725"/>
			<point x="592" y="720" type="curve"/>
			<point x="612" y="790" type="line"/>
			<point x="594" y="799"/>
			<point x="572" y="806"/>
			<point x="541" y="806" type="curve" smooth="yes"/>
			<point x="472" y="806"/>
			<point x="427" y="762"/>
			<point x="427" y="705" type="curve" smooth="yes"/>
			<point x="427" y="684"/>
			<point x="431" y="662"/>
			<point x="459" y="623" type="curve"/>
			<point x="469" y="641" type="line"/>
			<point x="428" y="660"/>
			<point x="393" y="667"/>
			<point x="356" y="667" type="curve" smooth="yes"/>
			<point x="182" y="667"/>
			<point x="50" y="539"/>
			<point x="50" y="326" type="curve" smooth="yes"/>
			<point x="50" y="111"/>
			<point x="178" y="-12"/>
		</contour>
	</outline>
	<anchor name="aboveUC" x="281" y="677"/>
	<anchor name="belowLC" x="355" y="-22"/>
</glyph>
<glyph name="Gammalatin" format="2">
	<unicode hex="0194"/>
	<advance width="526"/>
	<outline>
		<contour>
			<point x="261" y="-220" type="curve" smooth="yes"/>
			<point x="348" y="-220"/>
			<point x="392" y="-172"/>
			<point x="392" y="-101" type="curve" smooth="yes"/>
			<point x="392" y="-50"/>
			<point x="366" y="-1"/>
			<point x="317" y="86" type="curve"/>
			<point x="325" y="35" type="line"/>
			<point x="528" y="655" type="line"/>
			<point x="426" y="655" type="line"/>
			<point x="324" y="325" type="line" smooth="yes"/>
			<point x="301" y="248"/>
			<point x="286" y="188"/>
			<point x="263" y="108" type="curve"/>
			<point x="259" y="108" type="line"/>
			<point x="236" y="188"/>
			<point x="221" y="248"/>
			<point x="199" y="325" type="curve" smooth="yes"/>
			<point x="104" y="655" type="line"/>
			<point x="-2" y="655" type="line"/>
			<point x="194" y="35" type="line"/>
			<point x="204" y="87" type="line"/>
			<point x="156" y="0"/>
			<point x="130" y="-50"/>
			<point x="130" y="-101" type="curve" smooth="yes"/>
			<point x="130" y="-172"/>
			<point x="173" y="-220"/>
		</contour>
		<contour>
			<point x="261" y="-154" type="curve" smooth="yes"/>
			<point x="233" y="-154"/>
			<point x="218" y="-133"/>
			<point x="218" y="-104" type="curve" smooth="yes"/>
			<point x="218" y="-71"/>
			<point x="233" y="-34"/>
			<point x="258" y="13" type="curve"/>
			<point x="263" y="13" type="line"/>
			<point x="289" y="-34"/>
			<point x="305" y="-71"/>
			<point x="305" y="-104" type="curve" smooth="yes"/>
			<point x="305" y="-133"/>
			<point x="290" y="-154"/>
		</contour>
	</outline>
	<anchor name="aboveUC" x="264" y="677"/>
	<anchor name="belowLC" x="264" y="-203"/>
</glyph>
<glyph name="Istroke" format="2">
	<unicode hex="0197"/>
	<advance width="312"/>
	<outline>
		<contour>
			<point x="22" y="306" type="line"/>
			<point x="290" y="306" type="line"/>
			<point x="290" y="382" type="line"/>
			<point x="111" y="382" type="line"/>
			<point x="22" y="377" type="line"/>
		</contour>
		<component base="I" xOffset="20"/>
	</outline>
	<anchor name="aboveUC" x="157" y="677"/>
	<anchor name="belowLC" x="157" y="-22"/>
</glyph>
<glyph name="lambdabar" format="2">
	<unicode hex="019B"/>
	<advance width="482"/>
	<outline>
		<contour>
			<point x="73" y="436" type="line"/>
			<point x="418" y="612" type="line"/>
			<point x="380" y="677" type="line"/>
			<point x="38" y="501" type="line"/>
		</contour>
		<component base="lambda.latin"/>
	</outline>
	<anchor name="aboverightUC" x="348" y="677"/>
	<anchor name="aboveUC" x="199" y="727"/>
	<anchor name="belowLC" x="239" y="-22"/>
</glyph>
<glyph name="Ohorn" format="2">
	<unicode hex="01A0"/>
	<advance width="669"/>
	<outline>
		<contour>
			<point x="519" y="597" type="line"/>
			<point x="591" y="616"/>
			<point x="632" y="654"/>
			<point x="632" y="722" type="curve" smooth="yes"/>
			<point x="632" y="755"/>
			<point x="621" y="786"/>
			<point x="607" y="808" type="curve"/>
			<point x="530" y="775" type="line"/>
			<point x="539" y="759"/>
			<point x="545" y="737"/>
			<point x="545" y="715" type="curve" smooth="yes"/>
			<point x="545" y="669"/>
			<point x="519" y="646"/>
			<point x="466" y="635" type="curve"/>
		</contour>
		<component base="O" xOffset="2"/>
	</outline>
	<anchor name="aboveUC" x="337" y="677"/>
	<anchor name="belowLC" x="334" y="-22"/>
</glyph>
<glyph name="ohorn" format="2">
	<unicode hex="01A1"/>
	<advance width="546"/>
	<outline>
		<contour>
			<point x="418" y="442" type="line"/>
			<point x="480" y="460"/>
			<point x="535" y="501"/>
			<point x="535" y="581" type="curve" smooth="yes"/>
			<point x="535" y="611"/>
			<point x="523" y="642"/>
			<point x="509" y="663" type="curve"/>
			<point x="434" y="629" type="line"/>
			<point x="443" y="614"/>
			<point x="449" y="594"/>
			<point x="449" y="574" type="curve" smooth="yes"/>
			<point x="449" y="517"/>
			<point x="418" y="490"/>
			<point x="365" y="479" type="curve"/>
		</contour>
		<component base="o"/>
	</outline>
	<anchor name="aboveLC" x="273" y="512"/>
	<anchor name="belowLC" x="273" y="-22"/>
</glyph>
<glyph name="Uhorn" format="2">
	<unicode hex="01AF"/>
	<advance width="665"/>
	<outline>
		<contour>
			<point x="567" y="614" type="line"/>
			<point x="636" y="629"/>
			<point x="687" y="664"/>
			<point x="687" y="742" type="curve" smooth="yes"/>
			<point x="687" y="775"/>
			<point x="677" y="806"/>
			<point x="663" y="828" type="curve"/>
			<point x="586" y="795" type="line"/>
			<point x="595" y="779"/>
			<point x="601" y="757"/>
			<point x="601" y="735" type="curve" smooth="yes"/>
			<point x="601" y="678"/>
			<point x="564" y="660"/>
			<point x="513" y="655" type="curve"/>
		</contour>
		<component base="U"/>
	</outline>
	<anchor name="aboveUC" x="325" y="677"/>
	<anchor name="belowLC" x="325" y="-22"/>
</glyph>
<glyph name="uhorn" format="2">
	<unicode hex="01B0"/>
	<advance width="550"/>
	<outline>
		<contour>
			<point x="471" y="453" type="line"/>
			<point x="521" y="470"/>
			<point x="570" y="510"/>
			<point x="570" y="591" type="curve" smooth="yes"/>
			<point x="570" y="621"/>
			<point x="560" y="652"/>
			<point x="545" y="673" type="curve"/>
			<point x="470" y="639" type="line"/>
			<point x="479" y="624"/>
			<point x="485" y="603"/>
			<point x="485" y="584" type="curve" smooth="yes"/>
			<point x="485" y="515"/>
			<point x="446" y="494"/>
			<point x="402" y="489" type="curve"/>
		</contour>
		<component base="u"/>
	</outline>
	<anchor name="aboveLC" x="273" y="512"/>
	<anchor name="belowLC" x="287" y="-22"/>
</glyph>
<glyph name="Ezh" format="2">
	<unicode hex="01B7"/>
	<advance width="552"/>
	<outline>
		<contour>
			<point x="282" y="-12" type="curve" smooth="yes"/>
			<point x="406" y="-12"/>
			<point x="514" y="63"/>
			<point x="514" y="199" type="curve" smooth="yes"/>
			<point x="514" y="310"/>
			<point x="434" y="381"/>
			<point x="301" y="378" type="curve"/>
			<point x="500" y="591" type="line"/>
			<point x="500" y="655" type="line"/>
			<point x="75" y="655" type="line"/>
			<point x="75" y="571" type="line"/>
			<point x="371" y="571" type="line"/>
			<point x="165" y="355" type="line"/>
			<point x="202" y="298" type="line"/>
			<point x="229" y="308"/>
			<point x="245" y="311"/>
			<point x="283" y="311" type="curve" smooth="yes"/>
			<point x="359" y="311"/>
			<point x="416" y="270"/>
			<point x="416" y="196" type="curve" smooth="yes"/>
			<point x="416" y="117"/>
			<point x="353" y="75"/>
			<point x="271" y="75" type="curve" smooth="yes"/>
			<point x="204" y="75"/>
			<point x="144" y="93"/>
			<point x="89" y="148" type="curve"/>
			<point x="35" y="86" type="line"/>
			<point x="102" y="13"/>
			<point x="178" y="-12"/>
		</contour>
	</outline>
	<anchor name="aboveUC" x="285" y="677"/>
	<anchor name="belowLC" x="280" y="-22"/>
</glyph>
<glyph name="wynn" format="2">
	<unicode hex="01BF"/>
	<advance width="549"/>
	<outline>
		<contour>
			<point x="78" y="-200" type="line"/>
			<point x="177" y="-200" type="line"/>
			<point x="177" y="-92" type="line"/>
			<point x="175" y="-12" type="line"/>
			<point x="379" y="40"/>
			<point x="504" y="173"/>
			<point x="504" y="331" type="curve" smooth="yes"/>
			<point x="504" y="434"/>
			<point x="440" y="501"/>
			<point x="338" y="501" type="curve" smooth="yes"/>
			<point x="268" y="501"/>
			<point x="219" y="470"/>
			<point x="170" y="413" type="curve"/>
			<point x="167" y="413" type="line"/>
			<point x="159" y="489" type="line"/>
			<point x="78" y="489" type="line"/>
		</contour>
		<contour>
			<point x="177" y="72" type="curve"/>
			<point x="177" y="330" type="line"/>
			<point x="230" y="399"/>
			<point x="269" y="418"/>
			<point x="310" y="418" type="curve" smooth="yes"/>
			<point x="372" y="418"/>
			<point x="402" y="377"/>
			<point x="402" y="314" type="curve" smooth="yes"/>
			<point x="402" y="211"/>
			<point x="309" y="112"/>
		</contour>
	</outline>
	<anchor name="aboveLC" x="299" y="512"/>
	<anchor name="belowLC" x="129" y="-203"/>
</glyph>
<glyph name="clickalveolar" format="2">
	<unicode hex="01C2"/>
	<advance width="405"/>
	<outline>
		<contour>
			<point x="28" y="232" type="line"/>
			<point x="377" y="232" type="line"/>
			<point x="377" y="308" type="line"/>
			<point x="106" y="308" type="line"/>
			<point x="28" y="302" type="line"/>
		</contour>
		<contour>
			<point x="28" y="399" type="line"/>
			<point x="377" y="399" type="line"/>
			<point x="377" y="476" type="line"/>
			<point x="106" y="476" type="line"/>
			<point x="28" y="470" type="line"/>
		</contour>
		<component base="l.a" xOffset="81"/>
	</outline>
	<anchor name="aboveUC" x="205" y="727"/>
	<anchor name="belowLC" x="205" y="-22"/>
</glyph>
<glyph name="clickretroflex" format="2">
	<unicode hex="01C3"/>
	<advance width="248"/>
	<outline>
		<contour>
			<point x="91" y="207" type="line"/>
			<point x="157" y="207" type="line"/>
			<point x="172" y="566" type="line"/>
			<point x="175" y="709" type="line"/>
			<point x="73" y="709" type="line"/>
			<point x="76" y="566" type="line"/>
		</contour>
		<contour>
			<point x="124" y="-12" type="curve" smooth="yes"/>
			<point x="161" y="-12"/>
			<point x="191" y="18"/>
			<point x="191" y="58" type="curve" smooth="yes"/>
			<point x="191" y="100"/>
			<point x="161" y="129"/>
			<point x="124" y="129" type="curve" smooth="yes"/>
			<point x="87" y="129"/>
			<point x="57" y="100"/>
			<point x="57" y="58" type="curve" smooth="yes"/>
			<point x="57" y="18"/>
			<point x="87" y="-12"/>
		</contour>
	</outline>
	<anchor name="aboveUC" x="124" y="727"/>
	<anchor name="belowLC" x="124" y="-22"/>
</glyph>
<glyph name="Gstroke" format="2">
	<unicode hex="01E4"/>
	<advance width="665"/>
	<outline>
		<contour>
			<point x="353" y="-12" type="curve" smooth="yes"/>
			<point x="441" y="-12"/>
			<point x="515" y="21"/>
			<point x="558" y="65" type="curve"/>
			<point x="558" y="347" type="line"/>
			<point x="468" y="347" type="line"/>
			<point x="468" y="109" type="line"/>
			<point x="445" y="87"/>
			<point x="404" y="76"/>
			<point x="362" y="76" type="curve" smooth="yes"/>
			<point x="227" y="76"/>
			<point x="153" y="172"/>
			<point x="153" y="329" type="curve" smooth="yes"/>
			<point x="153" y="484"/>
			<point x="235" y="580"/>
			<point x="359" y="580" type="curve" smooth="yes"/>
			<point x="422" y="580"/>
			<point x="462" y="557"/>
			<point x="495" y="523" type="curve"/>
			<point x="549" y="585" type="line"/>
			<point x="509" y="627"/>
			<point x="447" y="667"/>
			<point x="355" y="667" type="curve" smooth="yes"/>
			<point x="181" y="667"/>
			<point x="50" y="539"/>
			<point x="50" y="326" type="curve" smooth="yes"/>
			<point x="50" y="111"/>
			<point x="177" y="-12"/>
		</contour>
		<contour>
			<point x="336" y="193" type="line"/>
			<point x="640" y="193" type="line"/>
			<point x="640" y="270" type="line"/>
			<point x="472" y="270" type="line"/>
			<point x="336" y="264" type="line"/>
		</contour>
	</outline>
	<anchor name="aboveUC" x="355" y="677"/>
	<anchor name="belowLC" x="355" y="-22"/>
	<guideline x="336" y="250" angle="90" identifier="LLk1mopjqD"/>
</glyph>
<glyph name="gstroke" format="2">
	<unicode hex="01E5"/>
	<advance width="584"/>
	<outline>
		<contour>
			<point x="276" y="222" type="line"/>
			<point x="560" y="222" type="line"/>
			<point x="560" y="298" type="line"/>
			<point x="383" y="298" type="line"/>
			<point x="276" y="293" type="line"/>
		</contour>
		<component base="gscript"/>
	</outline>
	<anchor name="aboveLC" x="280" y="512"/>
	<anchor name="belowLC" x="285" y="-203"/>
</glyph>
<glyph name="Oogonek" format="2">
	<unicode hex="01EA"/>
	<advance width="669"/>
	<outline>
		<contour>
			<point x="350" y="-221" type="curve" smooth="yes"/>
			<point x="384" y="-221"/>
			<point x="422" y="-206"/>
			<point x="445" y="-188" type="curve"/>
			<point x="419" y="-131" type="line"/>
			<point x="405" y="-141"/>
			<point x="389" y="-148"/>
			<point x="370" y="-148" type="curve" smooth="yes"/>
			<point x="342" y="-148"/>
			<point x="319" y="-134"/>
			<point x="319" y="-101" type="curve" smooth="yes"/>
			<point x="319" y="-71"/>
			<point x="344" y="-24"/>
			<point x="416" y="-1" type="curve" smooth="yes"/>
			<point x="532" y="35"/>
			<point x="619" y="142"/>
			<point x="619" y="330" type="curve" smooth="yes"/>
			<point x="619" y="540"/>
			<point x="502" y="667"/>
			<point x="335" y="667" type="curve" smooth="yes"/>
			<point x="167" y="667"/>
			<point x="50" y="541"/>
			<point x="50" y="330" type="curve" smooth="yes"/>
			<point x="50" y="119"/>
			<point x="167" y="-12"/>
			<point x="335" y="-12" type="curve"/>
			<point x="326" y="3" type="line"/>
			<point x="270" y="-27"/>
			<point x="238" y="-82"/>
			<point x="238" y="-127" type="curve" smooth="yes"/>
			<point x="238" y="-189"/>
			<point x="288" y="-221"/>
		</contour>
		<contour>
			<point x="335" y="73" type="curve" smooth="yes"/>
			<point x="225" y="73"/>
			<point x="153" y="174"/>
			<point x="153" y="330" type="curve" smooth="yes"/>
			<point x="153" y="485"/>
			<point x="225" y="580"/>
			<point x="335" y="580" type="curve" smooth="yes"/>
			<point x="445" y="580"/>
			<point x="516" y="485"/>
			<point x="516" y="330" type="curve" smooth="yes"/>
			<point x="516" y="174"/>
			<point x="445" y="73"/>
		</contour>
	</outline>
	<anchor name="aboveUC" x="333" y="677"/>
	<anchor name="belowLC" x="335" y="-222"/>
</glyph>
<glyph name="Wynn" format="2">
	<unicode hex="01F7"/>
	<advance width="574"/>
	<outline>
		<contour>
			<point x="86" y="-157" type="line"/>
			<point x="186" y="-157" type="line"/>
			<point x="186" y="-2" type="line"/>
			<point x="444" y="139"/>
			<point x="533" y="299"/>
			<point x="533" y="454" type="curve" smooth="yes"/>
			<point x="533" y="606"/>
			<point x="463" y="667"/>
			<point x="359" y="667" type="curve" smooth="yes"/>
			<point x="291" y="667"/>
			<point x="231" y="628"/>
			<point x="184" y="577" type="curve"/>
			<point x="184" y="655" type="line"/>
			<point x="86" y="655" type="line"/>
		</contour>
		<contour>
			<point x="186" y="87" type="curve"/>
			<point x="186" y="486" type="line"/>
			<point x="225" y="540"/>
			<point x="283" y="580"/>
			<point x="331" y="580" type="curve" smooth="yes"/>
			<point x="391" y="580"/>
			<point x="434" y="546"/>
			<point x="434" y="446" type="curve" smooth="yes"/>
			<point x="434" y="331"/>
			<point x="377" y="211"/>
		</contour>
	</outline>
	<anchor name="aboveUC" x="319" y="677"/>
	<anchor name="belowLC" x="144" y="-161"/>
</glyph>
<glyph name="Yogh" format="2">
	<unicode hex="021C"/>
	<advance width="501"/>
	<outline>
		<contour>
			<point x="107" y="-169" type="line"/>
			<point x="353" y="-70"/>
			<point x="461" y="30"/>
			<point x="461" y="174" type="curve" smooth="yes"/>
			<point x="461" y="273"/>
			<point x="392" y="328"/>
			<point x="293" y="327" type="curve"/>
			<point x="381" y="385"/>
			<point x="422" y="442"/>
			<point x="422" y="521" type="curve" smooth="yes"/>
			<point x="422" y="609"/>
			<point x="356" y="667"/>
			<point x="255" y="667" type="curve" smooth="yes"/>
			<point x="160" y="667"/>
			<point x="98" y="632"/>
			<point x="22" y="556" type="curve"/>
			<point x="71" y="497" type="line"/>
			<point x="132" y="554"/>
			<point x="174" y="580"/>
			<point x="236" y="580" type="curve" smooth="yes"/>
			<point x="287" y="580"/>
			<point x="322" y="548"/>
			<point x="322" y="494" type="curve" smooth="yes"/>
			<point x="322" y="431"/>
			<point x="289" y="384"/>
			<point x="113" y="285" type="curve"/>
			<point x="148" y="225" type="line"/>
			<point x="195" y="251"/>
			<point x="226" y="257"/>
			<point x="263" y="257" type="curve" smooth="yes"/>
			<point x="321" y="257"/>
			<point x="361" y="222"/>
			<point x="361" y="161" type="curve" smooth="yes"/>
			<point x="361" y="83"/>
			<point x="286" y="-5"/>
			<point x="69" y="-97" type="curve"/>
		</contour>
	</outline>
	<anchor name="aboveUC" x="250" y="677"/>
	<anchor name="belowLC" x="264" y="-161"/>
</glyph>
<glyph name="yogh" format="2">
	<unicode hex="021D"/>
	<advance width="439"/>
	<outline>
		<contour>
			<point x="87" y="-212" type="line"/>
			<point x="307" y="-127"/>
			<point x="402" y="-41"/>
			<point x="402" y="80" type="curve" smooth="yes"/>
			<point x="402" y="170"/>
			<point x="340" y="214"/>
			<point x="252" y="216" type="curve"/>
			<point x="330" y="265"/>
			<point x="367" y="311"/>
			<point x="367" y="376" type="curve" smooth="yes"/>
			<point x="367" y="450"/>
			<point x="310" y="501"/>
			<point x="221" y="501" type="curve" smooth="yes"/>
			<point x="138" y="501"/>
			<point x="80" y="471"/>
			<point x="12" y="405" type="curve"/>
			<point x="56" y="353" type="line"/>
			<point x="108" y="400"/>
			<point x="147" y="423"/>
			<point x="198" y="423" type="curve" smooth="yes"/>
			<point x="242" y="423"/>
			<point x="271" y="397"/>
			<point x="271" y="351" type="curve" smooth="yes"/>
			<point x="271" y="300"/>
			<point x="243" y="260"/>
			<point x="92" y="177" type="curve"/>
			<point x="124" y="122" type="line"/>
			<point x="162" y="143"/>
			<point x="190" y="150"/>
			<point x="219" y="150" type="curve" smooth="yes"/>
			<point x="272" y="150"/>
			<point x="306" y="121"/>
			<point x="306" y="72" type="curve" smooth="yes"/>
			<point x="306" y="4"/>
			<point x="243" y="-69"/>
			<point x="56" y="-145" type="curve"/>
		</contour>
	</outline>
	<anchor name="aboveLC" x="215" y="512"/>
	<anchor name="belowLC" x="229" y="-203"/>
</glyph>
<glyph name="Nlong" format="2">
	<unicode hex="0220"/>
	<advance width="664"/>
	<outline>
		<contour>
			<point x="481" y="-157" type="line"/>
			<point x="581" y="-157" type="line"/>
			<point x="581" y="370" type="line" smooth="yes"/>
			<point x="581" y="583"/>
			<point x="500" y="667"/>
			<point x="367" y="667" type="curve" smooth="yes"/>
			<point x="298" y="667"/>
			<point x="231" y="630"/>
			<point x="184" y="577" type="curve"/>
			<point x="184" y="655" type="line"/>
			<point x="86" y="655" type="line"/>
			<point x="86" y="0" type="line"/>
			<point x="186" y="0" type="line"/>
			<point x="186" y="486" type="line"/>
			<point x="224" y="542"/>
			<point x="290" y="580"/>
			<point x="339" y="580" type="curve" smooth="yes"/>
			<point x="430" y="580"/>
			<point x="481" y="525"/>
			<point x="481" y="360" type="curve" smooth="yes"/>
		</contour>
	</outline>
	<anchor name="aboveUC" x="349" y="677"/>
	<anchor name="belowLC" x="320" y="-161"/>
</glyph>
<glyph name="OU" format="2">
	<unicode hex="0222"/>
	<advance width="669"/>
	<outline>
		<contour>
			<point x="335" y="-12" type="curve" smooth="yes"/>
			<point x="503" y="-12"/>
			<point x="619" y="67"/>
			<point x="619" y="203" type="curve" smooth="yes"/>
			<point x="619" y="314"/>
			<point x="537" y="379"/>
			<point x="426" y="399" type="curve"/>
			<point x="426" y="374" type="line"/>
			<point x="539" y="403"/>
			<point x="576" y="473"/>
			<point x="576" y="581" type="curve" smooth="yes"/>
			<point x="576" y="655" type="line"/>
			<point x="480" y="655" type="line"/>
			<point x="480" y="590" type="line" smooth="yes"/>
			<point x="480" y="465"/>
			<point x="418" y="424"/>
			<point x="335" y="424" type="curve" smooth="yes"/>
			<point x="252" y="424"/>
			<point x="192" y="465"/>
			<point x="192" y="590" type="curve" smooth="yes"/>
			<point x="192" y="655" type="line"/>
			<point x="92" y="655" type="line"/>
			<point x="92" y="581" type="line" smooth="yes"/>
			<point x="92" y="473"/>
			<point x="130" y="403"/>
			<point x="243" y="374" type="curve"/>
			<point x="243" y="399" type="line"/>
			<point x="132" y="379"/>
			<point x="50" y="314"/>
			<point x="50" y="203" type="curve" smooth="yes"/>
			<point x="50" y="67"/>
			<point x="166" y="-12"/>
		</contour>
		<contour>
			<point x="335" y="75" type="curve" smooth="yes"/>
			<point x="229" y="75"/>
			<point x="153" y="121"/>
			<point x="153" y="210" type="curve" smooth="yes"/>
			<point x="153" y="297"/>
			<point x="229" y="343"/>
			<point x="335" y="343" type="curve" smooth="yes"/>
			<point x="440" y="343"/>
			<point x="516" y="297"/>
			<point x="516" y="210" type="curve" smooth="yes"/>
			<point x="516" y="121"/>
			<point x="440" y="75"/>
		</contour>
	</outline>
	<anchor name="aboveUC" x="335" y="677"/>
	<anchor name="belowLC" x="335" y="-22"/>
</glyph>
<glyph name="ou" format="2">
	<unicode hex="0223"/>
	<advance width="540"/>
	<outline>
		<contour>
			<point x="274" y="69" type="curve" smooth="yes"/>
			<point x="197" y="69"/>
			<point x="138" y="121"/>
			<point x="138" y="201" type="curve" smooth="yes"/>
			<point x="138" y="268"/>
			<point x="173" y="325"/>
			<point x="241" y="363" type="curve"/>
			<point x="341" y="325"/>
			<point x="397" y="280"/>
			<point x="397" y="191" type="curve" smooth="yes"/>
			<point x="397" y="118"/>
			<point x="347" y="69"/>
		</contour>
		<contour>
			<point x="271" y="-12" type="curve" smooth="yes"/>
			<point x="408" y="-12"/>
			<point x="499" y="71"/>
			<point x="499" y="195" type="curve" smooth="yes"/>
			<point x="499" y="304"/>
			<point x="435" y="368"/>
			<point x="364" y="404" type="curve"/>
			<point x="364" y="408" type="line"/>
			<point x="423" y="444"/>
			<point x="474" y="509"/>
			<point x="474" y="593" type="curve" smooth="yes"/>
			<point x="474" y="637"/>
			<point x="465" y="669"/>
			<point x="440" y="712" type="curve"/>
			<point x="361" y="684" type="line"/>
			<point x="377" y="656"/>
			<point x="385" y="624"/>
			<point x="385" y="590" type="curve" smooth="yes"/>
			<point x="385" y="530"/>
			<point x="358" y="477"/>
			<point x="301" y="435" type="curve"/>
			<point x="221" y="468"/>
			<point x="162" y="510"/>
			<point x="162" y="595" type="curve" smooth="yes"/>
			<point x="162" y="636"/>
			<point x="169" y="664"/>
			<point x="187" y="696" type="curve"/>
			<point x="102" y="721" type="line"/>
			<point x="77" y="683"/>
			<point x="66" y="646"/>
			<point x="66" y="589" type="curve" smooth="yes"/>
			<point x="66" y="505"/>
			<point x="112" y="444"/>
			<point x="183" y="398" type="curve"/>
			<point x="183" y="394" type="line"/>
			<point x="100" y="363"/>
			<point x="41" y="292"/>
			<point x="41" y="194" type="curve" smooth="yes"/>
			<point x="41" y="72"/>
			<point x="140" y="-12"/>
		</contour>
	</outline>
	<anchor name="aboveUC" x="270" y="727"/>
	<anchor name="belowLC" x="270" y="-22"/>
</glyph>
<glyph name="dotlessj" format="2">
	<unicode hex="0237"/>
	<advance width="255"/>
	<outline>
		<contour>
			<point x="33" y="-212" type="curve" smooth="yes"/>
			<point x="140" y="-212"/>
			<point x="178" y="-142"/>
			<point x="178" y="-40" type="curve" smooth="yes"/>
			<point x="178" y="489" type="line"/>
			<point x="79" y="489" type="line"/>
			<point x="79" y="-41" type="line" smooth="yes"/>
			<point x="79" y="-99"/>
			<point x="67" y="-132"/>
			<point x="20" y="-132" type="curve" smooth="yes"/>
			<point x="5" y="-132"/>
			<point x="-11" y="-128"/>
			<point x="-24" y="-124" type="curve"/>
			<point x="-43" y="-198" type="line"/>
			<point x="-25" y="-206"/>
			<point x="1" y="-212"/>
		</contour>
	</outline>
	<anchor name="aboveLC" x="129" y="512"/>
	<anchor name="belowLC" x="69" y="-203"/>
</glyph>
<glyph name="Cstroke" format="2">
	<unicode hex="023B"/>
	<advance width="573"/>
	<outline>
		<contour>
			<point x="227" y="-53" type="line"/>
			<point x="458" y="697" type="line"/>
			<point x="412" y="708" type="line"/>
			<point x="182" y="-42" type="line"/>
		</contour>
		<component base="C"/>
	</outline>
	<anchor name="aboveUC" x="335" y="677"/>
	<anchor name="belowLC" x="345" y="-22"/>
</glyph>
<glyph name="cstroke" format="2">
	<unicode hex="023C"/>
	<advance width="459"/>
	<outline>
		<contour>
			<point x="184" y="-53" type="line"/>
			<point x="401" y="535" type="line"/>
			<point x="358" y="547" type="line"/>
			<point x="141" y="-41" type="line"/>
		</contour>
		<component base="c"/>
	</outline>
	<anchor name="aboveLC" x="275" y="512"/>
	<anchor name="belowLC" x="265" y="-22"/>
</glyph>
<glyph name="Lbar" format="2">
	<unicode hex="023D"/>
	<advance width="512"/>
	<outline>
		<contour>
			<point x="22" y="318" type="line"/>
			<point x="384" y="318" type="line"/>
			<point x="384" y="395" type="line"/>
			<point x="108" y="395" type="line"/>
			<point x="22" y="390" type="line"/>
		</contour>
		<component base="L" xOffset="20"/>
	</outline>
	<anchor name="aboveUC" x="159" y="677"/>
	<anchor name="belowLC" x="305" y="-22"/>
</glyph>
<glyph name="Tstroke" format="2">
	<unicode hex="023E"/>
	<advance width="541"/>
	<outline>
		<contour>
			<point x="70" y="-35" type="line"/>
			<point x="563" y="680" type="line"/>
			<point x="525" y="703" type="line"/>
			<point x="32" y="-11" type="line"/>
		</contour>
		<component base="T"/>
	</outline>
	<anchor name="aboveUC" x="270" y="677"/>
	<anchor name="belowLC" x="270" y="-22"/>
</glyph>
<glyph name="Bstroke" format="2">
	<unicode hex="0243"/>
	<advance width="610"/>
	<outline>
		<contour>
			<point x="106" y="0" type="line"/>
			<point x="324" y="0" type="line" smooth="yes"/>
			<point x="469" y="0"/>
			<point x="574" y="63"/>
			<point x="574" y="197" type="curve" smooth="yes"/>
			<point x="574" y="289"/>
			<point x="520" y="341"/>
			<point x="425" y="357" type="curve"/>
			<point x="425" y="361" type="line"/>
			<point x="502" y="381"/>
			<point x="538" y="435"/>
			<point x="538" y="497" type="curve" smooth="yes"/>
			<point x="538" y="611"/>
			<point x="443" y="655"/>
			<point x="308" y="655" type="curve" smooth="yes"/>
			<point x="106" y="655" type="line"/>
		</contour>
		<contour>
			<point x="206" y="389" type="line"/>
			<point x="206" y="577" type="line"/>
			<point x="299" y="577" type="line" smooth="yes"/>
			<point x="391" y="577"/>
			<point x="442" y="554"/>
			<point x="442" y="489" type="curve" smooth="yes"/>
			<point x="442" y="422"/>
			<point x="397" y="389"/>
			<point x="296" y="389" type="curve" smooth="yes"/>
		</contour>
		<contour>
			<point x="206" y="78" type="line"/>
			<point x="206" y="315" type="line"/>
			<point x="312" y="315" type="line" smooth="yes"/>
			<point x="419" y="315"/>
			<point x="477" y="284"/>
			<point x="477" y="203" type="curve" smooth="yes"/>
			<point x="477" y="117"/>
			<point x="415" y="78"/>
			<point x="312" y="78" type="curve" smooth="yes"/>
		</contour>
		<contour>
			<point x="22" y="165" type="line"/>
			<point x="352" y="165" type="line"/>
			<point x="352" y="240" type="line"/>
			<point x="108" y="240" type="line"/>
			<point x="22" y="234" type="line"/>
		</contour>
	</outline>
</glyph>
<glyph name="Ubar" format="2">
	<unicode hex="0244"/>
	<advance width="690"/>
	<outline>
		<contour>
			<point x="18" y="325" type="line"/>
			<point x="670" y="325" type="line"/>
			<point x="670" y="402" type="line"/>
			<point x="105" y="402" type="line"/>
			<point x="18" y="397" type="line"/>
		</contour>
		<component base="U" xOffset="20"/>
	</outline>
	<anchor name="aboveUC" x="345" y="677"/>
	<anchor name="belowLC" x="345" y="-22"/>
</glyph>
<glyph name="Jstroke" format="2">
	<unicode hex="0248"/>
	<advance width="507"/>
	<outline>
		<contour>
			<point x="171" y="325" type="line"/>
			<point x="484" y="325" type="line"/>
			<point x="484" y="402" type="line"/>
			<point x="269" y="402" type="line"/>
			<point x="171" y="396" type="line"/>
		</contour>
		<component base="J"/>
	</outline>
	<anchor name="aboveUC" x="349" y="677"/>
	<anchor name="belowLC" x="255" y="-22"/>
</glyph>
<glyph name="oopen" format="2">
	<unicode hex="0254"/>
	<advance width="459"/>
	<outline>
		<contour>
			<point x="188" y="-12" type="curve" smooth="yes"/>
			<point x="315" y="-12"/>
			<point x="415" y="82"/>
			<point x="415" y="244" type="curve" smooth="yes"/>
			<point x="415" y="409"/>
			<point x="311" y="501"/>
			<point x="191" y="501" type="curve" smooth="yes"/>
			<point x="119" y="501"/>
			<point x="70" y="478"/>
			<point x="32" y="445" type="curve"/>
			<point x="81" y="381" type="line"/>
			<point x="108" y="406"/>
			<point x="137" y="419"/>
			<point x="180" y="419" type="curve" smooth="yes"/>
			<point x="256" y="419"/>
			<point x="313" y="350"/>
			<point x="313" y="244" type="curve" smooth="yes"/>
			<point x="313" y="139"/>
			<point x="257" y="69"/>
			<point x="178" y="69" type="curve" smooth="yes"/>
			<point x="135" y="69"/>
			<point x="95" y="88"/>
			<point x="65" y="114" type="curve"/>
			<point x="24" y="49" type="line"/>
			<point x="70" y="5"/>
			<point x="129" y="-12"/>
		</contour>
	</outline>
	<anchor name="aboveLC" x="210" y="512"/>
	<anchor name="baseLC" x="200" y="0"/>
	<anchor name="belowLC" x="200" y="-22"/>
	<anchor name="ogonekLC" x="210" y="0"/>
</glyph>
<glyph name="ccurl" format="2">
	<unicode hex="0255"/>
	<advance width="464"/>
	<outline>
		<contour>
			<point x="126" y="-71" type="line"/>
			<point x="178" y="69"/>
			<point x="257" y="158"/>
			<point x="332" y="158" type="curve" smooth="yes"/>
			<point x="361" y="158"/>
			<point x="374" y="146"/>
			<point x="374" y="126" type="curve" smooth="yes"/>
			<point x="374" y="93"/>
			<point x="338" y="66"/>
			<point x="283" y="66" type="curve" smooth="yes"/>
			<point x="204" y="66"/>
			<point x="141" y="138"/>
			<point x="141" y="244" type="curve" smooth="yes"/>
			<point x="141" y="351"/>
			<point x="202" y="423"/>
			<point x="287" y="423" type="curve" smooth="yes"/>
			<point x="325" y="423"/>
			<point x="355" y="409"/>
			<point x="380" y="386" type="curve"/>
			<point x="426" y="445" type="line"/>
			<point x="391" y="477"/>
			<point x="347" y="501"/>
			<point x="283" y="501" type="curve" smooth="yes"/>
			<point x="155" y="501"/>
			<point x="43" y="407"/>
			<point x="43" y="244" type="curve" smooth="yes"/>
			<point x="43" y="82"/>
			<point x="148" y="-12"/>
			<point x="276" y="-12" type="curve" smooth="yes"/>
			<point x="384" y="-12"/>
			<point x="450" y="49"/>
			<point x="450" y="123" type="curve" smooth="yes"/>
			<point x="450" y="187"/>
			<point x="411" y="230"/>
			<point x="342" y="230" type="curve" smooth="yes"/>
			<point x="226" y="230"/>
			<point x="122" y="129"/>
			<point x="56" y="-43" type="curve"/>
		</contour>
	</outline>
	<anchor name="aboveLC" x="280" y="512"/>
	<anchor name="belowLC" x="290" y="-22"/>
</glyph>
<glyph name="ereversed" format="2">
	<unicode hex="0258"/>
	<advance width="502"/>
	<outline>
		<contour>
			<point x="229" y="-12" type="curve" smooth="yes"/>
			<point x="358" y="-12"/>
			<point x="458" y="82"/>
			<point x="458" y="244" type="curve" smooth="yes"/>
			<point x="458" y="404"/>
			<point x="356" y="501"/>
			<point x="245" y="501" type="curve" smooth="yes"/>
			<point x="110" y="501"/>
			<point x="36" y="407"/>
			<point x="36" y="270" type="curve" smooth="yes"/>
			<point x="36" y="250"/>
			<point x="38" y="232"/>
			<point x="42" y="215" type="curve"/>
			<point x="385" y="215" type="line"/>
			<point x="385" y="292" type="line"/>
			<point x="125" y="292" type="line"/>
			<point x="125" y="374"/>
			<point x="166" y="422"/>
			<point x="243" y="422" type="curve" smooth="yes"/>
			<point x="301" y="422"/>
			<point x="360" y="377"/>
			<point x="360" y="245" type="curve" smooth="yes"/>
			<point x="360" y="125"/>
			<point x="294" y="68"/>
			<point x="217" y="68" type="curve" smooth="yes"/>
			<point x="169" y="68"/>
			<point x="126" y="79"/>
			<point x="90" y="103" type="curve"/>
			<point x="55" y="39" type="line"/>
			<point x="101" y="6"/>
			<point x="161" y="-12"/>
		</contour>
	</outline>
	<anchor name="aboveLC" x="249" y="512"/>
	<anchor name="belowLC" x="249" y="-22"/>
	<anchor name="ogonekLC" x="249" y="0"/>
</glyph>
<glyph name="schwa" format="2">
	<unicode hex="0259"/>
	<advance width="502"/>
	<outline>
		<contour>
			<point x="244" y="-12" type="curve" smooth="yes"/>
			<point x="356" y="-12"/>
			<point x="458" y="84"/>
			<point x="458" y="244" type="curve" smooth="yes"/>
			<point x="458" y="407"/>
			<point x="362" y="501"/>
			<point x="235" y="501" type="curve" smooth="yes"/>
			<point x="170" y="501"/>
			<point x="114" y="481"/>
			<point x="68" y="449" type="curve"/>
			<point x="103" y="385" type="line"/>
			<point x="139" y="407"/>
			<point x="178" y="420"/>
			<point x="224" y="420" type="curve" smooth="yes"/>
			<point x="299" y="420"/>
			<point x="360" y="364"/>
			<point x="360" y="244" type="curve" smooth="yes"/>
			<point x="360" y="113"/>
			<point x="301" y="68"/>
			<point x="243" y="68" type="curve" smooth="yes"/>
			<point x="166" y="68"/>
			<point x="125" y="120"/>
			<point x="125" y="203" type="curve"/>
			<point x="385" y="203" type="line"/>
			<point x="385" y="280" type="line"/>
			<point x="42" y="280" type="line"/>
			<point x="38" y="263"/>
			<point x="36" y="245"/>
			<point x="36" y="225" type="curve" smooth="yes"/>
			<point x="36" y="86"/>
			<point x="109" y="-12"/>
		</contour>
	</outline>
	<anchor name="aboveLC" x="250" y="512"/>
	<anchor name="belowLC" x="239" y="-22"/>
	<anchor name="ogonekLC" x="239" y="0"/>
</glyph>
<glyph name="schwahookrhotic" format="2">
	<unicode hex="025A"/>
	<advance width="683"/>
	<outline>
		<contour>
			<point x="249" y="-12" type="curve" smooth="yes"/>
			<point x="378" y="-12"/>
			<point x="458" y="102"/>
			<point x="458" y="240" type="curve" smooth="yes"/>
			<point x="458" y="402"/>
			<point x="371" y="501"/>
			<point x="235" y="501" type="curve" smooth="yes"/>
			<point x="173" y="501"/>
			<point x="117" y="482"/>
			<point x="68" y="448" type="curve"/>
			<point x="103" y="383" type="line"/>
			<point x="139" y="406"/>
			<point x="178" y="420"/>
			<point x="224" y="420" type="curve" smooth="yes"/>
			<point x="306" y="420"/>
			<point x="360" y="363"/>
			<point x="360" y="232" type="curve" smooth="yes"/>
			<point x="360" y="139"/>
			<point x="321" y="68"/>
			<point x="249" y="68" type="curve" smooth="yes"/>
			<point x="182" y="68"/>
			<point x="139" y="103"/>
			<point x="127" y="164" type="curve"/>
			<point x="527" y="322" type="line"/>
			<point x="527" y="310" type="line" smooth="yes"/>
			<point x="527" y="225"/>
			<point x="572" y="194"/>
			<point x="622" y="194" type="curve" smooth="yes"/>
			<point x="657" y="194"/>
			<point x="680" y="206"/>
			<point x="698" y="218" type="curve"/>
			<point x="673" y="267" type="line"/>
			<point x="665" y="261"/>
			<point x="652" y="256"/>
			<point x="635" y="256" type="curve" smooth="yes"/>
			<point x="602" y="256"/>
			<point x="583" y="279"/>
			<point x="583" y="352" type="curve" smooth="yes"/>
			<point x="583" y="369"/>
			<point x="584" y="385"/>
			<point x="586" y="407" type="curve"/>
			<point x="575" y="416" type="line"/>
			<point x="36" y="205" type="line"/>
			<point x="45" y="83"/>
			<point x="110" y="-12"/>
		</contour>
	</outline>
	<anchor name="aboveLC" x="239" y="512"/>
	<anchor name="belowLC" x="265" y="-22"/>
</glyph>
<glyph name="eopenreversed" format="2">
	<unicode hex="025C"/>
	<advance width="445"/>
	<outline>
		<contour>
			<point x="203" y="-12" type="curve" smooth="yes"/>
			<point x="311" y="-12"/>
			<point x="401" y="43"/>
			<point x="401" y="134" type="curve" smooth="yes"/>
			<point x="401" y="204"/>
			<point x="352" y="243"/>
			<point x="295" y="257" type="curve"/>
			<point x="295" y="261" type="line"/>
			<point x="347" y="279"/>
			<point x="376" y="323"/>
			<point x="376" y="369" type="curve" smooth="yes"/>
			<point x="376" y="458"/>
			<point x="295" y="501"/>
			<point x="199" y="501" type="curve" smooth="yes"/>
			<point x="139" y="501"/>
			<point x="86" y="483"/>
			<point x="43" y="451" type="curve"/>
			<point x="80" y="390" type="line"/>
			<point x="117" y="414"/>
			<point x="151" y="423"/>
			<point x="193" y="423" type="curve" smooth="yes"/>
			<point x="242" y="423"/>
			<point x="277" y="400"/>
			<point x="277" y="359" type="curve" smooth="yes"/>
			<point x="277" y="317"/>
			<point x="245" y="290"/>
			<point x="176" y="290" type="curve" smooth="yes"/>
			<point x="123" y="290" type="line"/>
			<point x="123" y="215" type="line"/>
			<point x="191" y="215" type="line" smooth="yes"/>
			<point x="265" y="215"/>
			<point x="302" y="190"/>
			<point x="302" y="144" type="curve" smooth="yes"/>
			<point x="302" y="97"/>
			<point x="256" y="66"/>
			<point x="186" y="66" type="curve" smooth="yes"/>
			<point x="144" y="66"/>
			<point x="106" y="77"/>
			<point x="64" y="105" type="curve"/>
			<point x="29" y="45" type="line"/>
			<point x="79" y="4"/>
			<point x="132" y="-12"/>
		</contour>
	</outline>
	<anchor name="aboveLC" x="212" y="512"/>
	<anchor name="belowLC" x="214" y="-22"/>
</glyph>
<glyph name="eopenreversedrhotic" format="2">
	<unicode hex="025D"/>
	<advance width="590"/>
	<outline>
		<contour>
			<point x="202" y="-12" type="curve" smooth="yes"/>
			<point x="310" y="-12"/>
			<point x="401" y="43"/>
			<point x="401" y="133" type="curve" smooth="yes"/>
			<point x="401" y="204"/>
			<point x="351" y="242"/>
			<point x="294" y="257" type="curve"/>
			<point x="294" y="261" type="line"/>
			<point x="434" y="325" type="line"/>
			<point x="434" y="310" type="line" smooth="yes"/>
			<point x="434" y="225"/>
			<point x="478" y="194"/>
			<point x="529" y="194" type="curve" smooth="yes"/>
			<point x="564" y="194"/>
			<point x="587" y="206"/>
			<point x="605" y="218" type="curve"/>
			<point x="580" y="268" type="line"/>
			<point x="571" y="261"/>
			<point x="558" y="255"/>
			<point x="541" y="255" type="curve" smooth="yes"/>
			<point x="508" y="255"/>
			<point x="489" y="278"/>
			<point x="489" y="352" type="curve" smooth="yes"/>
			<point x="489" y="368"/>
			<point x="489" y="383"/>
			<point x="491" y="406" type="curve"/>
			<point x="480" y="414" type="line"/>
			<point x="337" y="350" type="line"/>
			<point x="343" y="291" type="line"/>
			<point x="364" y="313"/>
			<point x="373" y="339"/>
			<point x="373" y="368" type="curve" smooth="yes"/>
			<point x="373" y="457"/>
			<point x="295" y="501"/>
			<point x="199" y="501" type="curve" smooth="yes"/>
			<point x="138" y="501"/>
			<point x="86" y="484"/>
			<point x="43" y="452" type="curve"/>
			<point x="80" y="391" type="line"/>
			<point x="117" y="415"/>
			<point x="150" y="423"/>
			<point x="193" y="423" type="curve" smooth="yes"/>
			<point x="242" y="423"/>
			<point x="277" y="399"/>
			<point x="277" y="357" type="curve" smooth="yes"/>
			<point x="277" y="315"/>
			<point x="245" y="287"/>
			<point x="176" y="287" type="curve" smooth="yes"/>
			<point x="123" y="287" type="line"/>
			<point x="123" y="219" type="line"/>
			<point x="191" y="219" type="line" smooth="yes"/>
			<point x="264" y="219"/>
			<point x="302" y="192"/>
			<point x="302" y="146" type="curve" smooth="yes"/>
			<point x="302" y="96"/>
			<point x="256" y="66"/>
			<point x="185" y="66" type="curve" smooth="yes"/>
			<point x="144" y="66"/>
			<point x="105" y="76"/>
			<point x="64" y="104" type="curve"/>
			<point x="28" y="45" type="line"/>
			<point x="78" y="3"/>
			<point x="131" y="-12"/>
		</contour>
	</outline>
	<anchor name="aboveLC" x="211" y="512"/>
	<anchor name="belowLC" x="213" y="-22"/>
</glyph>
<glyph name="dotlessjstroke" format="2">
	<unicode hex="025F"/>
	<advance width="305"/>
	<outline>
		<contour>
			<point x="22" y="215" type="line"/>
			<point x="281" y="215" type="line"/>
			<point x="281" y="292" type="line"/>
			<point x="103" y="292" type="line"/>
			<point x="22" y="286" type="line"/>
		</contour>
		<component base="dotlessj" xOffset="25"/>
	</outline>
	<anchor name="aboveLC" x="153" y="512"/>
	<anchor name="belowLC" x="94" y="-203"/>
</glyph>
<glyph name="ghook" format="2">
	<unicode hex="0260"/>
	<advance width="559"/>
	<outline>
		<contour>
			<point x="257" y="-216" type="curve" smooth="yes"/>
			<point x="400" y="-216"/>
			<point x="482" y="-140"/>
			<point x="482" y="-12" type="curve" smooth="yes"/>
			<point x="482" y="533" type="line" smooth="yes"/>
			<point x="482" y="586"/>
			<point x="495" y="641"/>
			<point x="532" y="641" type="curve" smooth="yes"/>
			<point x="548" y="641"/>
			<point x="558" y="638"/>
			<point x="567" y="634" type="curve"/>
			<point x="586" y="709" type="line"/>
			<point x="571" y="715"/>
			<point x="550" y="721"/>
			<point x="527" y="721" type="curve" smooth="yes"/>
			<point x="428" y="721"/>
			<point x="385" y="656"/>
			<point x="385" y="570" type="curve"/>
			<point x="386" y="446" type="line"/>
			<point x="346" y="480"/>
			<point x="309" y="501"/>
			<point x="256" y="501" type="curve" smooth="yes"/>
			<point x="147" y="501"/>
			<point x="45" y="404"/>
			<point x="45" y="252" type="curve" smooth="yes"/>
			<point x="45" y="101"/>
			<point x="124" y="7"/>
			<point x="246" y="7" type="curve" smooth="yes"/>
			<point x="301" y="7"/>
			<point x="349" y="34"/>
			<point x="385" y="68" type="curve"/>
			<point x="383" y="-16" type="line" smooth="yes"/>
			<point x="381" y="-89"/>
			<point x="342" y="-137"/>
			<point x="257" y="-137" type="curve" smooth="yes"/>
			<point x="212" y="-137"/>
			<point x="162" y="-124"/>
			<point x="115" y="-94" type="curve"/>
			<point x="79" y="-162" type="line"/>
			<point x="132" y="-197"/>
			<point x="198" y="-216"/>
		</contour>
		<contour>
			<point x="270" y="88" type="curve" smooth="yes"/>
			<point x="192" y="88"/>
			<point x="146" y="151"/>
			<point x="146" y="253" type="curve" smooth="yes"/>
			<point x="146" y="352"/>
			<point x="203" y="418"/>
			<point x="274" y="418" type="curve" smooth="yes"/>
			<point x="310" y="418"/>
			<point x="345" y="406"/>
			<point x="383" y="373" type="curve"/>
			<point x="383" y="150" type="line"/>
			<point x="345" y="108"/>
			<point x="311" y="88"/>
		</contour>
	</outline>
	<anchor name="aboveLC" x="245" y="512"/>
	<anchor name="belowLC" x="285" y="-203"/>
</glyph>
<glyph name="gammalatin" format="2">
	<unicode hex="0263"/>
	<advance width="481"/>
	<outline>
		<contour>
			<point x="243" y="-220" type="curve" smooth="yes"/>
			<point x="321" y="-220"/>
			<point x="368" y="-171"/>
			<point x="368" y="-99" type="curve" smooth="yes"/>
			<point x="368" y="-48"/>
			<point x="343" y="0"/>
			<point x="295" y="86" type="curve"/>
			<point x="295" y="35" type="line"/>
			<point x="469" y="489" type="line"/>
			<point x="373" y="489" type="line"/>
			<point x="288" y="243" type="line"/>
			<point x="274" y="199"/>
			<point x="259" y="165"/>
			<point x="245" y="120" type="curve"/>
			<point x="241" y="120" type="line"/>
			<point x="227" y="165"/>
			<point x="212" y="199"/>
			<point x="198" y="243" type="curve"/>
			<point x="113" y="489" type="line"/>
			<point x="12" y="489" type="line"/>
			<point x="190" y="35" type="line"/>
			<point x="190" y="87" type="line"/>
			<point x="143" y="1"/>
			<point x="118" y="-48"/>
			<point x="118" y="-99" type="curve" smooth="yes"/>
			<point x="118" y="-171"/>
			<point x="165" y="-220"/>
		</contour>
		<contour>
			<point x="243" y="-154" type="curve" smooth="yes"/>
			<point x="216" y="-154"/>
			<point x="202" y="-133"/>
			<point x="202" y="-104" type="curve" smooth="yes"/>
			<point x="202" y="-70"/>
			<point x="215" y="-32"/>
			<point x="240" y="16" type="curve"/>
			<point x="245" y="16" type="line"/>
			<point x="271" y="-32"/>
			<point x="284" y="-70"/>
			<point x="284" y="-104" type="curve" smooth="yes"/>
			<point x="284" y="-133"/>
			<point x="270" y="-154"/>
		</contour>
	</outline>
	<anchor name="aboveLC" x="239" y="512"/>
	<anchor name="belowLC" x="239" y="-208"/>
</glyph>
<glyph name="ramshorn" format="2">
	<unicode hex="0264"/>
	<advance width="526"/>
	<outline>
		<contour>
			<point x="263" y="-12" type="curve" smooth="yes"/>
			<point x="377" y="-12"/>
			<point x="442" y="54"/>
			<point x="442" y="154" type="curve" smooth="yes"/>
			<point x="442" y="219"/>
			<point x="396" y="295"/>
			<point x="326" y="359" type="curve"/>
			<point x="361" y="396"/>
			<point x="395" y="419"/>
			<point x="433" y="419" type="curve" smooth="yes"/>
			<point x="451" y="419"/>
			<point x="467" y="415"/>
			<point x="480" y="406" type="curve"/>
			<point x="510" y="477" type="line"/>
			<point x="491" y="491"/>
			<point x="460" y="501"/>
			<point x="430" y="501" type="curve" smooth="yes"/>
			<point x="378" y="501"/>
			<point x="321" y="471"/>
			<point x="263" y="415" type="curve"/>
			<point x="204" y="471"/>
			<point x="149" y="501"/>
			<point x="97" y="501" type="curve" smooth="yes"/>
			<point x="67" y="501"/>
			<point x="35" y="491"/>
			<point x="16" y="477" type="curve"/>
			<point x="46" y="406" type="line"/>
			<point x="59" y="415"/>
			<point x="75" y="419"/>
			<point x="93" y="419" type="curve" smooth="yes"/>
			<point x="130" y="419"/>
			<point x="165" y="396"/>
			<point x="200" y="359" type="curve"/>
			<point x="129" y="295"/>
			<point x="84" y="219"/>
			<point x="84" y="154" type="curve" smooth="yes"/>
			<point x="84" y="54"/>
			<point x="149" y="-12"/>
		</contour>
		<contour>
			<point x="263" y="66" type="curve" smooth="yes"/>
			<point x="206" y="66"/>
			<point x="178" y="106"/>
			<point x="178" y="158" type="curve" smooth="yes"/>
			<point x="178" y="210"/>
			<point x="215" y="268"/>
			<point x="263" y="313" type="curve"/>
			<point x="312" y="268"/>
			<point x="348" y="210"/>
			<point x="348" y="158" type="curve" smooth="yes"/>
			<point x="348" y="106"/>
			<point x="320" y="66"/>
		</contour>
	</outline>
	<anchor name="aboveLC" x="264" y="512"/>
	<anchor name="belowLC" x="264" y="-22"/>
</glyph>
<glyph name="hturned" format="2">
	<unicode hex="0265"/>
	<advance width="553"/>
	<outline>
		<contour>
			<point x="377" y="-200" type="line"/>
			<point x="476" y="-200" type="line"/>
			<point x="476" y="489" type="line"/>
			<point x="377" y="489" type="line"/>
			<point x="377" y="148" type="line"/>
			<point x="334" y="95"/>
			<point x="301" y="73"/>
			<point x="254" y="73" type="curve" smooth="yes"/>
			<point x="196" y="73"/>
			<point x="170" y="108"/>
			<point x="170" y="193" type="curve" smooth="yes"/>
			<point x="170" y="489" type="line"/>
			<point x="71" y="489" type="line"/>
			<point x="71" y="181" type="line" smooth="yes"/>
			<point x="71" y="57"/>
			<point x="117" y="-12"/>
			<point x="221" y="-12" type="curve" smooth="yes"/>
			<point x="288" y="-12"/>
			<point x="337" y="22"/>
			<point x="382" y="71" type="curve"/>
			<point x="377" y="-32" type="line"/>
		</contour>
	</outline>
	<anchor name="aboveLC" x="275" y="512"/>
	<anchor name="belowLC" x="265" y="-203"/>
</glyph>
<glyph name="henghook" format="2">
	<unicode hex="0267"/>
	<advance width="551"/>
	<outline>
		<contour>
			<point x="337" y="-212" type="curve" smooth="yes"/>
			<point x="444" y="-212"/>
			<point x="482" y="-142"/>
			<point x="482" y="-40" type="curve" smooth="yes"/>
			<point x="482" y="298" type="line" smooth="yes"/>
			<point x="482" y="422"/>
			<point x="436" y="491"/>
			<point x="332" y="491" type="curve" smooth="yes"/>
			<point x="265" y="491"/>
			<point x="216" y="455"/>
			<point x="173" y="414" type="curve"/>
			<point x="176" y="528" type="line" smooth="yes"/>
			<point x="178" y="601"/>
			<point x="207" y="642"/>
			<point x="267" y="642" type="curve" smooth="yes"/>
			<point x="284" y="642"/>
			<point x="303" y="638"/>
			<point x="321" y="630" type="curve"/>
			<point x="342" y="704" type="line"/>
			<point x="320" y="713"/>
			<point x="288" y="721"/>
			<point x="255" y="721" type="curve" smooth="yes"/>
			<point x="133" y="721"/>
			<point x="78" y="639"/>
			<point x="78" y="527" type="curve" smooth="yes"/>
			<point x="78" y="0" type="line"/>
			<point x="177" y="0" type="line"/>
			<point x="177" y="338" type="line"/>
			<point x="221" y="382"/>
			<point x="252" y="406"/>
			<point x="299" y="406" type="curve" smooth="yes"/>
			<point x="357" y="406"/>
			<point x="383" y="371"/>
			<point x="383" y="286" type="curve" smooth="yes"/>
			<point x="383" y="-41" type="line"/>
			<point x="383" y="-99"/>
			<point x="371" y="-132"/>
			<point x="325" y="-132" type="curve" smooth="yes"/>
			<point x="308" y="-132"/>
			<point x="293" y="-128"/>
			<point x="280" y="-124" type="curve"/>
			<point x="262" y="-199" type="line"/>
			<point x="279" y="-206"/>
			<point x="304" y="-212"/>
		</contour>
	</outline>
	<anchor name="aboveUC" x="299" y="727"/>
	<anchor name="belowLC" x="280" y="-203"/>
</glyph>
<glyph name="iotalatin" format="2">
	<unicode hex="0269"/>
	<advance width="263"/>
	<outline>
		<contour>
			<point x="177" y="-10" type="curve" smooth="yes"/>
			<point x="201" y="-10"/>
			<point x="220" y="-5"/>
			<point x="231" y="0" type="curve"/>
			<point x="218" y="74" type="line"/>
			<point x="210" y="72"/>
			<point x="206" y="72"/>
			<point x="201" y="72" type="curve" smooth="yes"/>
			<point x="188" y="72"/>
			<point x="177" y="82"/>
			<point x="177" y="108" type="curve" smooth="yes"/>
			<point x="177" y="489" type="line"/>
			<point x="78" y="489" type="line"/>
			<point x="78" y="114" type="line" smooth="yes"/>
			<point x="78" y="36"/>
			<point x="105" y="-10"/>
		</contour>
	</outline>
	<anchor name="aboveLC" x="129" y="512"/>
	<anchor name="belowLC" x="149" y="-22"/>
</glyph>
<glyph name="ismall" format="2">
	<unicode hex="026A"/>
	<advance width="355"/>
	<outline>
		<contour>
			<point x="48" y="0" type="line"/>
			<point x="308" y="0" type="line"/>
			<point x="308" y="80" type="line"/>
			<point x="227" y="80" type="line"/>
			<point x="227" y="409" type="line"/>
			<point x="308" y="409" type="line"/>
			<point x="308" y="489" type="line"/>
			<point x="48" y="489" type="line"/>
			<point x="48" y="409" type="line"/>
			<point x="128" y="409" type="line"/>
			<point x="128" y="80" type="line"/>
			<point x="48" y="80" type="line"/>
		</contour>
	</outline>
	<anchor name="aboveLC" x="179" y="512"/>
	<anchor name="belowLC" x="179" y="-22"/>
	<anchor name="ogonekLC" x="179" y="0"/>
</glyph>
<glyph name="lbelt" format="2">
	<unicode hex="026C"/>
	<advance width="362"/>
	<outline>
		<contour>
			<point x="132" y="305" type="curve" smooth="yes"/>
			<point x="354" y="305" type="line"/>
			<point x="354" y="382" type="line"/>
			<point x="121" y="382" type="line" smooth="yes"/>
			<point x="81" y="382"/>
			<point x="62" y="397"/>
			<point x="62" y="418" type="curve" smooth="yes"/>
			<point x="62" y="434"/>
			<point x="73" y="447"/>
			<point x="95" y="447" type="curve" smooth="yes"/>
			<point x="125" y="447"/>
			<point x="143" y="423"/>
			<point x="143" y="387" type="curve"/>
			<point x="189" y="374" type="line"/>
			<point x="189" y="438"/>
			<point x="154" y="501"/>
			<point x="85" y="501" type="curve" smooth="yes"/>
			<point x="34" y="501"/>
			<point x="-4" y="465"/>
			<point x="-4" y="413" type="curve" smooth="yes"/>
			<point x="-4" y="352"/>
			<point x="38" y="305"/>
		</contour>
		<component base="l.a" xOffset="66"/>
	</outline>
	<anchor name="aboveUC" x="198" y="727"/>
	<anchor name="belowLC" x="198" y="-22"/>
</glyph>
<glyph name="lretroflex" format="2">
	<unicode hex="026D"/>
	<advance width="263"/>
	<outline>
		<contour>
			<point x="212" y="-212" type="curve" smooth="yes"/>
			<point x="240" y="-212"/>
			<point x="263" y="-206"/>
			<point x="278" y="-199" type="curve"/>
			<point x="259" y="-125" type="line"/>
			<point x="249" y="-129"/>
			<point x="237" y="-132"/>
			<point x="225" y="-132" type="curve" smooth="yes"/>
			<point x="188" y="-132"/>
			<point x="177" y="-102"/>
			<point x="177" y="-49" type="curve" smooth="yes"/>
			<point x="177" y="709" type="line"/>
			<point x="78" y="709" type="line"/>
			<point x="78" y="-48" type="line" smooth="yes"/>
			<point x="78" y="-146"/>
			<point x="112" y="-212"/>
		</contour>
	</outline>
	<anchor name="aboveUC" x="129" y="727"/>
	<anchor name="belowLC" x="175" y="-203"/>
</glyph>
<glyph name="mturned" format="2">
	<unicode hex="026F"/>
	<advance width="836"/>
	<outline>
		<contour>
			<point x="223" y="-12" type="curve" smooth="yes"/>
			<point x="284" y="-12"/>
			<point x="334" y="26"/>
			<point x="382" y="78" type="curve"/>
			<point x="404" y="22"/>
			<point x="444" y="-12"/>
			<point x="517" y="-12" type="curve" smooth="yes"/>
			<point x="577" y="-12"/>
			<point x="626" y="24"/>
			<point x="668" y="69" type="curve"/>
			<point x="671" y="69" type="line"/>
			<point x="679" y="0" type="line"/>
			<point x="761" y="0" type="line"/>
			<point x="761" y="489" type="line"/>
			<point x="662" y="489" type="line"/>
			<point x="662" y="141" type="line"/>
			<point x="620" y="96"/>
			<point x="583" y="73"/>
			<point x="549" y="73" type="curve" smooth="yes"/>
			<point x="493" y="73"/>
			<point x="466" y="108"/>
			<point x="466" y="193" type="curve" smooth="yes"/>
			<point x="466" y="489" type="line"/>
			<point x="367" y="489" type="line"/>
			<point x="367" y="141" type="line"/>
			<point x="326" y="96"/>
			<point x="290" y="73"/>
			<point x="255" y="73" type="curve" smooth="yes"/>
			<point x="199" y="73"/>
			<point x="172" y="108"/>
			<point x="172" y="193" type="curve" smooth="yes"/>
			<point x="172" y="489" type="line"/>
			<point x="73" y="489" type="line"/>
			<point x="73" y="181" type="line" smooth="yes"/>
			<point x="73" y="57"/>
			<point x="121" y="-12"/>
		</contour>
	</outline>
	<anchor name="aboveLC" x="424" y="512"/>
	<anchor name="belowLC" x="429" y="-22"/>
</glyph>
<glyph name="mlonglegturned" format="2">
	<unicode hex="0270"/>
	<advance width="836"/>
	<outline>
		<contour>
			<point x="662" y="-200" type="line"/>
			<point x="761" y="-200" type="line"/>
			<point x="761" y="489" type="line"/>
			<point x="662" y="489" type="line"/>
			<point x="662" y="141" type="line"/>
			<point x="620" y="96"/>
			<point x="583" y="73"/>
			<point x="549" y="73" type="curve" smooth="yes"/>
			<point x="493" y="73"/>
			<point x="466" y="108"/>
			<point x="466" y="193" type="curve" smooth="yes"/>
			<point x="466" y="489" type="line"/>
			<point x="367" y="489" type="line"/>
			<point x="367" y="141" type="line"/>
			<point x="326" y="96"/>
			<point x="290" y="73"/>
			<point x="255" y="73" type="curve" smooth="yes"/>
			<point x="199" y="73"/>
			<point x="172" y="108"/>
			<point x="172" y="193" type="curve" smooth="yes"/>
			<point x="172" y="489" type="line"/>
			<point x="73" y="489" type="line"/>
			<point x="73" y="181" type="line" smooth="yes"/>
			<point x="73" y="57"/>
			<point x="121" y="-12"/>
			<point x="223" y="-12" type="curve" smooth="yes"/>
			<point x="284" y="-12"/>
			<point x="334" y="26"/>
			<point x="382" y="78" type="curve"/>
			<point x="404" y="22"/>
			<point x="444" y="-12"/>
			<point x="517" y="-12" type="curve" smooth="yes"/>
			<point x="573" y="-12"/>
			<point x="620" y="18"/>
			<point x="666" y="68" type="curve"/>
			<point x="662" y="-32" type="line"/>
		</contour>
	</outline>
	<anchor name="aboveLC" x="424" y="512"/>
	<anchor name="belowLC" x="416" y="-22"/>
</glyph>
<glyph name="mhook" format="2">
	<unicode hex="0271"/>
	<advance width="836"/>
	<outline>
		<contour>
			<point x="625" y="-212" type="curve" smooth="yes"/>
			<point x="728" y="-212"/>
			<point x="765" y="-142"/>
			<point x="765" y="-40" type="curve" smooth="yes"/>
			<point x="765" y="308" type="line" smooth="yes"/>
			<point x="765" y="432"/>
			<point x="717" y="501"/>
			<point x="615" y="501" type="curve" smooth="yes"/>
			<point x="554" y="501"/>
			<point x="504" y="463"/>
			<point x="456" y="410" type="curve"/>
			<point x="434" y="467"/>
			<point x="394" y="501"/>
			<point x="321" y="501" type="curve" smooth="yes"/>
			<point x="261" y="501"/>
			<point x="212" y="465"/>
			<point x="170" y="420" type="curve"/>
			<point x="167" y="420" type="line"/>
			<point x="159" y="489" type="line"/>
			<point x="78" y="489" type="line"/>
			<point x="78" y="0" type="line"/>
			<point x="177" y="0" type="line"/>
			<point x="177" y="348" type="line"/>
			<point x="218" y="393"/>
			<point x="255" y="415"/>
			<point x="289" y="415" type="curve" smooth="yes"/>
			<point x="345" y="415"/>
			<point x="372" y="381"/>
			<point x="372" y="295" type="curve" smooth="yes"/>
			<point x="372" y="0" type="line"/>
			<point x="471" y="0" type="line"/>
			<point x="471" y="348" type="line"/>
			<point x="512" y="393"/>
			<point x="548" y="415"/>
			<point x="583" y="415" type="curve" smooth="yes"/>
			<point x="639" y="415"/>
			<point x="666" y="381"/>
			<point x="666" y="295" type="curve" smooth="yes"/>
			<point x="666" y="-41" type="line" smooth="yes"/>
			<point x="666" y="-99"/>
			<point x="656" y="-132"/>
			<point x="612" y="-132" type="curve" smooth="yes"/>
			<point x="598" y="-132"/>
			<point x="584" y="-128"/>
			<point x="573" y="-124" type="curve"/>
			<point x="554" y="-199" type="line"/>
			<point x="571" y="-206"/>
			<point x="595" y="-212"/>
		</contour>
	</outline>
	<anchor name="aboveLC" x="429" y="512"/>
	<anchor name="belowLC" x="425" y="-203"/>
</glyph>
<glyph name="nhookleft" format="2">
	<unicode hex="0272"/>
	<advance width="553"/>
	<outline>
		<contour>
			<point x="42" y="-212" type="curve" smooth="yes"/>
			<point x="142" y="-212"/>
			<point x="177" y="-146"/>
			<point x="177" y="-48" type="curve" smooth="yes"/>
			<point x="177" y="348" type="line"/>
			<point x="221" y="392"/>
			<point x="252" y="415"/>
			<point x="299" y="415" type="curve" smooth="yes"/>
			<point x="357" y="415"/>
			<point x="383" y="381"/>
			<point x="383" y="295" type="curve" smooth="yes"/>
			<point x="383" y="0" type="line"/>
			<point x="482" y="0" type="line"/>
			<point x="482" y="308" type="line" smooth="yes"/>
			<point x="482" y="432"/>
			<point x="436" y="501"/>
			<point x="332" y="501" type="curve" smooth="yes"/>
			<point x="265" y="501"/>
			<point x="215" y="465"/>
			<point x="170" y="420" type="curve"/>
			<point x="167" y="420" type="line"/>
			<point x="161" y="489" type="line"/>
			<point x="78" y="489" type="line"/>
			<point x="78" y="-49" type="line" smooth="yes"/>
			<point x="78" y="-102"/>
			<point x="66" y="-132"/>
			<point x="29" y="-132" type="curve" smooth="yes"/>
			<point x="17" y="-132"/>
			<point x="5" y="-128"/>
			<point x="-5" y="-124" type="curve"/>
			<point x="-24" y="-199" type="line"/>
			<point x="-9" y="-206"/>
			<point x="14" y="-212"/>
		</contour>
	</outline>
	<anchor name="aboveLC" x="299" y="512"/>
	<anchor name="belowLC" x="280" y="-203"/>
</glyph>
<glyph name="obar" format="2">
	<unicode hex="0275"/>
	<advance width="546"/>
	<outline>
		<contour>
			<point x="272" y="-12" type="curve" smooth="yes"/>
			<point x="397" y="-12"/>
			<point x="502" y="76"/>
			<point x="502" y="244" type="curve" smooth="yes"/>
			<point x="502" y="414"/>
			<point x="397" y="501"/>
			<point x="272" y="501" type="curve" smooth="yes"/>
			<point x="150" y="501"/>
			<point x="44" y="414"/>
			<point x="44" y="244" type="curve" smooth="yes"/>
			<point x="44" y="76"/>
			<point x="150" y="-12"/>
		</contour>
		<contour>
			<point x="272" y="68" type="curve" smooth="yes"/>
			<point x="191" y="68"/>
			<point x="137" y="132"/>
			<point x="137" y="244" type="curve" smooth="yes"/>
			<point x="137" y="355"/>
			<point x="191" y="422"/>
			<point x="272" y="422" type="curve" smooth="yes"/>
			<point x="355" y="422"/>
			<point x="409" y="355"/>
			<point x="409" y="244" type="curve" smooth="yes"/>
			<point x="409" y="132"/>
			<point x="355" y="68"/>
		</contour>
		<contour>
			<point x="117" y="215" type="line"/>
			<point x="425" y="215" type="line"/>
			<point x="425" y="292" type="line"/>
			<point x="117" y="292" type="line"/>
		</contour>
	</outline>
	<anchor name="aboveLC" x="272" y="512"/>
	<anchor name="belowLC" x="272" y="-22"/>
	<anchor name="ogonekLC" x="272" y="0"/>
</glyph>
<glyph name="oesmall" format="2">
	<unicode hex="0276"/>
	<advance width="707"/>
	<outline>
		<contour>
			<point x="287" y="-12" type="curve" smooth="yes"/>
			<point x="323" y="-12"/>
			<point x="352" y="-10"/>
			<point x="394" y="0" type="curve"/>
			<point x="685" y="0" type="line"/>
			<point x="685" y="75" type="line"/>
			<point x="453" y="75" type="line"/>
			<point x="453" y="215" type="line"/>
			<point x="639" y="215" type="line"/>
			<point x="639" y="290" type="line"/>
			<point x="453" y="290" type="line"/>
			<point x="453" y="413" type="line"/>
			<point x="675" y="413" type="line"/>
			<point x="675" y="489" type="line"/>
			<point x="394" y="489" type="line"/>
			<point x="352" y="498"/>
			<point x="323" y="501"/>
			<point x="287" y="501" type="curve" smooth="yes"/>
			<point x="155" y="501"/>
			<point x="43" y="413"/>
			<point x="43" y="245" type="curve" smooth="yes"/>
			<point x="43" y="75"/>
			<point x="156" y="-12"/>
		</contour>
		<contour>
			<point x="292" y="68" type="curve" smooth="yes"/>
			<point x="212" y="68"/>
			<point x="146" y="122"/>
			<point x="146" y="245" type="curve" smooth="yes"/>
			<point x="146" y="365"/>
			<point x="212" y="420"/>
			<point x="292" y="420" type="curve" smooth="yes"/>
			<point x="312" y="420"/>
			<point x="334" y="417"/>
			<point x="353" y="410" type="curve"/>
			<point x="353" y="77" type="line"/>
			<point x="334" y="71"/>
			<point x="312" y="68"/>
		</contour>
	</outline>
	<anchor name="aboveLC" x="415" y="512"/>
	<anchor name="belowLC" x="435" y="-22"/>
</glyph>
<glyph name="philatin" format="2">
	<unicode hex="0278"/>
	<advance width="695"/>
	<outline>
		<contour>
			<point x="302" y="-200" type="line"/>
			<point x="393" y="-200" type="line"/>
			<point x="393" y="709" type="line"/>
			<point x="302" y="709" type="line"/>
		</contour>
		<contour>
			<point x="313" y="-9" type="curve"/>
			<point x="308" y="67" type="line"/>
			<point x="217" y="68"/>
			<point x="145" y="133"/>
			<point x="145" y="245" type="curve" smooth="yes"/>
			<point x="145" y="357"/>
			<point x="217" y="421"/>
			<point x="308" y="422" type="curve"/>
			<point x="313" y="498" type="line"/>
			<point x="171" y="497"/>
			<point x="43" y="408"/>
			<point x="43" y="245" type="curve" smooth="yes"/>
			<point x="43" y="82"/>
			<point x="171" y="-8"/>
		</contour>
		<contour>
			<point x="382" y="-9" type="line"/>
			<point x="524" y="-8"/>
			<point x="652" y="82"/>
			<point x="652" y="245" type="curve" smooth="yes"/>
			<point x="652" y="408"/>
			<point x="528" y="497"/>
			<point x="382" y="498" type="curve"/>
			<point x="387" y="422" type="line"/>
			<point x="483" y="421"/>
			<point x="550" y="357"/>
			<point x="550" y="245" type="curve" smooth="yes"/>
			<point x="550" y="133"/>
			<point x="478" y="68"/>
			<point x="387" y="67" type="curve"/>
		</contour>
	</outline>
	<anchor name="aboveUC" x="349" y="727"/>
	<anchor name="belowLC" x="349" y="-203"/>
</glyph>
<glyph name="rlonglegturned" format="2">
	<unicode hex="027A"/>
	<advance width="360"/>
	<outline>
		<contour>
			<point x="52" y="-12" type="curve" smooth="yes"/>
			<point x="106" y="-12"/>
			<point x="157" y="25"/>
			<point x="191" y="88" type="curve"/>
			<point x="194" y="88" type="line"/>
			<point x="201" y="0" type="line"/>
			<point x="283" y="0" type="line"/>
			<point x="283" y="709" type="line"/>
			<point x="184" y="709" type="line"/>
			<point x="184" y="183" type="line"/>
			<point x="153" y="104"/>
			<point x="105" y="76"/>
			<point x="64" y="76" type="curve" smooth="yes"/>
			<point x="45" y="76"/>
			<point x="34" y="78"/>
			<point x="19" y="82" type="curve"/>
			<point x="-2" y="-2" type="line"/>
			<point x="13" y="-9"/>
			<point x="28" y="-12"/>
		</contour>
	</outline>
	<anchor name="aboveUC" x="229" y="727"/>
	<anchor name="belowLC" x="139" y="-22"/>
</glyph>
<glyph name="rfishhook" format="2">
	<unicode hex="027E"/>
	<advance width="344"/>
	<outline>
		<contour>
			<point x="76" y="0" type="line"/>
			<point x="175" y="0" type="line"/>
			<point x="175" y="291" type="line" smooth="yes"/>
			<point x="175" y="375"/>
			<point x="220" y="414"/>
			<point x="265" y="414" type="curve" smooth="yes"/>
			<point x="292" y="414"/>
			<point x="305" y="412"/>
			<point x="329" y="403" type="curve"/>
			<point x="346" y="487" type="line"/>
			<point x="324" y="496"/>
			<point x="293" y="501"/>
			<point x="253" y="501" type="curve" smooth="yes"/>
			<point x="138" y="501"/>
			<point x="76" y="425"/>
			<point x="76" y="311" type="curve" smooth="yes"/>
		</contour>
	</outline>
	<anchor name="aboveLC" x="224" y="512"/>
	<anchor name="belowLC" x="125" y="-22"/>
	<anchor name="center" x="140" y="215"/>
</glyph>
<glyph name="apicaldental" format="2">
	<unicode hex="027F"/>
	<advance width="278"/>
	<outline>
		<contour>
			<point x="107" y="-200" type="line"/>
			<point x="206" y="-200" type="line"/>
			<point x="206" y="329" type="line" smooth="yes"/>
			<point x="206" y="431"/>
			<point x="167" y="501"/>
			<point x="57" y="501" type="curve" smooth="yes"/>
			<point x="28" y="501"/>
			<point x="7" y="495"/>
			<point x="-9" y="488" type="curve"/>
			<point x="11" y="414" type="line"/>
			<point x="21" y="418"/>
			<point x="32" y="421"/>
			<point x="44" y="421" type="curve" smooth="yes"/>
			<point x="94" y="421"/>
			<point x="107" y="388"/>
			<point x="107" y="330" type="curve" smooth="yes"/>
		</contour>
	</outline>
	<anchor name="aboveLC" x="130" y="512"/>
	<anchor name="belowLC" x="154" y="-203"/>
</glyph>
<glyph name="shook" format="2">
	<unicode hex="0282"/>
	<advance width="425"/>
	<outline>
		<contour>
			<point x="161" y="-212" type="curve" smooth="yes"/>
			<point x="191" y="-212"/>
			<point x="215" y="-205"/>
			<point x="232" y="-199" type="curve"/>
			<point x="213" y="-126" type="line"/>
			<point x="200" y="-130"/>
			<point x="185" y="-134"/>
			<point x="169" y="-134" type="curve" smooth="yes"/>
			<point x="126" y="-134"/>
			<point x="110" y="-104"/>
			<point x="110" y="-39" type="curve" smooth="yes"/>
			<point x="110" y="39" type="line"/>
			<point x="89" y="12" type="line"/>
			<point x="134" y="-7"/>
			<point x="176" y="-12"/>
			<point x="210" y="-12" type="curve" smooth="yes"/>
			<point x="329" y="-12"/>
			<point x="394" y="55"/>
			<point x="394" y="137" type="curve" smooth="yes"/>
			<point x="394" y="229"/>
			<point x="318" y="259"/>
			<point x="250" y="284" type="curve" smooth="yes"/>
			<point x="196" y="305"/>
			<point x="147" y="321"/>
			<point x="147" y="363" type="curve" smooth="yes"/>
			<point x="147" y="397"/>
			<point x="173" y="425"/>
			<point x="228" y="425" type="curve" smooth="yes"/>
			<point x="269" y="425"/>
			<point x="304" y="407"/>
			<point x="338" y="382" type="curve"/>
			<point x="384" y="444" type="line"/>
			<point x="345" y="474"/>
			<point x="291" y="501"/>
			<point x="227" y="501" type="curve" smooth="yes"/>
			<point x="119" y="501"/>
			<point x="53" y="440"/>
			<point x="53" y="358" type="curve" smooth="yes"/>
			<point x="53" y="276"/>
			<point x="125" y="241"/>
			<point x="192" y="216" type="curve" smooth="yes"/>
			<point x="245" y="196"/>
			<point x="300" y="176"/>
			<point x="300" y="131" type="curve" smooth="yes"/>
			<point x="300" y="93"/>
			<point x="272" y="64"/>
			<point x="210" y="64" type="curve" smooth="yes"/>
			<point x="158" y="64"/>
			<point x="104" y="74"/>
			<point x="30" y="112" type="curve"/>
			<point x="26" y="110" type="line"/>
			<point x="26" y="-40" type="line" smooth="yes"/>
			<point x="26" y="-142"/>
			<point x="62" y="-212"/>
		</contour>
	</outline>
	<anchor name="aboveLC" x="219" y="512"/>
	<anchor name="belowLC" x="230" y="-207"/>
</glyph>
<glyph name="apicalretroflex" format="2">
	<unicode hex="0285"/>
	<advance width="293"/>
	<outline>
		<contour>
			<point x="242" y="-212" type="curve" smooth="yes"/>
			<point x="270" y="-212"/>
			<point x="293" y="-206"/>
			<point x="307" y="-199" type="curve"/>
			<point x="289" y="-125" type="line"/>
			<point x="279" y="-129"/>
			<point x="267" y="-132"/>
			<point x="254" y="-132" type="curve" smooth="yes"/>
			<point x="218" y="-132"/>
			<point x="206" y="-102"/>
			<point x="206" y="-49" type="curve" smooth="yes"/>
			<point x="206" y="329" type="line" smooth="yes"/>
			<point x="206" y="431"/>
			<point x="167" y="501"/>
			<point x="57" y="501" type="curve" smooth="yes"/>
			<point x="28" y="501"/>
			<point x="7" y="495"/>
			<point x="-9" y="488" type="curve"/>
			<point x="11" y="414" type="line"/>
			<point x="21" y="418"/>
			<point x="32" y="421"/>
			<point x="44" y="421" type="curve" smooth="yes"/>
			<point x="94" y="421"/>
			<point x="107" y="388"/>
			<point x="107" y="330" type="curve" smooth="yes"/>
			<point x="107" y="-48" type="line" smooth="yes"/>
			<point x="107" y="-146"/>
			<point x="142" y="-212"/>
		</contour>
	</outline>
	<anchor name="aboveLC" x="130" y="512"/>
	<anchor name="belowLC" x="205" y="-203"/>
</glyph>
<glyph name="ubar" format="2">
	<unicode hex="0289"/>
	<advance width="593"/>
	<outline>
		<contour>
			<point x="15" y="253" type="line"/>
			<point x="578" y="253" type="line"/>
			<point x="578" y="330" type="line"/>
			<point x="97" y="330" type="line"/>
			<point x="15" y="324" type="line"/>
		</contour>
		<component base="u" xOffset="25"/>
	</outline>
	<anchor name="aboveLC" x="299" y="512"/>
	<anchor name="baseLC" x="280" y="0"/>
	<anchor name="belowLC" x="300" y="-22"/>
	<anchor name="ogonekLC" x="424" y="0"/>
</glyph>
<glyph name="upsilonlatin" format="2">
	<unicode hex="028A"/>
	<advance width="551"/>
	<outline>
		<contour>
			<point x="276" y="-12" type="curve" smooth="yes"/>
			<point x="420" y="-12"/>
			<point x="502" y="96"/>
			<point x="502" y="207" type="curve" smooth="yes"/>
			<point x="502" y="301"/>
			<point x="460" y="368"/>
			<point x="420" y="407" type="curve"/>
			<point x="420" y="409" type="line"/>
			<point x="513" y="409" type="line"/>
			<point x="513" y="489" type="line"/>
			<point x="321" y="489" type="line"/>
			<point x="321" y="424" type="line"/>
			<point x="370" y="379"/>
			<point x="402" y="319"/>
			<point x="402" y="228" type="curve" smooth="yes"/>
			<point x="402" y="142"/>
			<point x="360" y="69"/>
			<point x="276" y="69" type="curve" smooth="yes"/>
			<point x="192" y="69"/>
			<point x="149" y="142"/>
			<point x="149" y="228" type="curve" smooth="yes"/>
			<point x="149" y="319"/>
			<point x="182" y="379"/>
			<point x="231" y="424" type="curve"/>
			<point x="231" y="489" type="line"/>
			<point x="38" y="489" type="line"/>
			<point x="38" y="409" type="line"/>
			<point x="132" y="409" type="line"/>
			<point x="132" y="407" type="line"/>
			<point x="91" y="368"/>
			<point x="49" y="301"/>
			<point x="49" y="207" type="curve" smooth="yes"/>
			<point x="49" y="96"/>
			<point x="132" y="-12"/>
		</contour>
	</outline>
	<anchor name="aboveLC" x="277" y="512"/>
	<anchor name="belowLC" x="277" y="-22"/>
	<anchor name="ogonekLC" x="277" y="0"/>
</glyph>
<glyph name="vhook" format="2">
	<unicode hex="028B"/>
	<advance width="535"/>
	<outline>
		<contour>
			<point x="265" y="-12" type="curve" smooth="yes"/>
			<point x="413" y="-12"/>
			<point x="489" y="114"/>
			<point x="489" y="290" type="curve" smooth="yes"/>
			<point x="489" y="435"/>
			<point x="427" y="501"/>
			<point x="336" y="501" type="curve" smooth="yes"/>
			<point x="310" y="501"/>
			<point x="292" y="499"/>
			<point x="275" y="493" type="curve"/>
			<point x="289" y="417" type="line"/>
			<point x="298" y="421"/>
			<point x="306" y="422"/>
			<point x="315" y="422" type="curve" smooth="yes"/>
			<point x="365" y="422"/>
			<point x="387" y="372"/>
			<point x="387" y="275" type="curve" smooth="yes"/>
			<point x="387" y="155"/>
			<point x="344" y="69"/>
			<point x="269" y="69" type="curve" smooth="yes"/>
			<point x="213" y="69"/>
			<point x="170" y="110"/>
			<point x="170" y="212" type="curve" smooth="yes"/>
			<point x="170" y="489" type="line"/>
			<point x="71" y="489" type="line"/>
			<point x="71" y="206" type="line" smooth="yes"/>
			<point x="71" y="57"/>
			<point x="151" y="-12"/>
		</contour>
	</outline>
	<anchor name="aboveLC" x="280" y="512"/>
	<anchor name="belowLC" x="270" y="-22"/>
</glyph>
<glyph name="yturned" format="2">
	<unicode hex="028E"/>
	<advance width="481"/>
	<outline>
		<contour>
			<point x="12" y="0" type="line"/>
			<point x="108" y="0" type="line"/>
			<point x="188" y="255" type="line" smooth="yes"/>
			<point x="201" y="299"/>
			<point x="214" y="348"/>
			<point x="227" y="393" type="curve"/>
			<point x="231" y="393" type="line"/>
			<point x="246" y="347"/>
			<point x="261" y="298"/>
			<point x="276" y="255" type="curve" smooth="yes"/>
			<point x="368" y="0" type="line"/>
			<point x="469" y="0" type="line"/>
			<point x="275" y="486" type="line"/>
			<point x="295" y="547" type="line" smooth="yes"/>
			<point x="314" y="601"/>
			<point x="346" y="641"/>
			<point x="399" y="641" type="curve" smooth="yes"/>
			<point x="411" y="641"/>
			<point x="426" y="637"/>
			<point x="435" y="634" type="curve"/>
			<point x="454" y="711" type="line"/>
			<point x="437" y="717"/>
			<point x="418" y="721"/>
			<point x="393" y="721" type="curve" smooth="yes"/>
			<point x="291" y="721"/>
			<point x="240" y="651"/>
			<point x="202" y="547" type="curve"/>
		</contour>
	</outline>
	<anchor name="aboveUC" x="259" y="727"/>
	<anchor name="belowLC" x="239" y="-22"/>
</glyph>
<glyph name="ysmall" format="2">
	<unicode hex="028F"/>
	<advance width="428"/>
	<outline>
		<contour>
			<point x="165" y="0" type="line"/>
			<point x="264" y="0" type="line"/>
			<point x="264" y="160" type="line"/>
			<point x="431" y="489" type="line"/>
			<point x="327" y="489" type="line"/>
			<point x="267" y="359" type="line"/>
			<point x="251" y="320"/>
			<point x="234" y="285"/>
			<point x="217" y="245" type="curve"/>
			<point x="213" y="245" type="line"/>
			<point x="196" y="285"/>
			<point x="179" y="320"/>
			<point x="163" y="359" type="curve"/>
			<point x="102" y="489" type="line"/>
			<point x="-3" y="489" type="line"/>
			<point x="165" y="160" type="line"/>
		</contour>
	</outline>
	<anchor name="aboveLC" x="214" y="512"/>
	<anchor name="belowLC" x="214" y="-22"/>
</glyph>
<glyph name="zretroflex" format="2">
	<unicode hex="0290"/>
	<advance width="434"/>
	<outline>
		<contour>
			<point x="436" y="-212" type="curve" smooth="yes"/>
			<point x="463" y="-212"/>
			<point x="485" y="-206"/>
			<point x="500" y="-199" type="curve"/>
			<point x="481" y="-124" type="line"/>
			<point x="471" y="-128"/>
			<point x="460" y="-132"/>
			<point x="447" y="-132" type="curve" smooth="yes"/>
			<point x="410" y="-132"/>
			<point x="399" y="-102"/>
			<point x="399" y="-49" type="curve" smooth="yes"/>
			<point x="399" y="80" type="line"/>
			<point x="157" y="80" type="line"/>
			<point x="401" y="436" type="line"/>
			<point x="401" y="489" type="line"/>
			<point x="60" y="489" type="line"/>
			<point x="60" y="409" type="line"/>
			<point x="276" y="409" type="line"/>
			<point x="33" y="53" type="line"/>
			<point x="33" y="0" type="line"/>
			<point x="309" y="0" type="line"/>
			<point x="309" y="-57" type="line" smooth="yes"/>
			<point x="309" y="-146"/>
			<point x="343" y="-212"/>
		</contour>
	</outline>
	<anchor name="aboveLC" x="235" y="512"/>
	<anchor name="belowLC" x="218" y="-151"/>
</glyph>
<glyph name="zcurl" format="2">
	<unicode hex="0291"/>
	<advance width="476"/>
	<outline>
		<contour>
			<point x="264" y="-82" type="line"/>
			<point x="299" y="90"/>
			<point x="344" y="160"/>
			<point x="387" y="160" type="curve" smooth="yes"/>
			<point x="407" y="160"/>
			<point x="417" y="148"/>
			<point x="417" y="130" type="curve" smooth="yes"/>
			<point x="417" y="103"/>
			<point x="391" y="77"/>
			<point x="342" y="77" type="curve" smooth="yes"/>
			<point x="279" y="77"/>
			<point x="216" y="78"/>
			<point x="153" y="81" type="curve"/>
			<point x="394" y="434" type="line"/>
			<point x="394" y="489" type="line"/>
			<point x="60" y="489" type="line"/>
			<point x="60" y="410" type="line"/>
			<point x="276" y="410" type="line"/>
			<point x="32" y="53" type="line"/>
			<point x="32" y="0" type="line"/>
			<point x="116" y="-3"/>
			<point x="234" y="-5"/>
			<point x="316" y="-5" type="curve" smooth="yes"/>
			<point x="432" y="-5"/>
			<point x="485" y="56"/>
			<point x="485" y="130" type="curve" smooth="yes"/>
			<point x="485" y="189"/>
			<point x="448" y="225"/>
			<point x="390" y="225" type="curve" smooth="yes"/>
			<point x="289" y="225"/>
			<point x="234" y="112"/>
			<point x="195" y="-71" type="curve"/>
		</contour>
	</outline>
	<anchor name="aboveLC" x="235" y="512"/>
	<anchor name="belowLC" x="239" y="-112"/>
</glyph>
<glyph name="ezh" format="2">
	<unicode hex="0292"/>
	<advance width="434"/>
	<outline>
		<contour>
			<point x="203" y="-212" type="curve" smooth="yes"/>
			<point x="314" y="-212"/>
			<point x="415" y="-132"/>
			<point x="415" y="10" type="curve" smooth="yes"/>
			<point x="415" y="124"/>
			<point x="339" y="206"/>
			<point x="215" y="197" type="curve"/>
			<point x="393" y="436" type="line"/>
			<point x="393" y="489" type="line"/>
			<point x="42" y="489" type="line"/>
			<point x="42" y="409" type="line"/>
			<point x="273" y="409" type="line"/>
			<point x="92" y="166" type="line"/>
			<point x="129" y="114" type="line"/>
			<point x="152" y="124"/>
			<point x="163" y="129"/>
			<point x="191" y="129" type="curve" smooth="yes"/>
			<point x="270" y="129"/>
			<point x="315" y="83"/>
			<point x="315" y="7" type="curve" smooth="yes"/>
			<point x="315" y="-77"/>
			<point x="261" y="-130"/>
			<point x="193" y="-130" type="curve" smooth="yes"/>
			<point x="128" y="-130"/>
			<point x="85" y="-102"/>
			<point x="51" y="-70" type="curve"/>
			<point x="4" y="-133" type="line"/>
			<point x="47" y="-174"/>
			<point x="107" y="-212"/>
		</contour>
	</outline>
	<anchor name="aboveLC" x="220" y="512"/>
	<anchor name="belowLC" x="205" y="-203"/>
</glyph>
<glyph name="glottalstopreversed" format="2">
	<unicode hex="0295"/>
	<advance width="425"/>
	<outline>
		<contour>
			<point x="185" y="0" type="line"/>
			<point x="284" y="0" type="line"/>
			<point x="284" y="327" type="line"/>
			<point x="168" y="392"/>
			<point x="119" y="444"/>
			<point x="119" y="523" type="curve" smooth="yes"/>
			<point x="119" y="595"/>
			<point x="164" y="640"/>
			<point x="241" y="640" type="curve" smooth="yes"/>
			<point x="300" y="640"/>
			<point x="341" y="609"/>
			<point x="375" y="574" type="curve"/>
			<point x="423" y="633" type="line"/>
			<point x="379" y="679"/>
			<point x="323" y="721"/>
			<point x="233" y="721" type="curve" smooth="yes"/>
			<point x="115" y="721"/>
			<point x="19" y="655"/>
			<point x="19" y="529" type="curve" smooth="yes"/>
			<point x="19" y="417"/>
			<point x="89" y="351"/>
			<point x="185" y="288" type="curve"/>
		</contour>
	</outline>
	<anchor name="aboveUC" x="209" y="727"/>
	<anchor name="belowLC" x="229" y="-22"/>
</glyph>
<glyph name="clickbilabial" format="2">
	<unicode hex="0298"/>
	<advance width="533"/>
	<outline>
		<contour>
			<point x="266" y="-12" type="curve" smooth="yes"/>
			<point x="395" y="-12"/>
			<point x="477" y="103"/>
			<point x="477" y="358" type="curve" smooth="yes"/>
			<point x="477" y="596"/>
			<point x="395" y="721"/>
			<point x="266" y="721" type="curve" smooth="yes"/>
			<point x="138" y="721"/>
			<point x="57" y="597"/>
			<point x="57" y="358" type="curve" smooth="yes"/>
			<point x="57" y="103"/>
			<point x="138" y="-12"/>
		</contour>
		<contour>
			<point x="266" y="71" type="curve" smooth="yes"/>
			<point x="202" y="71"/>
			<point x="149" y="145"/>
			<point x="149" y="358" type="curve" smooth="yes"/>
			<point x="149" y="555"/>
			<point x="202" y="638"/>
			<point x="266" y="638" type="curve" smooth="yes"/>
			<point x="333" y="638"/>
			<point x="385" y="555"/>
			<point x="385" y="358" type="curve" smooth="yes"/>
			<point x="385" y="145"/>
			<point x="333" y="71"/>
		</contour>
		<contour>
			<point x="266" y="292" type="curve" smooth="yes"/>
			<point x="303" y="292"/>
			<point x="330" y="319"/>
			<point x="330" y="358" type="curve" smooth="yes"/>
			<point x="330" y="396"/>
			<point x="303" y="423"/>
			<point x="266" y="423" type="curve" smooth="yes"/>
			<point x="231" y="423"/>
			<point x="203" y="396"/>
			<point x="203" y="358" type="curve" smooth="yes"/>
			<point x="203" y="319"/>
			<point x="231" y="292"/>
		</contour>
	</outline>
	<anchor name="aboveUC" x="266" y="727"/>
	<anchor name="belowLC" x="266" y="-22"/>
</glyph>
<glyph name="kturned" format="2">
	<unicode hex="029E"/>
	<advance width="509"/>
	<outline>
		<contour>
			<point x="334" y="-200" type="line"/>
			<point x="432" y="-200" type="line"/>
			<point x="432" y="489" type="line"/>
			<point x="334" y="489" type="line"/>
			<point x="334" y="359" type="line"/>
			<point x="8" y="0" type="line"/>
			<point x="122" y="0" type="line"/>
			<point x="330" y="240" type="line"/>
			<point x="334" y="240" type="line"/>
		</contour>
		<contour>
			<point x="210" y="206" type="line"/>
			<point x="272" y="264" type="line"/>
			<point x="130" y="489" type="line"/>
			<point x="27" y="489" type="line"/>
		</contour>
	</outline>
	<anchor name="aboveLC" x="249" y="512"/>
	<anchor name="belowLC" x="374" y="-211"/>
</glyph>
<glyph name="lsmall" format="2">
	<unicode hex="029F"/>
	<advance width="416"/>
	<outline>
		<contour>
			<point x="78" y="0" type="line"/>
			<point x="390" y="0" type="line"/>
			<point x="390" y="80" type="line"/>
			<point x="177" y="80" type="line"/>
			<point x="177" y="489" type="line"/>
			<point x="78" y="489" type="line"/>
		</contour>
	</outline>
	<anchor name="aboveLC" x="135" y="512"/>
	<anchor name="belowLC" x="240" y="-22"/>
</glyph>
<glyph name="glottalstopstroke" format="2">
	<unicode hex="02A1"/>
	<advance width="435"/>
	<outline>
		<contour>
			<point x="34" y="128" type="line"/>
			<point x="362" y="128" type="line"/>
			<point x="362" y="204" type="line"/>
			<point x="126" y="204" type="line"/>
			<point x="34" y="199" type="line"/>
		</contour>
		<component base="glottalstop" xOffset="10"/>
	</outline>
	<anchor name="aboveUC" x="215" y="727"/>
	<anchor name="belowLC" x="195" y="-22"/>
</glyph>
<glyph name="dzed" format="2">
	<unicode hex="02A3"/>
	<advance width="852"/>
	<outline>
		<contour>
			<point x="236" y="-12" type="curve" smooth="yes"/>
			<point x="288" y="-12"/>
			<point x="334" y="19"/>
			<point x="370" y="55" type="curve"/>
			<point x="373" y="55" type="line"/>
			<point x="381" y="0" type="line"/>
			<point x="462" y="0" type="line"/>
			<point x="462" y="709" type="line"/>
			<point x="363" y="709" type="line"/>
			<point x="363" y="527" type="line"/>
			<point x="367" y="446" type="line"/>
			<point x="328" y="478"/>
			<point x="296" y="501"/>
			<point x="244" y="501" type="curve" smooth="yes"/>
			<point x="140" y="501"/>
			<point x="45" y="403"/>
			<point x="45" y="244" type="curve" smooth="yes"/>
			<point x="45" y="82"/>
			<point x="120" y="-12"/>
		</contour>
		<contour>
			<point x="260" y="70" type="curve" smooth="yes"/>
			<point x="188" y="70"/>
			<point x="147" y="133"/>
			<point x="147" y="245" type="curve" smooth="yes"/>
			<point x="147" y="351"/>
			<point x="198" y="418"/>
			<point x="264" y="418" type="curve" smooth="yes"/>
			<point x="297" y="418"/>
			<point x="327" y="405"/>
			<point x="363" y="373" type="curve"/>
			<point x="363" y="131" type="line"/>
			<point x="328" y="91"/>
			<point x="297" y="70"/>
		</contour>
		<contour>
			<point x="510" y="0" type="line"/>
			<point x="827" y="0" type="line"/>
			<point x="827" y="80" type="line"/>
			<point x="623" y="80" type="line"/>
			<point x="819" y="436" type="line"/>
			<point x="819" y="489" type="line"/>
			<point x="452" y="489" type="line"/>
			<point x="452" y="409" type="line"/>
			<point x="706" y="409" type="line"/>
			<point x="510" y="53" type="line"/>
		</contour>
	</outline>
	<anchor name="aboveUC" x="415" y="727"/>
	<anchor name="belowLC" x="468" y="-22"/>
</glyph>
<glyph name="dezh" format="2">
	<unicode hex="02A4"/>
	<advance width="858"/>
	<outline>
		<contour>
			<point x="236" y="-12" type="curve" smooth="yes"/>
			<point x="288" y="-12"/>
			<point x="334" y="19"/>
			<point x="370" y="55" type="curve"/>
			<point x="373" y="55" type="line"/>
			<point x="381" y="0" type="line"/>
			<point x="462" y="0" type="line"/>
			<point x="462" y="709" type="line"/>
			<point x="363" y="709" type="line"/>
			<point x="363" y="527" type="line"/>
			<point x="367" y="446" type="line"/>
			<point x="328" y="478"/>
			<point x="296" y="501"/>
			<point x="244" y="501" type="curve" smooth="yes"/>
			<point x="140" y="501"/>
			<point x="45" y="403"/>
			<point x="45" y="244" type="curve" smooth="yes"/>
			<point x="45" y="82"/>
			<point x="120" y="-12"/>
		</contour>
		<contour>
			<point x="260" y="70" type="curve" smooth="yes"/>
			<point x="188" y="70"/>
			<point x="147" y="133"/>
			<point x="147" y="245" type="curve" smooth="yes"/>
			<point x="147" y="351"/>
			<point x="198" y="418"/>
			<point x="264" y="418" type="curve" smooth="yes"/>
			<point x="297" y="418"/>
			<point x="327" y="405"/>
			<point x="363" y="373" type="curve"/>
			<point x="363" y="131" type="line"/>
			<point x="328" y="91"/>
			<point x="297" y="70"/>
		</contour>
		<contour>
			<point x="637" y="-212" type="curve" smooth="yes"/>
			<point x="743" y="-212"/>
			<point x="840" y="-132"/>
			<point x="840" y="10" type="curve" smooth="yes"/>
			<point x="840" y="125"/>
			<point x="778" y="218"/>
			<point x="614" y="201" type="curve"/>
			<point x="650" y="184" type="line"/>
			<point x="818" y="436" type="line"/>
			<point x="818" y="489" type="line"/>
			<point x="446" y="489" type="line"/>
			<point x="446" y="409" type="line"/>
			<point x="698" y="409" type="line"/>
			<point x="537" y="166" type="line"/>
			<point x="573" y="114" type="line"/>
			<point x="596" y="124"/>
			<point x="607" y="129"/>
			<point x="635" y="129" type="curve" smooth="yes"/>
			<point x="702" y="129"/>
			<point x="739" y="83"/>
			<point x="739" y="7" type="curve" smooth="yes"/>
			<point x="739" y="-77"/>
			<point x="689" y="-130"/>
			<point x="627" y="-130" type="curve" smooth="yes"/>
			<point x="572" y="-130"/>
			<point x="535" y="-100"/>
			<point x="506" y="-70" type="curve"/>
			<point x="458" y="-133" type="line"/>
			<point x="497" y="-172"/>
			<point x="551" y="-212"/>
		</contour>
	</outline>
	<anchor name="aboveUC" x="415" y="727"/>
	<anchor name="belowLC" x="420" y="-203"/>
</glyph>
<glyph name="ts" format="2">
	<unicode hex="02A6"/>
	<advance width="669"/>
	<outline>
		<contour>
			<point x="364" y="-12" type="curve" smooth="yes"/>
			<point x="586" y="-12"/>
			<point x="638" y="55"/>
			<point x="638" y="137" type="curve" smooth="yes"/>
			<point x="638" y="229"/>
			<point x="563" y="259"/>
			<point x="496" y="284" type="curve" smooth="yes"/>
			<point x="443" y="304"/>
			<point x="396" y="321"/>
			<point x="396" y="363" type="curve" smooth="yes"/>
			<point x="396" y="397"/>
			<point x="421" y="425"/>
			<point x="474" y="425" type="curve" smooth="yes"/>
			<point x="515" y="425"/>
			<point x="549" y="412"/>
			<point x="583" y="387" type="curve"/>
			<point x="627" y="444" type="line"/>
			<point x="589" y="477"/>
			<point x="535" y="501"/>
			<point x="472" y="501" type="curve" smooth="yes"/>
			<point x="366" y="501"/>
			<point x="302" y="440"/>
			<point x="302" y="358" type="curve" smooth="yes"/>
			<point x="302" y="276"/>
			<point x="373" y="240"/>
			<point x="438" y="216" type="curve" smooth="yes"/>
			<point x="490" y="196"/>
			<point x="543" y="176"/>
			<point x="543" y="131" type="curve" smooth="yes"/>
			<point x="543" y="93"/>
			<point x="517" y="64"/>
			<point x="367" y="64" type="curve" smooth="yes"/>
			<point x="241" y="64"/>
			<point x="192" y="116"/>
			<point x="192" y="188" type="curve" smooth="yes"/>
			<point x="192" y="409" type="line"/>
			<point x="346" y="409" type="line"/>
			<point x="415" y="489" type="line"/>
			<point x="192" y="489" type="line"/>
			<point x="192" y="644" type="line"/>
			<point x="110" y="644" type="line"/>
			<point x="98" y="489" type="line"/>
			<point x="22" y="484" type="line"/>
			<point x="22" y="409" type="line"/>
			<point x="93" y="409" type="line"/>
			<point x="93" y="188" type="line" smooth="yes"/>
			<point x="93" y="78"/>
			<point x="150" y="-12"/>
		</contour>
	</outline>
	<anchor name="aboveLC" x="374" y="647"/>
	<anchor name="belowLC" x="354" y="-22"/>
</glyph>
<glyph name="tesh" format="2">
	<unicode hex="02A7"/>
	<advance width="562"/>
	<outline>
		<contour>
			<point x="240" y="-10" type="curve" smooth="yes"/>
			<point x="271" y="-10"/>
			<point x="299" y="-2"/>
			<point x="322" y="8" type="curve"/>
			<point x="303" y="80" type="line"/>
			<point x="287" y="73"/>
			<point x="273" y="70"/>
			<point x="260" y="70" type="curve" smooth="yes"/>
			<point x="211" y="70"/>
			<point x="192" y="101"/>
			<point x="192" y="160" type="curve" smooth="yes"/>
			<point x="192" y="409" type="line"/>
			<point x="438" y="409" type="line"/>
			<point x="438" y="489" type="line"/>
			<point x="192" y="489" type="line"/>
			<point x="192" y="644" type="line"/>
			<point x="110" y="644" type="line"/>
			<point x="98" y="489" type="line"/>
			<point x="22" y="484" type="line"/>
			<point x="22" y="409" type="line"/>
			<point x="93" y="409" type="line"/>
			<point x="93" y="160" type="line" smooth="yes"/>
			<point x="93" y="59"/>
			<point x="132" y="-10"/>
		</contour>
		<component base="esh" xOffset="307"/>
	</outline>
	<anchor name="aboveUC" x="314" y="727"/>
	<anchor name="belowLC" x="265" y="-203"/>
</glyph>
